NotoSansGeorgian-CondensedBold.ufo
<glyph name="acutecomb" format="2">
  <unicode hex="0301"/>
  <anchor x="-40" y="553" name="_top"/>
  <anchor x="-40" y="766" name="top"/>
  <outline>
    <contour>
      <point x="130" y="766" type="line"/>
      <point x="-52" y="766" type="line"/>
      <point x="-73" y="722"/>
      <point x="-98" y="673"/>
      <point x="-130" y="620" type="curve"/>
      <point x="-130" y="606" type="line"/>
      <point x="-11" y="606" type="line"/>
      <point x="39" y="653"/>
      <point x="102" y="722"/>
      <point x="130" y="756" type="curve"/>
    </contour>
  </outline>
</glyph>
<glyph name="circumflexcomb" format="2">
  <unicode hex="0302"/>
  <anchor x="0" y="553" name="_top"/>
  <anchor x="0" y="766" name="top"/>
  <outline>
    <contour>
      <point x="74" y="766" type="curve"/>
      <point x="-73" y="766" type="line"/>
      <point x="-90" y="731"/>
      <point x="-142" y="654"/>
      <point x="-169" y="620" type="curve"/>
      <point x="-169" y="606" type="line"/>
      <point x="-68" y="606" type="line"/>
      <point x="-51" y="620"/>
      <point x="-28" y="645"/>
      <point x="0" y="679" type="curve"/>
      <point x="27" y="646"/>
      <point x="50" y="622"/>
      <point x="70" y="606" type="curve"/>
      <point x="169" y="606" type="line"/>
      <point x="169" y="620" type="line"/>
      <point x="129" y="673"/>
      <point x="97" y="722"/>
    </contour>
  </outline>
</glyph>
<glyph name="macroncomb" format="2">
  <unicode hex="0304"/>
  <anchor x="1" y="553" name="_top"/>
  <anchor x="1" y="736" name="top"/>
  <outline>
    <contour>
      <point x="149" y="736" type="line"/>
      <point x="-148" y="736" type="line"/>
      <point x="-148" y="621" type="line"/>
      <point x="149" y="621" type="line"/>
    </contour>
  </outline>
</glyph>
<glyph name="dieresiscomb" format="2">
  <unicode hex="0308"/>
  <anchor x="0" y="553" name="_top"/>
  <anchor x="0" y="757" name="top"/>
  <outline>
    <contour>
      <point x="-169" y="680" type="curve" smooth="yes"/>
      <point x="-169" y="632"/>
      <point x="-141" y="604"/>
      <point x="-98" y="604" type="curve" smooth="yes"/>
      <point x="-53" y="604"/>
      <point x="-25" y="634"/>
      <point x="-25" y="680" type="curve" smooth="yes"/>
      <point x="-25" y="727"/>
      <point x="-53" y="757"/>
      <point x="-98" y="757" type="curve" smooth="yes"/>
      <point x="-141" y="757"/>
      <point x="-169" y="729"/>
    </contour>
    <contour>
      <point x="24" y="680" type="curve" smooth="yes"/>
      <point x="24" y="633"/>
      <point x="51" y="604"/>
      <point x="96" y="604" type="curve" smooth="yes"/>
      <point x="142" y="604"/>
      <point x="169" y="634"/>
      <point x="169" y="680" type="curve" smooth="yes"/>
      <point x="169" y="727"/>
      <point x="142" y="757"/>
      <point x="96" y="757" type="curve" smooth="yes"/>
      <point x="52" y="757"/>
      <point x="24" y="729"/>
    </contour>
  </outline>
</glyph>
<glyph name="period-arm" format="2">
  <advance width="280"/>
  <unicode hex="0589"/>
  <note>
uni0589
</note>
  <outline>
    <contour>
      <point x="49" y="81" type="curve" smooth="yes"/>
      <point x="49" y="22"/>
      <point x="84" y="-12"/>
      <point x="142" y="-12" type="curve" smooth="yes"/>
      <point x="198" y="-12"/>
      <point x="231" y="22"/>
      <point x="231" y="81" type="curve" smooth="yes"/>
      <point x="231" y="141"/>
      <point x="200" y="175"/>
      <point x="142" y="175" type="curve" smooth="yes"/>
      <point x="81" y="175"/>
      <point x="49" y="141"/>
    </contour>
    <contour>
      <point x="49" y="467" type="curve" smooth="yes"/>
      <point x="49" y="408"/>
      <point x="84" y="374"/>
      <point x="142" y="374" type="curve" smooth="yes"/>
      <point x="198" y="374"/>
      <point x="231" y="408"/>
      <point x="231" y="467" type="curve" smooth="yes"/>
      <point x="231" y="527"/>
      <point x="200" y="561"/>
      <point x="142" y="561" type="curve" smooth="yes"/>
      <point x="81" y="561"/>
      <point x="49" y="527"/>
    </contour>
  </outline>
</glyph>
<glyph name="An-oldgeorgian" format="2">
  <advance width="497"/>
  <unicode hex="10A0"/>
  <note>
uni10A0
</note>
  <outline>
    <contour>
      <point x="309" y="-10" type="curve" smooth="yes"/>
      <point x="368" y="-10"/>
      <point x="421" y="3"/>
      <point x="467" y="30" type="curve"/>
      <point x="467" y="182" type="line"/>
      <point x="424" y="157"/>
      <point x="382" y="137"/>
      <point x="336" y="137" type="curve" smooth="yes"/>
      <point x="247" y="137"/>
      <point x="216" y="202"/>
      <point x="216" y="339" type="curve" smooth="yes"/>
      <point x="216" y="478"/>
      <point x="266" y="567"/>
      <point x="378" y="567" type="curve" smooth="yes"/>
      <point x="467" y="567" type="line"/>
      <point x="467" y="714" type="line"/>
      <point x="58" y="714" type="line"/>
      <point x="58" y="569" type="line"/>
      <point x="147" y="569" type="line"/>
      <point x="147" y="565" type="line"/>
      <point x="79" y="517"/>
      <point x="39" y="431"/>
      <point x="39" y="321" type="curve" smooth="yes"/>
      <point x="39" y="118"/>
      <point x="135" y="-10"/>
    </contour>
  </outline>
</glyph>
<glyph name="Ban-oldgeorgian" format="2">
  <advance width="705"/>
  <unicode hex="10A1"/>
  <note>
uni10A1
</note>
  <outline>
    <contour>
      <point x="377" y="0" type="line"/>
      <point x="705" y="0" type="line"/>
      <point x="705" y="149" type="line"/>
      <point x="547" y="149" type="line"/>
      <point x="547" y="714" type="line"/>
      <point x="377" y="714" type="line"/>
      <point x="377" y="527" type="line" smooth="yes"/>
      <point x="377" y="405"/>
      <point x="343" y="345"/>
      <point x="289" y="345" type="curve" smooth="yes"/>
      <point x="238" y="345"/>
      <point x="209" y="386"/>
      <point x="209" y="477" type="curve" smooth="yes"/>
      <point x="209" y="567"/>
      <point x="225" y="643"/>
      <point x="253" y="714" type="curve"/>
      <point x="78" y="714" type="line"/>
      <point x="52" y="643"/>
      <point x="34" y="563"/>
      <point x="34" y="475" type="curve" smooth="yes"/>
      <point x="34" y="309"/>
      <point x="112" y="209"/>
      <point x="230" y="209" type="curve" smooth="yes"/>
      <point x="304" y="209"/>
      <point x="347" y="243"/>
      <point x="379" y="305" type="curve"/>
      <point x="385" y="305" type="line"/>
      <point x="380" y="251"/>
      <point x="377" y="206"/>
      <point x="377" y="167" type="curve" smooth="yes"/>
    </contour>
  </outline>
</glyph>
<glyph name="Gan-oldgeorgian" format="2">
  <advance width="660"/>
  <unicode hex="10A2"/>
  <note>
uni10A2
</note>
  <outline>
    <contour>
      <point x="332" y="0" type="line"/>
      <point x="660" y="0" type="line"/>
      <point x="660" y="149" type="line"/>
      <point x="502" y="149" type="line"/>
      <point x="502" y="714" type="line"/>
      <point x="48" y="714" type="line"/>
      <point x="48" y="369" type="line"/>
      <point x="218" y="369" type="line"/>
      <point x="218" y="567" type="line"/>
      <point x="332" y="567" type="line"/>
    </contour>
  </outline>
</glyph>
<glyph name="Don-oldgeorgian" format="2">
  <advance width="612"/>
  <unicode hex="10A3"/>
  <note>
uni10A3
</note>
  <outline>
    <contour>
      <point x="307" y="-10" type="curve" smooth="yes"/>
      <point x="482" y="-10"/>
      <point x="573" y="109"/>
      <point x="573" y="266" type="curve" smooth="yes"/>
      <point x="573" y="404"/>
      <point x="502" y="499"/>
      <point x="387" y="525" type="curve"/>
      <point x="387" y="567" type="line"/>
      <point x="565" y="567" type="line"/>
      <point x="565" y="714" type="line"/>
      <point x="47" y="714" type="line"/>
      <point x="47" y="567" type="line"/>
      <point x="225" y="567" type="line"/>
      <point x="225" y="525" type="line"/>
      <point x="109" y="498"/>
      <point x="39" y="404"/>
      <point x="39" y="267" type="curve" smooth="yes"/>
      <point x="39" y="108"/>
      <point x="129" y="-10"/>
    </contour>
    <contour>
      <point x="307" y="139" type="curve" smooth="yes"/>
      <point x="247" y="139"/>
      <point x="216" y="184"/>
      <point x="216" y="265" type="curve" smooth="yes"/>
      <point x="216" y="348"/>
      <point x="248" y="386"/>
      <point x="307" y="386" type="curve" smooth="yes"/>
      <point x="366" y="386"/>
      <point x="396" y="348"/>
      <point x="396" y="265" type="curve" smooth="yes"/>
      <point x="396" y="184"/>
      <point x="367" y="139"/>
    </contour>
  </outline>
</glyph>
<glyph name="En-oldgeorgian" format="2">
  <advance width="561"/>
  <unicode hex="10A4"/>
  <note>
uni10A4
</note>
  <outline>
    <contour>
      <point x="332" y="0" type="line"/>
      <point x="502" y="0" type="line"/>
      <point x="502" y="714" type="line"/>
      <point x="48" y="714" type="line"/>
      <point x="48" y="369" type="line"/>
      <point x="218" y="369" type="line"/>
      <point x="218" y="567" type="line"/>
      <point x="332" y="567" type="line"/>
    </contour>
  </outline>
</glyph>
<glyph name="Vin-oldgeorgian" format="2">
  <advance width="759"/>
  <unicode hex="10A5"/>
  <note>
uni10A5
</note>
  <outline>
    <contour>
      <point x="332" y="0" type="line"/>
      <point x="502" y="0" type="line"/>
      <point x="502" y="301" type="line"/>
      <point x="581" y="301" type="line"/>
      <point x="581" y="184" type="line"/>
      <point x="730" y="184" type="line"/>
      <point x="730" y="440" type="line"/>
      <point x="502" y="440" type="line"/>
      <point x="502" y="714" type="line"/>
      <point x="48" y="714" type="line"/>
      <point x="48" y="369" type="line"/>
      <point x="218" y="369" type="line"/>
      <point x="218" y="567" type="line"/>
      <point x="332" y="567" type="line"/>
    </contour>
  </outline>
</glyph>
<glyph name="Zen-oldgeorgian" format="2">
  <advance width="634"/>
  <unicode hex="10A6"/>
  <note>
uni10A6
</note>
  <outline>
    <contour>
      <point x="364" y="-10" type="curve" smooth="yes"/>
      <point x="517" y="-10"/>
      <point x="600" y="98"/>
      <point x="600" y="276" type="curve" smooth="yes"/>
      <point x="600" y="451"/>
      <point x="540" y="558"/>
      <point x="423" y="558" type="curve" smooth="yes"/>
      <point x="370" y="558"/>
      <point x="332" y="532"/>
      <point x="306" y="481" type="curve"/>
      <point x="299" y="481" type="line"/>
      <point x="304" y="522"/>
      <point x="306" y="566"/>
      <point x="306" y="606" type="curve" smooth="yes"/>
      <point x="306" y="714" type="line"/>
      <point x="-10" y="714" type="line"/>
      <point x="-10" y="567" type="line"/>
      <point x="136" y="567" type="line"/>
      <point x="136" y="276" type="line" smooth="yes"/>
      <point x="136" y="98"/>
      <point x="205" y="-10"/>
    </contour>
    <contour>
      <point x="364" y="139" type="curve" smooth="yes"/>
      <point x="318" y="139"/>
      <point x="306" y="180"/>
      <point x="306" y="274" type="curve" smooth="yes"/>
      <point x="306" y="368"/>
      <point x="321" y="409"/>
      <point x="364" y="409" type="curve" smooth="yes"/>
      <point x="407" y="409"/>
      <point x="423" y="367"/>
      <point x="423" y="274" type="curve" smooth="yes"/>
      <point x="423" y="180"/>
      <point x="401" y="139"/>
    </contour>
  </outline>
</glyph>
<glyph name="Tan-oldgeorgian" format="2">
  <advance width="785"/>
  <unicode hex="10A7"/>
  <note>
uni10A7
</note>
  <outline>
    <contour>
      <point x="528" y="440" type="line"/>
      <point x="528" y="714" type="line"/>
      <point x="344" y="714" type="line" smooth="yes"/>
      <point x="150" y="714"/>
      <point x="39" y="579"/>
      <point x="39" y="352" type="curve" smooth="yes"/>
      <point x="39" y="121"/>
      <point x="145" y="0"/>
      <point x="332" y="0" type="curve" smooth="yes"/>
      <point x="528" y="0" type="line"/>
      <point x="528" y="301" type="line"/>
      <point x="607" y="301" type="line"/>
      <point x="607" y="184" type="line"/>
      <point x="756" y="184" type="line"/>
      <point x="756" y="440" type="line"/>
    </contour>
    <contour>
      <point x="358" y="147" type="line"/>
      <point x="335" y="147" type="line" smooth="yes"/>
      <point x="255" y="147"/>
      <point x="215" y="204"/>
      <point x="215" y="359" type="curve" smooth="yes"/>
      <point x="215" y="498"/>
      <point x="255" y="566"/>
      <point x="345" y="566" type="curve" smooth="yes"/>
      <point x="358" y="566" type="line"/>
    </contour>
  </outline>
</glyph>
<glyph name="In-oldgeorgian" format="2">
  <advance width="434"/>
  <unicode hex="10A8"/>
  <note>
uni10A8
</note>
  <outline>
    <contour>
      <point x="205" y="0" type="line"/>
      <point x="375" y="0" type="line"/>
      <point x="375" y="714" type="line"/>
      <point x="-10" y="714" type="line"/>
      <point x="-10" y="567" type="line"/>
      <point x="205" y="567" type="line"/>
    </contour>
  </outline>
</glyph>
<glyph name="Kan-oldgeorgian" format="2">
  <advance width="579"/>
  <unicode hex="10A9"/>
  <note>
uni10A9
</note>
  <outline>
    <contour>
      <point x="354" y="0" type="line"/>
      <point x="524" y="0" type="line"/>
      <point x="524" y="381" type="line" smooth="yes"/>
      <point x="524" y="538"/>
      <point x="470" y="632"/>
      <point x="352" y="632" type="curve" smooth="yes"/>
      <point x="290" y="632"/>
      <point x="253" y="603"/>
      <point x="226" y="554" type="curve"/>
      <point x="220" y="554" type="line"/>
      <point x="225" y="592"/>
      <point x="225" y="630"/>
      <point x="225" y="664" type="curve" smooth="yes"/>
      <point x="225" y="714" type="line"/>
      <point x="55" y="714" type="line"/>
      <point x="55" y="350" type="line" smooth="yes"/>
      <point x="55" y="193"/>
      <point x="109" y="98"/>
      <point x="227" y="98" type="curve" smooth="yes"/>
      <point x="288" y="98"/>
      <point x="327" y="121"/>
      <point x="354" y="176" type="curve"/>
      <point x="358" y="176" type="line"/>
      <point x="355" y="136"/>
      <point x="354" y="95"/>
      <point x="354" y="62" type="curve" smooth="yes"/>
    </contour>
    <contour>
      <point x="289" y="237" type="curve" smooth="yes"/>
      <point x="242" y="237"/>
      <point x="227" y="276"/>
      <point x="227" y="362" type="curve" smooth="yes"/>
      <point x="227" y="454"/>
      <point x="241" y="493"/>
      <point x="289" y="493" type="curve" smooth="yes"/>
      <point x="338" y="493"/>
      <point x="353" y="454"/>
      <point x="353" y="367" type="curve" smooth="yes"/>
      <point x="353" y="276"/>
      <point x="338" y="237"/>
    </contour>
  </outline>
</glyph>
<glyph name="Las-oldgeorgian" format="2">
  <advance width="810"/>
  <unicode hex="10AA"/>
  <note>
uni10AA
</note>
  <outline>
    <contour>
      <point x="540" y="-10" type="curve" smooth="yes"/>
      <point x="693" y="-10"/>
      <point x="776" y="98"/>
      <point x="776" y="276" type="curve" smooth="yes"/>
      <point x="776" y="451"/>
      <point x="716" y="558"/>
      <point x="599" y="558" type="curve" smooth="yes"/>
      <point x="546" y="558"/>
      <point x="508" y="532"/>
      <point x="482" y="481" type="curve"/>
      <point x="475" y="481" type="line"/>
      <point x="480" y="522"/>
      <point x="482" y="566"/>
      <point x="482" y="606" type="curve" smooth="yes"/>
      <point x="482" y="714" type="line"/>
      <point x="48" y="714" type="line"/>
      <point x="48" y="369" type="line"/>
      <point x="218" y="369" type="line"/>
      <point x="218" y="567" type="line"/>
      <point x="312" y="567" type="line"/>
      <point x="312" y="276" type="line" smooth="yes"/>
      <point x="312" y="98"/>
      <point x="381" y="-10"/>
    </contour>
    <contour>
      <point x="540" y="139" type="curve" smooth="yes"/>
      <point x="494" y="139"/>
      <point x="482" y="180"/>
      <point x="482" y="274" type="curve" smooth="yes"/>
      <point x="482" y="368"/>
      <point x="497" y="409"/>
      <point x="540" y="409" type="curve" smooth="yes"/>
      <point x="583" y="409"/>
      <point x="599" y="367"/>
      <point x="599" y="274" type="curve" smooth="yes"/>
      <point x="599" y="180"/>
      <point x="577" y="139"/>
    </contour>
  </outline>
</glyph>
<glyph name="Man-oldgeorgian" format="2">
  <advance width="657"/>
  <unicode hex="10AB"/>
  <note>
uni10AB
</note>
  <outline>
    <contour>
      <point x="277" y="-10" type="curve" smooth="yes"/>
      <point x="428" y="-10"/>
      <point x="509" y="87"/>
      <point x="509" y="237" type="curve" smooth="yes"/>
      <point x="509" y="341" type="line"/>
      <point x="628" y="341" type="line"/>
      <point x="628" y="480" type="line"/>
      <point x="509" y="480" type="line"/>
      <point x="509" y="714" type="line"/>
      <point x="89" y="714" type="line"/>
      <point x="89" y="567" type="line"/>
      <point x="339" y="567" type="line"/>
      <point x="339" y="480" type="line"/>
      <point x="278" y="480" type="line" smooth="yes"/>
      <point x="147" y="480"/>
      <point x="39" y="416"/>
      <point x="39" y="237" type="curve" smooth="yes"/>
      <point x="39" y="87"/>
      <point x="135" y="-10"/>
    </contour>
    <contour>
      <point x="277" y="130" type="curve" smooth="yes"/>
      <point x="239" y="130"/>
      <point x="216" y="170"/>
      <point x="216" y="240" type="curve" smooth="yes"/>
      <point x="216" y="321"/>
      <point x="248" y="341"/>
      <point x="289" y="341" type="curve" smooth="yes"/>
      <point x="339" y="341" type="line"/>
      <point x="339" y="255" type="line" smooth="yes"/>
      <point x="339" y="170"/>
      <point x="321" y="130"/>
    </contour>
  </outline>
</glyph>
<glyph name="Nar-oldgeorgian" format="2">
  <advance width="613"/>
  <unicode hex="10AC"/>
  <note>
uni10AC
</note>
  <outline>
    <contour>
      <point x="59" y="0" type="line"/>
      <point x="229" y="0" type="line"/>
      <point x="229" y="194" type="line" smooth="yes"/>
      <point x="229" y="307"/>
      <point x="257" y="347"/>
      <point x="311" y="347" type="curve" smooth="yes"/>
      <point x="365" y="347"/>
      <point x="388" y="308"/>
      <point x="388" y="222" type="curve" smooth="yes"/>
      <point x="388" y="0" type="line"/>
      <point x="559" y="0" type="line"/>
      <point x="559" y="234" type="line" smooth="yes"/>
      <point x="559" y="380"/>
      <point x="501" y="482"/>
      <point x="376" y="482" type="curve" smooth="yes"/>
      <point x="302" y="482"/>
      <point x="256" y="451"/>
      <point x="227" y="401" type="curve"/>
      <point x="223" y="401" type="line"/>
      <point x="227" y="437"/>
      <point x="229" y="482"/>
      <point x="229" y="515" type="curve" smooth="yes"/>
      <point x="229" y="567" type="line"/>
      <point x="531" y="567" type="line"/>
      <point x="531" y="714" type="line"/>
      <point x="59" y="714" type="line"/>
    </contour>
  </outline>
</glyph>
<glyph name="On-oldgeorgian" format="2">
  <advance width="763"/>
  <unicode hex="10AD"/>
  <note>
uni10AD
</note>
  <outline>
    <contour>
      <point x="311" y="-10" type="curve" smooth="yes"/>
      <point x="378" y="-10"/>
      <point x="432" y="8"/>
      <point x="475" y="44" type="curve"/>
      <point x="511" y="14"/>
      <point x="559" y="-10"/>
      <point x="610" y="-10" type="curve" smooth="yes"/>
      <point x="717" y="-10"/>
      <point x="763" y="65"/>
      <point x="763" y="197" type="curve"/>
      <point x="611" y="197" type="line"/>
      <point x="611" y="151"/>
      <point x="598" y="120"/>
      <point x="559" y="120" type="curve" smooth="yes"/>
      <point x="551" y="120"/>
      <point x="544" y="121"/>
      <point x="537" y="124" type="curve"/>
      <point x="567" y="183"/>
      <point x="582" y="261"/>
      <point x="582" y="358" type="curve" smooth="yes"/>
      <point x="582" y="598"/>
      <point x="489" y="724"/>
      <point x="311" y="724" type="curve" smooth="yes"/>
      <point x="134" y="724"/>
      <point x="39" y="596"/>
      <point x="39" y="359" type="curve" smooth="yes"/>
      <point x="39" y="119"/>
      <point x="135" y="-10"/>
    </contour>
    <contour>
      <point x="311" y="139" type="curve" smooth="yes"/>
      <point x="248" y="139"/>
      <point x="216" y="212"/>
      <point x="216" y="358" type="curve" smooth="yes"/>
      <point x="216" y="505"/>
      <point x="248" y="578"/>
      <point x="311" y="578" type="curve" smooth="yes"/>
      <point x="374" y="578"/>
      <point x="405" y="508"/>
      <point x="405" y="358" type="curve" smooth="yes"/>
      <point x="405" y="208"/>
      <point x="375" y="139"/>
    </contour>
  </outline>
</glyph>
<glyph name="Par-oldgeorgian" format="2">
  <advance width="667"/>
  <unicode hex="10AE"/>
  <note>
uni10AE
</note>
  <outline>
    <contour>
      <point x="372" y="-10" type="curve" smooth="yes"/>
      <point x="528" y="-10"/>
      <point x="613" y="77"/>
      <point x="613" y="242" type="curve" smooth="yes"/>
      <point x="613" y="714" type="line"/>
      <point x="443" y="714" type="line"/>
      <point x="443" y="247" type="line" smooth="yes"/>
      <point x="443" y="167"/>
      <point x="422" y="139"/>
      <point x="374" y="139" type="curve" smooth="yes"/>
      <point x="329" y="139"/>
      <point x="306" y="168"/>
      <point x="306" y="246" type="curve" smooth="yes"/>
      <point x="306" y="714" type="line"/>
      <point x="-10" y="714" type="line"/>
      <point x="-10" y="567" type="line"/>
      <point x="136" y="567" type="line"/>
      <point x="136" y="238" type="line" smooth="yes"/>
      <point x="136" y="72"/>
      <point x="220" y="-10"/>
    </contour>
  </outline>
</glyph>
<glyph name="Zhar-oldgeorgian" format="2">
  <advance width="637"/>
  <unicode hex="10AF"/>
  <note>
uni10AF
</note>
  <outline>
    <contour>
      <point x="408" y="0" type="line"/>
      <point x="578" y="0" type="line"/>
      <point x="578" y="714" type="line"/>
      <point x="408" y="714" type="line"/>
      <point x="408" y="504" type="line" smooth="yes"/>
      <point x="408" y="402"/>
      <point x="374" y="345"/>
      <point x="320" y="345" type="curve" smooth="yes"/>
      <point x="269" y="345"/>
      <point x="240" y="386"/>
      <point x="240" y="456" type="curve" smooth="yes"/>
      <point x="240" y="512"/>
      <point x="262" y="556"/>
      <point x="304" y="578" type="curve"/>
      <point x="304" y="714" type="line"/>
      <point x="-5" y="714" type="line"/>
      <point x="-5" y="567" type="line"/>
      <point x="121" y="567" type="line"/>
      <point x="121" y="563" type="line"/>
      <point x="87" y="529"/>
      <point x="65" y="485"/>
      <point x="65" y="416" type="curve" smooth="yes"/>
      <point x="65" y="309"/>
      <point x="143" y="209"/>
      <point x="261" y="209" type="curve" smooth="yes"/>
      <point x="335" y="209"/>
      <point x="378" y="243"/>
      <point x="410" y="305" type="curve"/>
      <point x="416" y="305" type="line"/>
      <point x="411" y="251"/>
      <point x="408" y="206"/>
      <point x="408" y="167" type="curve" smooth="yes"/>
    </contour>
  </outline>
</glyph>
<glyph name="Rae-oldgeorgian" format="2">
  <advance width="830"/>
  <unicode hex="10B0"/>
  <note>
uni10B0
</note>
  <outline>
    <contour>
      <point x="279" y="-10" type="curve" smooth="yes"/>
      <point x="432" y="-10"/>
      <point x="515" y="79"/>
      <point x="515" y="260" type="curve" smooth="yes"/>
      <point x="515" y="347" type="line" smooth="yes"/>
      <point x="515" y="400"/>
      <point x="539" y="428"/>
      <point x="571" y="428" type="curve" smooth="yes"/>
      <point x="604" y="428"/>
      <point x="620" y="394"/>
      <point x="620" y="354" type="curve" smooth="yes"/>
      <point x="620" y="326"/>
      <point x="614" y="294"/>
      <point x="600" y="268" type="curve"/>
      <point x="750" y="223" type="line"/>
      <point x="783" y="260"/>
      <point x="801" y="313"/>
      <point x="801" y="377" type="curve" smooth="yes"/>
      <point x="801" y="464"/>
      <point x="742" y="563"/>
      <point x="642" y="563" type="curve" smooth="yes"/>
      <point x="588" y="563"/>
      <point x="542" y="544"/>
      <point x="513" y="494" type="curve"/>
      <point x="509" y="494" type="line"/>
      <point x="513" y="530"/>
      <point x="515" y="575"/>
      <point x="515" y="608" type="curve" smooth="yes"/>
      <point x="515" y="714" type="line"/>
      <point x="345" y="714" type="line"/>
      <point x="345" y="273" type="line" smooth="yes"/>
      <point x="345" y="185"/>
      <point x="326" y="139"/>
      <point x="277" y="139" type="curve" smooth="yes"/>
      <point x="232" y="139"/>
      <point x="211" y="187"/>
      <point x="211" y="250" type="curve" smooth="yes"/>
      <point x="211" y="288"/>
      <point x="221" y="337"/>
      <point x="239" y="370" type="curve"/>
      <point x="92" y="420" type="line"/>
      <point x="53" y="366"/>
      <point x="34" y="303"/>
      <point x="34" y="243" type="curve" smooth="yes"/>
      <point x="34" y="112"/>
      <point x="121" y="-10"/>
    </contour>
  </outline>
</glyph>
<glyph name="San-oldgeorgian" format="2">
  <advance width="569"/>
  <unicode hex="10B1"/>
  <note>
uni10B1
</note>
  <outline>
    <contour>
      <point x="300" y="-10" type="curve" smooth="yes"/>
      <point x="458" y="-10"/>
      <point x="535" y="112"/>
      <point x="535" y="243" type="curve" smooth="yes"/>
      <point x="535" y="303"/>
      <point x="516" y="366"/>
      <point x="477" y="420" type="curve"/>
      <point x="330" y="370" type="line"/>
      <point x="348" y="337"/>
      <point x="358" y="288"/>
      <point x="358" y="250" type="curve" smooth="yes"/>
      <point x="358" y="187"/>
      <point x="337" y="139"/>
      <point x="292" y="139" type="curve" smooth="yes"/>
      <point x="243" y="139"/>
      <point x="224" y="185"/>
      <point x="224" y="273" type="curve" smooth="yes"/>
      <point x="224" y="714" type="line"/>
      <point x="54" y="714" type="line"/>
      <point x="54" y="260" type="line" smooth="yes"/>
      <point x="54" y="79"/>
      <point x="157" y="-10"/>
    </contour>
  </outline>
</glyph>
<glyph name="Tar-oldgeorgian" format="2">
  <advance width="531"/>
  <unicode hex="10B2"/>
  <note>
uni10B2
</note>
  <outline>
    <contour>
      <point x="59" y="0" type="line"/>
      <point x="463" y="0" type="line"/>
      <point x="463" y="147" type="line"/>
      <point x="229" y="147" type="line"/>
      <point x="229" y="237" type="line"/>
      <point x="262" y="237" type="line" smooth="yes"/>
      <point x="420" y="237"/>
      <point x="492" y="344"/>
      <point x="492" y="487" type="curve" smooth="yes"/>
      <point x="492" y="632"/>
      <point x="418" y="714"/>
      <point x="271" y="714" type="curve" smooth="yes"/>
      <point x="59" y="714" type="line"/>
    </contour>
    <contour>
      <point x="229" y="381" type="line"/>
      <point x="229" y="570" type="line"/>
      <point x="255" y="570" type="line" smooth="yes"/>
      <point x="300" y="570"/>
      <point x="322" y="542"/>
      <point x="322" y="486" type="curve" smooth="yes"/>
      <point x="322" y="410"/>
      <point x="291" y="381"/>
      <point x="244" y="381" type="curve" smooth="yes"/>
    </contour>
  </outline>
</glyph>
<glyph name="Un-oldgeorgian" format="2">
  <advance width="634"/>
  <unicode hex="10B3"/>
  <note>
uni10B3
</note>
  <outline>
    <contour>
      <point x="472" y="-188" type="curve" smooth="yes"/>
      <point x="570" y="-188"/>
      <point x="624" y="-128"/>
      <point x="624" y="-36" type="curve" smooth="yes"/>
      <point x="624" y="44"/>
      <point x="584" y="94"/>
      <point x="539" y="130" type="curve"/>
      <point x="567" y="188"/>
      <point x="582" y="265"/>
      <point x="582" y="358" type="curve" smooth="yes"/>
      <point x="582" y="598"/>
      <point x="489" y="724"/>
      <point x="311" y="724" type="curve" smooth="yes"/>
      <point x="134" y="724"/>
      <point x="39" y="596"/>
      <point x="39" y="359" type="curve" smooth="yes"/>
      <point x="39" y="119"/>
      <point x="135" y="-10"/>
      <point x="311" y="-10" type="curve" smooth="yes"/>
      <point x="366" y="-10"/>
      <point x="414" y="3"/>
      <point x="453" y="29" type="curve"/>
      <point x="468" y="14"/>
      <point x="475" y="1"/>
      <point x="475" y="-22" type="curve" smooth="yes"/>
      <point x="475" y="-46"/>
      <point x="458" y="-64"/>
      <point x="437" y="-64" type="curve" smooth="yes"/>
      <point x="423" y="-64"/>
      <point x="410" y="-62"/>
      <point x="398" y="-58" type="curve"/>
      <point x="398" y="-177" type="line"/>
      <point x="421" y="-184"/>
      <point x="448" y="-188"/>
    </contour>
    <contour>
      <point x="311" y="139" type="curve" smooth="yes"/>
      <point x="248" y="139"/>
      <point x="216" y="212"/>
      <point x="216" y="358" type="curve" smooth="yes"/>
      <point x="216" y="504"/>
      <point x="248" y="578"/>
      <point x="311" y="578" type="curve" smooth="yes"/>
      <point x="374" y="578"/>
      <point x="405" y="508"/>
      <point x="405" y="358" type="curve" smooth="yes"/>
      <point x="405" y="208"/>
      <point x="375" y="139"/>
    </contour>
  </outline>
</glyph>
<glyph name="Phar-oldgeorgian" format="2">
  <advance width="760"/>
  <unicode hex="10B4"/>
  <note>
uni10B4
</note>
  <outline>
    <contour>
      <point x="300" y="0" type="line"/>
      <point x="460" y="0" type="line"/>
      <point x="460" y="159" type="line"/>
      <point x="613" y="166"/>
      <point x="721" y="267"/>
      <point x="721" y="439" type="curve" smooth="yes"/>
      <point x="721" y="628"/>
      <point x="587" y="724"/>
      <point x="382" y="724" type="curve" smooth="yes"/>
      <point x="181" y="724"/>
      <point x="39" y="628"/>
      <point x="39" y="439" type="curve" smooth="yes"/>
      <point x="39" y="267"/>
      <point x="146" y="166"/>
      <point x="300" y="159" type="curve"/>
    </contour>
    <contour>
      <point x="300" y="298" type="line"/>
      <point x="248" y="305"/>
      <point x="209" y="348"/>
      <point x="209" y="440" type="curve" smooth="yes"/>
      <point x="209" y="533"/>
      <point x="248" y="578"/>
      <point x="300" y="585" type="curve"/>
    </contour>
    <contour>
      <point x="460" y="298" type="curve"/>
      <point x="460" y="585" type="line"/>
      <point x="511" y="578"/>
      <point x="551" y="531"/>
      <point x="551" y="440" type="curve" smooth="yes"/>
      <point x="551" y="349"/>
      <point x="511" y="305"/>
    </contour>
  </outline>
</glyph>
<glyph name="Khar-oldgeorgian" format="2">
  <advance width="539"/>
  <unicode hex="10B5"/>
  <note>
uni10B5
</note>
  <outline>
    <contour>
      <point x="179" y="0" type="line"/>
      <point x="349" y="0" type="line"/>
      <point x="349" y="341" type="line"/>
      <point x="500" y="341" type="line"/>
      <point x="500" y="480" type="line"/>
      <point x="349" y="480" type="line"/>
      <point x="349" y="714" type="line"/>
      <point x="179" y="714" type="line"/>
      <point x="179" y="480" type="line"/>
      <point x="29" y="480" type="line"/>
      <point x="29" y="341" type="line"/>
      <point x="179" y="341" type="line"/>
    </contour>
  </outline>
</glyph>
<glyph name="Ghan-oldgeorgian" format="2">
  <advance width="585"/>
  <unicode hex="10B6"/>
  <note>
uni10B6
</note>
  <outline>
    <contour>
      <point x="54" y="0" type="line"/>
      <point x="224" y="0" type="line"/>
      <point x="224" y="467" type="line" smooth="yes"/>
      <point x="224" y="547"/>
      <point x="245" y="575"/>
      <point x="293" y="575" type="curve" smooth="yes"/>
      <point x="338" y="575"/>
      <point x="361" y="546"/>
      <point x="361" y="468" type="curve" smooth="yes"/>
      <point x="361" y="0" type="line"/>
      <point x="531" y="0" type="line"/>
      <point x="531" y="476" type="line" smooth="yes"/>
      <point x="531" y="642"/>
      <point x="447" y="724"/>
      <point x="295" y="724" type="curve" smooth="yes"/>
      <point x="139" y="724"/>
      <point x="54" y="637"/>
      <point x="54" y="472" type="curve" smooth="yes"/>
    </contour>
  </outline>
</glyph>
<glyph name="Shin-oldgeorgian" format="2">
  <advance width="613"/>
  <unicode hex="10B8"/>
  <note>
uni10B8
</note>
  <outline>
    <contour>
      <point x="311" y="-10" type="curve" smooth="yes"/>
      <point x="471" y="-10"/>
      <point x="554" y="79"/>
      <point x="554" y="260" type="curve" smooth="yes"/>
      <point x="554" y="714" type="line"/>
      <point x="384" y="714" type="line"/>
      <point x="384" y="616" type="line" smooth="yes"/>
      <point x="384" y="503"/>
      <point x="356" y="463"/>
      <point x="302" y="463" type="curve" smooth="yes"/>
      <point x="248" y="463"/>
      <point x="225" y="502"/>
      <point x="225" y="588" type="curve" smooth="yes"/>
      <point x="225" y="714" type="line"/>
      <point x="54" y="714" type="line"/>
      <point x="54" y="576" type="line" smooth="yes"/>
      <point x="54" y="420"/>
      <point x="112" y="328"/>
      <point x="237" y="328" type="curve" smooth="yes"/>
      <point x="308" y="328"/>
      <point x="354" y="359"/>
      <point x="386" y="409" type="curve"/>
      <point x="390" y="409" type="line"/>
      <point x="386" y="373"/>
      <point x="384" y="328"/>
      <point x="384" y="295" type="curve" smooth="yes"/>
      <point x="384" y="251" type="line" smooth="yes"/>
      <point x="384" y="182"/>
      <point x="365" y="136"/>
      <point x="312" y="136" type="curve" smooth="yes"/>
      <point x="266" y="136"/>
      <point x="239" y="161"/>
      <point x="239" y="207" type="curve" smooth="yes"/>
      <point x="239" y="218"/>
      <point x="241" y="231"/>
      <point x="245" y="243" type="curve"/>
      <point x="87" y="285" type="line"/>
      <point x="73" y="251"/>
      <point x="67" y="218"/>
      <point x="67" y="189" type="curve" smooth="yes"/>
      <point x="67" y="69"/>
      <point x="165" y="-10"/>
    </contour>
  </outline>
</glyph>
<glyph name="Chin-oldgeorgian" format="2">
  <advance width="573"/>
  <unicode hex="10B9"/>
  <note>
uni10B9
</note>
  <outline>
    <contour>
      <point x="59" y="0" type="line"/>
      <point x="229" y="0" type="line"/>
      <point x="229" y="337" type="line"/>
      <point x="353" y="337" type="line"/>
      <point x="353" y="0" type="line"/>
      <point x="524" y="0" type="line"/>
      <point x="524" y="472" type="line"/>
      <point x="229" y="472" type="line"/>
      <point x="229" y="714" type="line"/>
      <point x="59" y="714" type="line"/>
    </contour>
  </outline>
</glyph>
<glyph name="Can-oldgeorgian" format="2">
  <advance width="593"/>
  <unicode hex="10BA"/>
  <note>
uni10BA
</note>
  <outline>
    <contour>
      <point x="278" y="-9" type="curve" smooth="yes"/>
      <point x="320" y="-9"/>
      <point x="352" y="0"/>
      <point x="377" y="20" type="curve"/>
      <point x="377" y="0" type="line"/>
      <point x="544" y="0" type="line"/>
      <point x="544" y="307" type="line"/>
      <point x="377" y="307" type="line"/>
      <point x="377" y="152" type="line"/>
      <point x="365" y="144"/>
      <point x="345" y="137"/>
      <point x="316" y="137" type="curve" smooth="yes"/>
      <point x="253" y="138"/>
      <point x="216" y="209"/>
      <point x="216" y="357" type="curve" smooth="yes"/>
      <point x="216" y="499"/>
      <point x="263" y="578"/>
      <point x="350" y="578" type="curve" smooth="yes"/>
      <point x="400" y="578"/>
      <point x="447" y="564"/>
      <point x="486" y="540" type="curve"/>
      <point x="533" y="679" type="line"/>
      <point x="481" y="707"/>
      <point x="414" y="724"/>
      <point x="347" y="724" type="curve" smooth="yes"/>
      <point x="152" y="724"/>
      <point x="39" y="589"/>
      <point x="39" y="357" type="curve" smooth="yes"/>
      <point x="39" y="124"/>
      <point x="132" y="-9"/>
    </contour>
  </outline>
</glyph>
<glyph name="Jil-oldgeorgian" format="2">
  <advance width="783"/>
  <unicode hex="10BB"/>
  <outline>
    <contour>
      <point x="274" y="-10" type="curve" smooth="yes"/>
      <point x="413" y="-10"/>
      <point x="501" y="85"/>
      <point x="501" y="236" type="curve" smooth="yes"/>
      <point x="501" y="341" type="line"/>
      <point x="585" y="341" type="line"/>
      <point x="585" y="0" type="line"/>
      <point x="734" y="0" type="line"/>
      <point x="734" y="480" type="line"/>
      <point x="501" y="480" type="line"/>
      <point x="501" y="714" type="line"/>
      <point x="331" y="714" type="line"/>
      <point x="331" y="480" type="line"/>
      <point x="279" y="480" type="line" smooth="yes"/>
      <point x="137" y="480"/>
      <point x="39" y="396"/>
      <point x="39" y="237" type="curve" smooth="yes"/>
      <point x="39" y="87"/>
      <point x="137" y="-10"/>
    </contour>
    <contour>
      <point x="274" y="139" type="curve" smooth="yes"/>
      <point x="237" y="139"/>
      <point x="216" y="179"/>
      <point x="216" y="240" type="curve" smooth="yes"/>
      <point x="216" y="301"/>
      <point x="238" y="341"/>
      <point x="283" y="341" type="curve" smooth="yes"/>
      <point x="331" y="341" type="line"/>
      <point x="331" y="243" type="line" smooth="yes"/>
      <point x="331" y="177"/>
      <point x="312" y="139"/>
    </contour>
  </outline>
</glyph>
<glyph name="Cil-oldgeorgian" format="2">
  <advance width="520"/>
  <unicode hex="10BC"/>
  <note>
uni10BC
</note>
  <outline>
    <contour>
      <point x="59" y="0" type="line"/>
      <point x="229" y="0" type="line"/>
      <point x="229" y="109" type="line"/>
      <point x="311" y="109" type="line"/>
      <point x="311" y="44" type="line"/>
      <point x="460" y="44" type="line"/>
      <point x="460" y="248" type="line"/>
      <point x="229" y="248" type="line"/>
      <point x="229" y="284" type="line"/>
      <point x="262" y="284" type="line" smooth="yes"/>
      <point x="420" y="284"/>
      <point x="492" y="391"/>
      <point x="492" y="503" type="curve" smooth="yes"/>
      <point x="492" y="632"/>
      <point x="418" y="714"/>
      <point x="271" y="714" type="curve" smooth="yes"/>
      <point x="59" y="714" type="line"/>
    </contour>
    <contour>
      <point x="229" y="428" type="line"/>
      <point x="229" y="570" type="line"/>
      <point x="255" y="570" type="line" smooth="yes"/>
      <point x="300" y="570"/>
      <point x="322" y="548"/>
      <point x="322" y="502" type="curve" smooth="yes"/>
      <point x="322" y="456"/>
      <point x="291" y="428"/>
      <point x="244" y="428" type="curve" smooth="yes"/>
    </contour>
  </outline>
</glyph>
<glyph name="Char-oldgeorgian" format="2">
  <advance width="497"/>
  <unicode hex="10BD"/>
  <note>
uni10BD
</note>
  <outline>
    <contour>
      <point x="246" y="-10" type="curve" smooth="yes"/>
      <point x="388" y="-10"/>
      <point x="462" y="63"/>
      <point x="462" y="189" type="curve" smooth="yes"/>
      <point x="462" y="310"/>
      <point x="392" y="365"/>
      <point x="317" y="417" type="curve" smooth="yes"/>
      <point x="248" y="465"/>
      <point x="210" y="485"/>
      <point x="210" y="533" type="curve" smooth="yes"/>
      <point x="210" y="566"/>
      <point x="220" y="585"/>
      <point x="245" y="585" type="curve" smooth="yes"/>
      <point x="269" y="585"/>
      <point x="280" y="566"/>
      <point x="280" y="525" type="curve" smooth="yes"/>
      <point x="280" y="519"/>
      <point x="279" y="511"/>
      <point x="278" y="506" type="curve"/>
      <point x="444" y="506" type="line"/>
      <point x="445" y="512"/>
      <point x="445" y="520"/>
      <point x="445" y="527" type="curve" smooth="yes"/>
      <point x="445" y="656"/>
      <point x="368" y="724"/>
      <point x="245" y="724" type="curve" smooth="yes"/>
      <point x="119" y="724"/>
      <point x="41" y="649"/>
      <point x="41" y="525" type="curve" smooth="yes"/>
      <point x="41" y="406"/>
      <point x="123" y="356"/>
      <point x="199" y="298" type="curve" smooth="yes"/>
      <point x="245" y="263"/>
      <point x="292" y="237"/>
      <point x="292" y="183" type="curve" smooth="yes"/>
      <point x="292" y="146"/>
      <point x="272" y="129"/>
      <point x="246" y="129" type="curve" smooth="yes"/>
      <point x="219" y="129"/>
      <point x="200" y="149"/>
      <point x="200" y="184" type="curve" smooth="yes"/>
      <point x="200" y="209"/>
      <point x="202" y="223"/>
      <point x="204" y="234" type="curve"/>
      <point x="40" y="234" type="line"/>
      <point x="37" y="219"/>
      <point x="35" y="201"/>
      <point x="35" y="179" type="curve" smooth="yes"/>
      <point x="35" y="63"/>
      <point x="108" y="-10"/>
    </contour>
  </outline>
</glyph>
<glyph name="Xan-oldgeorgian" format="2">
  <advance width="583"/>
  <unicode hex="10BE"/>
  <note>
uni10BE
</note>
  <outline>
    <contour>
      <point x="59" y="714" type="line"/>
      <point x="59" y="0" type="line"/>
      <point x="502" y="0" type="line"/>
      <point x="502" y="147" type="line"/>
      <point x="229" y="147" type="line"/>
      <point x="229" y="262" type="line"/>
      <point x="524" y="262" type="line"/>
      <point x="524" y="714" type="line"/>
      <point x="353" y="714" type="line"/>
      <point x="353" y="397" type="line"/>
      <point x="229" y="397" type="line"/>
      <point x="229" y="714" type="line"/>
    </contour>
  </outline>
</glyph>
<glyph name="Jhan-oldgeorgian" format="2">
  <advance width="580"/>
  <unicode hex="10BF"/>
  <note>
uni10BF
</note>
  <outline>
    <contour>
      <point x="16" y="0" type="line"/>
      <point x="201" y="0" type="line"/>
      <point x="298" y="227" type="line"/>
      <point x="395" y="0" type="line"/>
      <point x="580" y="0" type="line"/>
      <point x="397" y="360" type="line"/>
      <point x="520" y="600" type="line"/>
      <point x="520" y="714" type="line"/>
      <point x="20" y="714" type="line"/>
      <point x="20" y="567" type="line"/>
      <point x="95" y="567" type="line"/>
      <point x="200" y="362" type="line"/>
    </contour>
    <contour>
      <point x="299" y="463" type="line"/>
      <point x="247" y="571" type="line"/>
      <point x="351" y="571" type="line"/>
    </contour>
  </outline>
</glyph>
<glyph name="Hae-oldgeorgian" format="2">
  <advance width="827"/>
  <unicode hex="10C0"/>
  <note>
uni10C0
</note>
  <outline>
    <contour>
      <point x="550" y="-10" type="curve" smooth="yes"/>
      <point x="716" y="-10"/>
      <point x="793" y="103"/>
      <point x="793" y="234" type="curve" smooth="yes"/>
      <point x="793" y="303"/>
      <point x="774" y="366"/>
      <point x="735" y="420" type="curve"/>
      <point x="588" y="370" type="line"/>
      <point x="606" y="337"/>
      <point x="616" y="288"/>
      <point x="616" y="250" type="curve" smooth="yes"/>
      <point x="616" y="187"/>
      <point x="595" y="139"/>
      <point x="550" y="139" type="curve" smooth="yes"/>
      <point x="501" y="139"/>
      <point x="482" y="185"/>
      <point x="482" y="273" type="curve" smooth="yes"/>
      <point x="482" y="714" type="line"/>
      <point x="48" y="714" type="line"/>
      <point x="48" y="369" type="line"/>
      <point x="218" y="369" type="line"/>
      <point x="218" y="567" type="line"/>
      <point x="312" y="567" type="line"/>
      <point x="312" y="250" type="line" smooth="yes"/>
      <point x="312" y="69"/>
      <point x="407" y="-10"/>
    </contour>
  </outline>
</glyph>
<glyph name="He-oldgeorgian" format="2">
  <advance width="647"/>
  <unicode hex="10C1"/>
  <note>
uni10C1
</note>
  <outline>
    <contour>
      <point x="59" y="0" type="line"/>
      <point x="229" y="0" type="line"/>
      <point x="229" y="272" type="line" smooth="yes"/>
      <point x="229" y="385"/>
      <point x="257" y="425"/>
      <point x="311" y="425" type="curve" smooth="yes"/>
      <point x="365" y="425"/>
      <point x="388" y="386"/>
      <point x="388" y="300" type="curve" smooth="yes"/>
      <point x="388" y="222" type="line"/>
      <point x="627" y="222" type="line"/>
      <point x="627" y="361" type="line"/>
      <point x="556" y="361" type="line"/>
      <point x="543" y="482"/>
      <point x="484" y="560"/>
      <point x="376" y="560" type="curve" smooth="yes"/>
      <point x="302" y="560"/>
      <point x="256" y="529"/>
      <point x="227" y="479" type="curve"/>
      <point x="223" y="479" type="line"/>
      <point x="227" y="515"/>
      <point x="229" y="560"/>
      <point x="229" y="593" type="curve" smooth="yes"/>
      <point x="229" y="714" type="line"/>
      <point x="59" y="714" type="line"/>
    </contour>
  </outline>
</glyph>
<glyph name="Hie-oldgeorgian" format="2">
  <advance width="518"/>
  <unicode hex="10C2"/>
  <note>
uni10C2
</note>
  <outline>
    <contour>
      <point x="211" y="-10" type="curve" smooth="yes"/>
      <point x="374" y="-10"/>
      <point x="479" y="105"/>
      <point x="479" y="317" type="curve" smooth="yes"/>
      <point x="479" y="522"/>
      <point x="376" y="630"/>
      <point x="233" y="630" type="curve" smooth="yes"/>
      <point x="216" y="630" type="line"/>
      <point x="216" y="714" type="line"/>
      <point x="56" y="714" type="line"/>
      <point x="56" y="491" type="line"/>
      <point x="163" y="491" type="line" smooth="yes"/>
      <point x="262" y="491"/>
      <point x="302" y="434"/>
      <point x="302" y="315" type="curve" smooth="yes"/>
      <point x="302" y="195"/>
      <point x="257" y="137"/>
      <point x="185" y="137" type="curve" smooth="yes"/>
      <point x="134" y="137"/>
      <point x="88" y="156"/>
      <point x="49" y="182" type="curve"/>
      <point x="49" y="28" type="line"/>
      <point x="100" y="2"/>
      <point x="141" y="-10"/>
    </contour>
  </outline>
</glyph>
<glyph name="We-oldgeorgian" format="2">
  <advance width="596"/>
  <unicode hex="10C3"/>
  <note>
uni10C3
</note>
  <outline>
    <contour>
      <point x="367" y="0" type="line"/>
      <point x="537" y="0" type="line"/>
      <point x="537" y="714" type="line"/>
      <point x="367" y="714" type="line"/>
      <point x="367" y="499" type="line" smooth="yes"/>
      <point x="367" y="395"/>
      <point x="337" y="317"/>
      <point x="285" y="317" type="curve" smooth="yes"/>
      <point x="239" y="317"/>
      <point x="209" y="348"/>
      <point x="209" y="409" type="curve" smooth="yes"/>
      <point x="209" y="447"/>
      <point x="221" y="497"/>
      <point x="239" y="530" type="curve"/>
      <point x="92" y="580" type="line"/>
      <point x="53" y="526"/>
      <point x="34" y="464"/>
      <point x="34" y="403" type="curve" smooth="yes"/>
      <point x="34" y="271"/>
      <point x="109" y="181"/>
      <point x="220" y="181" type="curve" smooth="yes"/>
      <point x="294" y="181"/>
      <point x="337" y="215"/>
      <point x="369" y="277" type="curve"/>
      <point x="375" y="277" type="line"/>
      <point x="370" y="223"/>
      <point x="367" y="178"/>
      <point x="367" y="139" type="curve" smooth="yes"/>
    </contour>
  </outline>
</glyph>
<glyph name="Har-oldgeorgian" format="2">
  <advance width="587"/>
  <unicode hex="10C4"/>
  <note>
uni10C4
</note>
  <outline>
    <contour>
      <point x="208" y="0" type="line"/>
      <point x="378" y="0" type="line"/>
      <point x="378" y="228" type="line"/>
      <point x="476" y="255"/>
      <point x="532" y="332"/>
      <point x="532" y="463" type="curve" smooth="yes"/>
      <point x="532" y="714" type="line"/>
      <point x="362" y="714" type="line"/>
      <point x="362" y="468" type="line" smooth="yes"/>
      <point x="362" y="388"/>
      <point x="341" y="360"/>
      <point x="293" y="360" type="curve" smooth="yes"/>
      <point x="248" y="360"/>
      <point x="225" y="389"/>
      <point x="225" y="467" type="curve" smooth="yes"/>
      <point x="225" y="714" type="line"/>
      <point x="55" y="714" type="line"/>
      <point x="55" y="459" type="line" smooth="yes"/>
      <point x="55" y="327"/>
      <point x="111" y="253"/>
      <point x="208" y="228" type="curve"/>
    </contour>
  </outline>
</glyph>
<glyph name="Hoe-oldgeorgian" format="2">
  <advance width="702"/>
  <unicode hex="10C5"/>
  <note>
uni10C5
</note>
  <outline>
    <contour>
      <point x="237" y="-10" type="curve" smooth="yes"/>
      <point x="376" y="-10"/>
      <point x="442" y="61"/>
      <point x="442" y="191" type="curve" smooth="yes"/>
      <point x="442" y="208" type="line"/>
      <point x="501" y="208" type="line"/>
      <point x="501" y="128" type="line"/>
      <point x="642" y="128" type="line"/>
      <point x="642" y="332" type="line"/>
      <point x="442" y="332" type="line"/>
      <point x="442" y="371" type="line"/>
      <point x="464" y="371" type="line" smooth="yes"/>
      <point x="605" y="371"/>
      <point x="674" y="433"/>
      <point x="674" y="551" type="curve" smooth="yes"/>
      <point x="674" y="660"/>
      <point x="605" y="724"/>
      <point x="468" y="724" type="curve" smooth="yes"/>
      <point x="330" y="724"/>
      <point x="272" y="660"/>
      <point x="272" y="532" type="curve" smooth="yes"/>
      <point x="272" y="332" type="line"/>
      <point x="237" y="332" type="line" smooth="yes"/>
      <point x="103" y="332"/>
      <point x="26" y="267"/>
      <point x="26" y="160" type="curve" smooth="yes"/>
      <point x="26" y="51"/>
      <point x="103" y="-10"/>
    </contour>
    <contour>
      <point x="235" y="112" type="curve" smooth="yes"/>
      <point x="209" y="112"/>
      <point x="196" y="131"/>
      <point x="196" y="159" type="curve" smooth="yes"/>
      <point x="196" y="186"/>
      <point x="212" y="208"/>
      <point x="247" y="208" type="curve" smooth="yes"/>
      <point x="272" y="208" type="line"/>
      <point x="272" y="183" type="line" smooth="yes"/>
      <point x="272" y="139"/>
      <point x="263" y="112"/>
    </contour>
    <contour>
      <point x="442" y="495" type="line"/>
      <point x="442" y="537" type="line" smooth="yes"/>
      <point x="442" y="575"/>
      <point x="447" y="600"/>
      <point x="473" y="600" type="curve" smooth="yes"/>
      <point x="497" y="600"/>
      <point x="504" y="579"/>
      <point x="504" y="548" type="curve" smooth="yes"/>
      <point x="504" y="515"/>
      <point x="491" y="495"/>
      <point x="464" y="495" type="curve" smooth="yes"/>
    </contour>
  </outline>
</glyph>
<glyph name="Yn-oldgeorgian" format="2">
  <advance width="497"/>
  <unicode hex="10C7"/>
  <anchor x="270" y="0" name="bottom"/>
  <anchor x="270" y="714" name="top"/>
  <outline>
    <contour>
      <point x="251" y="-10" type="curve" smooth="yes"/>
      <point x="389" y="-10"/>
      <point x="462" y="63"/>
      <point x="462" y="179" type="curve" smooth="yes"/>
      <point x="462" y="201"/>
      <point x="460" y="219"/>
      <point x="457" y="234" type="curve"/>
      <point x="293" y="234" type="line"/>
      <point x="295" y="223"/>
      <point x="297" y="209"/>
      <point x="297" y="184" type="curve" smooth="yes"/>
      <point x="297" y="149"/>
      <point x="278" y="129"/>
      <point x="251" y="129" type="curve" smooth="yes"/>
      <point x="225" y="129"/>
      <point x="205" y="146"/>
      <point x="205" y="183" type="curve" smooth="yes"/>
      <point x="205" y="237"/>
      <point x="252" y="263"/>
      <point x="298" y="298" type="curve" smooth="yes"/>
      <point x="374" y="356"/>
      <point x="456" y="406"/>
      <point x="456" y="525" type="curve" smooth="yes"/>
      <point x="456" y="649"/>
      <point x="378" y="724"/>
      <point x="252" y="724" type="curve" smooth="yes"/>
      <point x="129" y="724"/>
      <point x="52" y="656"/>
      <point x="52" y="527" type="curve" smooth="yes"/>
      <point x="52" y="520"/>
      <point x="52" y="512"/>
      <point x="53" y="506" type="curve"/>
      <point x="219" y="506" type="line"/>
      <point x="218" y="511"/>
      <point x="217" y="519"/>
      <point x="217" y="525" type="curve" smooth="yes"/>
      <point x="217" y="566"/>
      <point x="228" y="585"/>
      <point x="252" y="585" type="curve" smooth="yes"/>
      <point x="277" y="585"/>
      <point x="287" y="566"/>
      <point x="287" y="533" type="curve" smooth="yes"/>
      <point x="287" y="485"/>
      <point x="249" y="465"/>
      <point x="180" y="417" type="curve" smooth="yes"/>
      <point x="105" y="365"/>
      <point x="35" y="310"/>
      <point x="35" y="189" type="curve" smooth="yes"/>
      <point x="35" y="63"/>
      <point x="109" y="-10"/>
    </contour>
  </outline>
</glyph>
<glyph name="Aen-oldgeorgian" format="2">
  <advance width="471"/>
  <unicode hex="10CD"/>
  <outline>
    <contour>
      <point x="21" y="0" type="line"/>
      <point x="450" y="0" type="line"/>
      <point x="450" y="146" type="line"/>
      <point x="206" y="146" type="line"/>
      <point x="444" y="595" type="line"/>
      <point x="444" y="714" type="line"/>
      <point x="26" y="714" type="line"/>
      <point x="26" y="570" type="line"/>
      <point x="260" y="570" type="line"/>
      <point x="21" y="119" type="line"/>
    </contour>
  </outline>
</glyph>
<glyph name="an-georgian" format="2">
  <advance width="496"/>
  <unicode hex="10D0"/>
  <note>
uni10D0
</note>
  <anchor x="252" y="553" name="top"/>
  <outline>
    <contour>
      <point x="246" y="-10" type="curve" smooth="yes"/>
      <point x="361" y="-10"/>
      <point x="458" y="68"/>
      <point x="458" y="194" type="curve" smooth="yes"/>
      <point x="458" y="287"/>
      <point x="423" y="341"/>
      <point x="389" y="393" type="curve" smooth="yes"/>
      <point x="359" y="439"/>
      <point x="332" y="484"/>
      <point x="332" y="553" type="curve"/>
      <point x="170" y="553" type="line"/>
      <point x="170" y="454"/>
      <point x="207" y="391"/>
      <point x="242" y="339" type="curve" smooth="yes"/>
      <point x="270" y="297"/>
      <point x="294" y="257"/>
      <point x="294" y="200" type="curve" smooth="yes"/>
      <point x="294" y="152"/>
      <point x="273" y="125"/>
      <point x="242" y="125" type="curve" smooth="yes"/>
      <point x="208" y="125"/>
      <point x="191" y="160"/>
      <point x="191" y="210" type="curve" smooth="yes"/>
      <point x="191" y="243"/>
      <point x="195" y="268"/>
      <point x="200" y="293" type="curve"/>
      <point x="52" y="293" type="line"/>
      <point x="39" y="255"/>
      <point x="33" y="228"/>
      <point x="33" y="184" type="curve" smooth="yes"/>
      <point x="33" y="68"/>
      <point x="125" y="-10"/>
    </contour>
  </outline>
</glyph>
<glyph name="ban-georgian" format="2">
  <advance width="527"/>
  <unicode hex="10D1"/>
  <note>
uni10D1
</note>
  <outline>
    <contour>
      <point x="348" y="548" type="curve"/>
      <point x="359" y="564"/>
      <point x="366" y="584"/>
      <point x="366" y="609" type="curve" smooth="yes"/>
      <point x="366" y="644"/>
      <point x="348" y="667"/>
      <point x="331" y="687" type="curve" smooth="yes"/>
      <point x="313" y="708"/>
      <point x="299" y="727"/>
      <point x="299" y="760" type="curve"/>
      <point x="139" y="760" type="line"/>
      <point x="139" y="700"/>
      <point x="158" y="674"/>
      <point x="177" y="649" type="curve" smooth="yes"/>
      <point x="191" y="631"/>
      <point x="203" y="613"/>
      <point x="203" y="587" type="curve" smooth="yes"/>
      <point x="203" y="576"/>
      <point x="201" y="565"/>
      <point x="198" y="555" type="curve"/>
      <point x="85" y="524"/>
      <point x="38" y="413"/>
      <point x="38" y="278" type="curve" smooth="yes"/>
      <point x="38" y="132"/>
      <point x="106" y="-10"/>
      <point x="263" y="-10" type="curve" smooth="yes"/>
      <point x="433" y="-10"/>
      <point x="489" y="136"/>
      <point x="489" y="278" type="curve" smooth="yes"/>
      <point x="489" y="419"/>
      <point x="435" y="513"/>
    </contour>
    <contour>
      <point x="264" y="125" type="curve" smooth="yes"/>
      <point x="221" y="125"/>
      <point x="202" y="177"/>
      <point x="202" y="276" type="curve" smooth="yes"/>
      <point x="202" y="380"/>
      <point x="221" y="428"/>
      <point x="264" y="428" type="curve" smooth="yes"/>
      <point x="309" y="428"/>
      <point x="325" y="379"/>
      <point x="325" y="278" type="curve" smooth="yes"/>
      <point x="325" y="176"/>
      <point x="309" y="125"/>
    </contour>
  </outline>
</glyph>
<glyph name="gan-georgian" format="2">
  <advance width="517"/>
  <unicode hex="10D2"/>
  <note>
uni10D2
</note>
  <outline>
    <contour>
      <point x="258" y="-250" type="curve" smooth="yes"/>
      <point x="428" y="-250"/>
      <point x="484" y="-104"/>
      <point x="484" y="28" type="curve" smooth="yes"/>
      <point x="484" y="169"/>
      <point x="433" y="242"/>
      <point x="369" y="268" type="curve"/>
      <point x="369" y="272" type="line"/>
      <point x="433" y="300"/>
      <point x="449" y="354"/>
      <point x="449" y="399" type="curve" smooth="yes"/>
      <point x="449" y="489"/>
      <point x="391" y="563"/>
      <point x="259" y="563" type="curve" smooth="yes"/>
      <point x="141" y="563"/>
      <point x="71" y="494"/>
      <point x="71" y="406" type="curve" smooth="yes"/>
      <point x="71" y="389"/>
      <point x="74" y="371"/>
      <point x="78" y="353" type="curve"/>
      <point x="225" y="353" type="line"/>
      <point x="222" y="365"/>
      <point x="221" y="378"/>
      <point x="221" y="389" type="curve" smooth="yes"/>
      <point x="221" y="417"/>
      <point x="234" y="437"/>
      <point x="258" y="437" type="curve" smooth="yes"/>
      <point x="282" y="437"/>
      <point x="295" y="417"/>
      <point x="295" y="388" type="curve" smooth="yes"/>
      <point x="295" y="331"/>
      <point x="276" y="312"/>
      <point x="213" y="295" type="curve" smooth="yes"/>
      <point x="99" y="264"/>
      <point x="33" y="167"/>
      <point x="33" y="28" type="curve" smooth="yes"/>
      <point x="33" y="-108"/>
      <point x="101" y="-250"/>
    </contour>
    <contour>
      <point x="259" y="-115" type="curve" smooth="yes"/>
      <point x="216" y="-115"/>
      <point x="197" y="-63"/>
      <point x="197" y="26" type="curve" smooth="yes"/>
      <point x="197" y="120"/>
      <point x="216" y="168"/>
      <point x="259" y="168" type="curve" smooth="yes"/>
      <point x="304" y="168"/>
      <point x="320" y="119"/>
      <point x="320" y="28" type="curve" smooth="yes"/>
      <point x="320" y="-64"/>
      <point x="304" y="-115"/>
    </contour>
  </outline>
</glyph>
<glyph name="don-georgian" format="2">
  <advance width="760"/>
  <unicode hex="10D3"/>
  <note>
uni10D3
</note>
  <outline>
    <contour>
      <point x="425" y="-250" type="curve"/>
      <point x="553" y="-198" type="line"/>
      <point x="521" y="-108"/>
      <point x="460" y="-59"/>
      <point x="377" y="-17" type="curve" smooth="yes"/>
      <point x="290" y="27"/>
      <point x="202" y="101"/>
      <point x="202" y="277" type="curve" smooth="yes"/>
      <point x="202" y="382"/>
      <point x="218" y="428"/>
      <point x="252" y="428" type="curve" smooth="yes"/>
      <point x="284" y="428"/>
      <point x="291" y="390"/>
      <point x="291" y="316" type="curve" smooth="yes"/>
      <point x="291" y="278" type="line" smooth="yes"/>
      <point x="291" y="156"/>
      <point x="342" y="10"/>
      <point x="507" y="10" type="curve" smooth="yes"/>
      <point x="665" y="10"/>
      <point x="722" y="152"/>
      <point x="722" y="288" type="curve" smooth="yes"/>
      <point x="722" y="437"/>
      <point x="662" y="563"/>
      <point x="515" y="563" type="curve" smooth="yes"/>
      <point x="457" y="563"/>
      <point x="395" y="531"/>
      <point x="373" y="470" type="curve"/>
      <point x="370" y="470" type="line"/>
      <point x="349" y="531"/>
      <point x="300" y="563"/>
      <point x="234" y="563" type="curve" smooth="yes"/>
      <point x="111" y="563"/>
      <point x="38" y="453"/>
      <point x="38" y="279" type="curve" smooth="yes"/>
      <point x="38" y="143"/>
      <point x="96" y="18"/>
      <point x="211" y="-40" type="curve"/>
      <point x="211" y="-44" type="line"/>
      <point x="169" y="-48"/>
      <point x="138" y="-58"/>
      <point x="114" y="-70" type="curve"/>
      <point x="160" y="-176" type="line"/>
      <point x="194" y="-156"/>
      <point x="238" y="-145"/>
      <point x="277" y="-145" type="curve" smooth="yes"/>
      <point x="335" y="-145"/>
      <point x="392" y="-171"/>
    </contour>
    <contour>
      <point x="506" y="145" type="curve" smooth="yes"/>
      <point x="466" y="145"/>
      <point x="455" y="196"/>
      <point x="455" y="287" type="curve" smooth="yes"/>
      <point x="455" y="379"/>
      <point x="466" y="428"/>
      <point x="506" y="428" type="curve" smooth="yes"/>
      <point x="544" y="428"/>
      <point x="558" y="380"/>
      <point x="558" y="286" type="curve" smooth="yes"/>
      <point x="558" y="197"/>
      <point x="544" y="145"/>
    </contour>
  </outline>
</glyph>
<glyph name="en-georgian" format="2">
  <advance width="508"/>
  <unicode hex="10D4"/>
  <note>
uni10D4
</note>
  <anchor x="254" y="553" name="top"/>
  <outline>
    <contour>
      <point x="247" y="-250" type="curve" smooth="yes"/>
      <point x="382" y="-250"/>
      <point x="458" y="-161"/>
      <point x="458" y="-2" type="curve" smooth="yes"/>
      <point x="458" y="353" type="line" smooth="yes"/>
      <point x="458" y="488"/>
      <point x="382" y="563"/>
      <point x="253" y="563" type="curve" smooth="yes"/>
      <point x="138" y="563"/>
      <point x="47" y="502"/>
      <point x="47" y="369" type="curve" smooth="yes"/>
      <point x="47" y="325"/>
      <point x="53" y="298"/>
      <point x="66" y="260" type="curve"/>
      <point x="217" y="260" type="line"/>
      <point x="211" y="292"/>
      <point x="208" y="325"/>
      <point x="208" y="353" type="curve" smooth="yes"/>
      <point x="208" y="395"/>
      <point x="220" y="428"/>
      <point x="253" y="428" type="curve" smooth="yes"/>
      <point x="283" y="428"/>
      <point x="296" y="401"/>
      <point x="296" y="353" type="curve" smooth="yes"/>
      <point x="296" y="3" type="line" smooth="yes"/>
      <point x="296" y="-85"/>
      <point x="280" y="-115"/>
      <point x="245" y="-115" type="curve" smooth="yes"/>
      <point x="208" y="-115"/>
      <point x="193" y="-61"/>
      <point x="193" y="1" type="curve" smooth="yes"/>
      <point x="193" y="35"/>
      <point x="199" y="69"/>
      <point x="205" y="96" type="curve"/>
      <point x="52" y="96" type="line"/>
      <point x="39" y="59"/>
      <point x="33" y="21"/>
      <point x="33" y="-14" type="curve" smooth="yes"/>
      <point x="33" y="-143"/>
      <point x="112" y="-250"/>
    </contour>
  </outline>
</glyph>
<glyph name="vin-georgian" format="2">
  <advance width="506"/>
  <unicode hex="10D5"/>
  <note>
uni10D5
</note>
  <outline>
    <contour>
      <point x="255" y="-250" type="curve" smooth="yes"/>
      <point x="395" y="-250"/>
      <point x="473" y="-147"/>
      <point x="473" y="-16" type="curve" smooth="yes"/>
      <point x="473" y="96"/>
      <point x="419" y="166"/>
      <point x="346" y="187" type="curve"/>
      <point x="346" y="190" type="line"/>
      <point x="419" y="219"/>
      <point x="461" y="280"/>
      <point x="461" y="372" type="curve" smooth="yes"/>
      <point x="461" y="487"/>
      <point x="375" y="563"/>
      <point x="255" y="563" type="curve" smooth="yes"/>
      <point x="141" y="563"/>
      <point x="50" y="498"/>
      <point x="50" y="379" type="curve" smooth="yes"/>
      <point x="50" y="335"/>
      <point x="56" y="318"/>
      <point x="69" y="290" type="curve"/>
      <point x="220" y="290" type="line"/>
      <point x="214" y="312"/>
      <point x="211" y="335"/>
      <point x="211" y="363" type="curve" smooth="yes"/>
      <point x="211" y="395"/>
      <point x="223" y="428"/>
      <point x="255" y="428" type="curve" smooth="yes"/>
      <point x="286" y="428"/>
      <point x="299" y="401"/>
      <point x="299" y="344" type="curve" smooth="yes"/>
      <point x="299" y="289"/>
      <point x="286" y="246"/>
      <point x="246" y="246" type="curve" smooth="yes"/>
      <point x="221" y="246" type="line"/>
      <point x="221" y="113" type="line"/>
      <point x="241" y="113" type="line" smooth="yes"/>
      <point x="287" y="113"/>
      <point x="309" y="71"/>
      <point x="309" y="-4" type="curve" smooth="yes"/>
      <point x="309" y="-80"/>
      <point x="293" y="-115"/>
      <point x="253" y="-115" type="curve" smooth="yes"/>
      <point x="212" y="-115"/>
      <point x="195" y="-64"/>
      <point x="195" y="-10" type="curve" smooth="yes"/>
      <point x="195" y="16"/>
      <point x="199" y="43"/>
      <point x="205" y="66" type="curve"/>
      <point x="52" y="66" type="line"/>
      <point x="39" y="36"/>
      <point x="33" y="5"/>
      <point x="33" y="-25" type="curve" smooth="yes"/>
      <point x="33" y="-157"/>
      <point x="123" y="-250"/>
    </contour>
  </outline>
</glyph>
<glyph name="zen-georgian" format="2">
  <advance width="547"/>
  <unicode hex="10D6"/>
  <note>
uni10D6
</note>
  <outline>
    <contour>
      <point x="287" y="-10" type="curve" smooth="yes"/>
      <point x="457" y="-10"/>
      <point x="509" y="136"/>
      <point x="509" y="263" type="curve" smooth="yes"/>
      <point x="509" y="377"/>
      <point x="465" y="463"/>
      <point x="381" y="497" type="curve" smooth="yes"/>
      <point x="376" y="499"/>
      <point x="371" y="501"/>
      <point x="365" y="503" type="curve"/>
      <point x="365" y="507" type="line"/>
      <point x="381" y="528"/>
      <point x="394" y="560"/>
      <point x="394" y="600" type="curve" smooth="yes"/>
      <point x="394" y="688"/>
      <point x="323" y="770"/>
      <point x="203" y="770" type="curve" smooth="yes"/>
      <point x="63" y="770"/>
      <point x="10" y="681"/>
      <point x="10" y="580" type="curve" smooth="yes"/>
      <point x="10" y="507"/>
      <point x="48" y="444"/>
      <point x="114" y="418" type="curve"/>
      <point x="114" y="414" type="line"/>
      <point x="79" y="366"/>
      <point x="66" y="314"/>
      <point x="66" y="247" type="curve" smooth="yes"/>
      <point x="66" y="132"/>
      <point x="130" y="-10"/>
    </contour>
    <contour>
      <point x="288" y="125" type="curve" smooth="yes"/>
      <point x="245" y="125"/>
      <point x="230" y="177"/>
      <point x="230" y="261" type="curve" smooth="yes"/>
      <point x="230" y="350"/>
      <point x="245" y="398"/>
      <point x="288" y="398" type="curve" smooth="yes"/>
      <point x="333" y="398"/>
      <point x="345" y="349"/>
      <point x="345" y="263" type="curve" smooth="yes"/>
      <point x="345" y="176"/>
      <point x="333" y="125"/>
    </contour>
    <contour>
      <point x="201" y="513" type="curve" smooth="yes"/>
      <point x="171" y="513"/>
      <point x="161" y="544"/>
      <point x="161" y="581" type="curve" smooth="yes"/>
      <point x="161" y="619"/>
      <point x="171" y="648"/>
      <point x="201" y="648" type="curve" smooth="yes"/>
      <point x="233" y="648"/>
      <point x="242" y="617"/>
      <point x="242" y="581" type="curve" smooth="yes"/>
      <point x="242" y="544"/>
      <point x="233" y="513"/>
    </contour>
  </outline>
</glyph>
<glyph name="tan-georgian" format="2">
  <advance width="760"/>
  <unicode hex="10D7"/>
  <note>
uni10D7
</note>
  <outline>
    <contour>
      <point x="253" y="-10" type="curve" smooth="yes"/>
      <point x="418" y="-10"/>
      <point x="469" y="136"/>
      <point x="469" y="268" type="curve" smooth="yes"/>
      <point x="469" y="316" type="line" smooth="yes"/>
      <point x="469" y="390"/>
      <point x="476" y="428"/>
      <point x="508" y="428" type="curve" smooth="yes"/>
      <point x="542" y="428"/>
      <point x="558" y="382"/>
      <point x="558" y="279" type="curve" smooth="yes"/>
      <point x="558" y="185"/>
      <point x="543" y="84"/>
      <point x="511" y="0" type="curve"/>
      <point x="666" y="0" type="line"/>
      <point x="709" y="104"/>
      <point x="722" y="183"/>
      <point x="722" y="284" type="curve" smooth="yes"/>
      <point x="722" y="458"/>
      <point x="646" y="563"/>
      <point x="526" y="563" type="curve" smooth="yes"/>
      <point x="460" y="563"/>
      <point x="411" y="531"/>
      <point x="390" y="470" type="curve"/>
      <point x="387" y="470" type="line"/>
      <point x="365" y="531"/>
      <point x="303" y="563"/>
      <point x="245" y="563" type="curve" smooth="yes"/>
      <point x="98" y="563"/>
      <point x="38" y="437"/>
      <point x="38" y="278" type="curve" smooth="yes"/>
      <point x="38" y="132"/>
      <point x="101" y="-10"/>
    </contour>
    <contour>
      <point x="254" y="125" type="curve" smooth="yes"/>
      <point x="216" y="125"/>
      <point x="202" y="177"/>
      <point x="202" y="276" type="curve" smooth="yes"/>
      <point x="202" y="380"/>
      <point x="216" y="428"/>
      <point x="254" y="428" type="curve" smooth="yes"/>
      <point x="294" y="428"/>
      <point x="305" y="379"/>
      <point x="305" y="277" type="curve" smooth="yes"/>
      <point x="305" y="176"/>
      <point x="294" y="125"/>
    </contour>
  </outline>
</glyph>
<glyph name="in-georgian" format="2">
  <advance width="520"/>
  <unicode hex="10D8"/>
  <note>
uni10D8
</note>
  <anchor x="260" y="553" name="top"/>
  <outline>
    <contour>
      <point x="86" y="0" type="curve"/>
      <point x="238" y="0" type="line"/>
      <point x="217" y="76"/>
      <point x="202" y="173"/>
      <point x="202" y="279" type="curve" smooth="yes"/>
      <point x="202" y="384"/>
      <point x="220" y="428"/>
      <point x="260" y="428" type="curve" smooth="yes"/>
      <point x="299" y="428"/>
      <point x="318" y="382"/>
      <point x="318" y="279" type="curve" smooth="yes"/>
      <point x="318" y="173"/>
      <point x="303" y="76"/>
      <point x="281" y="0" type="curve"/>
      <point x="433" y="0" type="line"/>
      <point x="469" y="104"/>
      <point x="482" y="183"/>
      <point x="482" y="284" type="curve" smooth="yes"/>
      <point x="482" y="456"/>
      <point x="398" y="563"/>
      <point x="260" y="563" type="curve" smooth="yes"/>
      <point x="120" y="563"/>
      <point x="38" y="456"/>
      <point x="38" y="284" type="curve" smooth="yes"/>
      <point x="38" y="179"/>
      <point x="51" y="104"/>
    </contour>
  </outline>
</glyph>
<glyph name="kan-georgian" format="2">
  <advance width="491"/>
  <unicode hex="10D9"/>
  <note>
uni10D9
</note>
  <outline>
    <contour>
      <point x="242" y="-250" type="curve" smooth="yes"/>
      <point x="380" y="-250"/>
      <point x="458" y="-147"/>
      <point x="458" y="-6" type="curve" smooth="yes"/>
      <point x="458" y="116"/>
      <point x="404" y="186"/>
      <point x="331" y="207" type="curve"/>
      <point x="331" y="210" type="line"/>
      <point x="404" y="230"/>
      <point x="446" y="290"/>
      <point x="446" y="372" type="curve" smooth="yes"/>
      <point x="446" y="487"/>
      <point x="358" y="563"/>
      <point x="232" y="563" type="curve"/>
      <point x="232" y="428" type="line"/>
      <point x="269" y="428"/>
      <point x="284" y="391"/>
      <point x="284" y="347" type="curve" smooth="yes"/>
      <point x="284" y="299"/>
      <point x="266" y="266"/>
      <point x="225" y="266" type="curve" smooth="yes"/>
      <point x="206" y="266" type="line"/>
      <point x="206" y="133" type="line"/>
      <point x="226" y="133" type="line" smooth="yes"/>
      <point x="272" y="133"/>
      <point x="294" y="91"/>
      <point x="294" y="6" type="curve" smooth="yes"/>
      <point x="294" y="-80"/>
      <point x="277" y="-115"/>
      <point x="242" y="-115" type="curve" smooth="yes"/>
      <point x="207" y="-115"/>
      <point x="190" y="-74"/>
      <point x="190" y="-10" type="curve" smooth="yes"/>
      <point x="190" y="16"/>
      <point x="193" y="43"/>
      <point x="198" y="66" type="curve"/>
      <point x="47" y="66" type="line"/>
      <point x="34" y="36"/>
      <point x="28" y="5"/>
      <point x="28" y="-25" type="curve" smooth="yes"/>
      <point x="28" y="-157"/>
      <point x="118" y="-250"/>
    </contour>
  </outline>
</glyph>
<glyph name="las-georgian" format="2">
  <advance width="964"/>
  <unicode hex="10DA"/>
  <note>
uni10DA
</note>
  <outline>
    <contour>
      <point x="525" y="-250" type="curve"/>
      <point x="653" y="-198" type="line"/>
      <point x="621" y="-108"/>
      <point x="515" y="-37"/>
      <point x="417" y="-5" type="curve" smooth="yes"/>
      <point x="297" y="34"/>
      <point x="202" y="107"/>
      <point x="202" y="287" type="curve" smooth="yes"/>
      <point x="202" y="384"/>
      <point x="212" y="428"/>
      <point x="243" y="428" type="curve" smooth="yes"/>
      <point x="274" y="428"/>
      <point x="283" y="398"/>
      <point x="283" y="310" type="curve" smooth="yes"/>
      <point x="283" y="162" type="line"/>
      <point x="441" y="162" type="line"/>
      <point x="441" y="310" type="line" smooth="yes"/>
      <point x="441" y="398"/>
      <point x="451" y="428"/>
      <point x="482" y="428" type="curve" smooth="yes"/>
      <point x="513" y="428"/>
      <point x="523" y="398"/>
      <point x="523" y="310" type="curve" smooth="yes"/>
      <point x="523" y="162" type="line"/>
      <point x="681" y="162" type="line"/>
      <point x="681" y="310" type="line" smooth="yes"/>
      <point x="681" y="398"/>
      <point x="690" y="428"/>
      <point x="721" y="428" type="curve" smooth="yes"/>
      <point x="752" y="428"/>
      <point x="762" y="384"/>
      <point x="762" y="278" type="curve" smooth="yes"/>
      <point x="762" y="202"/>
      <point x="754" y="141"/>
      <point x="727" y="74" type="curve"/>
      <point x="869" y="33" type="line"/>
      <point x="913" y="124"/>
      <point x="926" y="192"/>
      <point x="926" y="284" type="curve" smooth="yes"/>
      <point x="926" y="455"/>
      <point x="860" y="563"/>
      <point x="747" y="563" type="curve" smooth="yes"/>
      <point x="676" y="563"/>
      <point x="625" y="526"/>
      <point x="604" y="453" type="curve"/>
      <point x="600" y="453" type="line"/>
      <point x="586" y="526"/>
      <point x="547" y="563"/>
      <point x="482" y="563" type="curve" smooth="yes"/>
      <point x="417" y="563"/>
      <point x="378" y="526"/>
      <point x="364" y="453" type="curve"/>
      <point x="360" y="453" type="line"/>
      <point x="339" y="526"/>
      <point x="288" y="563"/>
      <point x="217" y="563" type="curve" smooth="yes"/>
      <point x="104" y="563"/>
      <point x="38" y="455"/>
      <point x="38" y="299" type="curve" smooth="yes"/>
      <point x="38" y="143"/>
      <point x="114" y="28"/>
      <point x="242" y="-30" type="curve"/>
      <point x="242" y="-34" type="line"/>
      <point x="210" y="-39"/>
      <point x="164" y="-54"/>
      <point x="139" y="-71" type="curve"/>
      <point x="193" y="-178" type="line"/>
      <point x="228" y="-156"/>
      <point x="278" y="-135"/>
      <point x="333" y="-135" type="curve" smooth="yes"/>
      <point x="409" y="-135"/>
      <point x="492" y="-171"/>
    </contour>
  </outline>
</glyph>
<glyph name="nar-georgian" format="2">
  <advance width="530"/>
  <unicode hex="10DC"/>
  <note>
uni10DC
</note>
  <outline>
    <contour>
      <point x="266" y="-10" type="curve" smooth="yes"/>
      <point x="408" y="-10"/>
      <point x="492" y="92"/>
      <point x="492" y="274" type="curve" smooth="yes"/>
      <point x="492" y="443"/>
      <point x="433" y="543"/>
      <point x="332" y="543" type="curve" smooth="yes"/>
      <point x="281" y="543"/>
      <point x="242" y="519"/>
      <point x="212" y="472" type="curve"/>
      <point x="207" y="472" type="line"/>
      <point x="212" y="517"/>
      <point x="212" y="537"/>
      <point x="212" y="558" type="curve" smooth="yes"/>
      <point x="212" y="574" type="line" smooth="yes"/>
      <point x="212" y="613"/>
      <point x="235" y="626"/>
      <point x="271" y="626" type="curve" smooth="yes"/>
      <point x="439" y="626" type="line"/>
      <point x="439" y="760" type="line"/>
      <point x="248" y="760" type="line" smooth="yes"/>
      <point x="143" y="760"/>
      <point x="50" y="704"/>
      <point x="50" y="580" type="curve" smooth="yes"/>
      <point x="50" y="274" type="line" smooth="yes"/>
      <point x="50" y="89"/>
      <point x="126" y="-10"/>
    </contour>
    <contour>
      <point x="268" y="125" type="curve" smooth="yes"/>
      <point x="228" y="125"/>
      <point x="212" y="168"/>
      <point x="212" y="268" type="curve" smooth="yes"/>
      <point x="212" y="297" type="line" smooth="yes"/>
      <point x="212" y="375"/>
      <point x="230" y="414"/>
      <point x="273" y="414" type="curve" smooth="yes"/>
      <point x="312" y="414"/>
      <point x="328" y="361"/>
      <point x="328" y="274" type="curve" smooth="yes"/>
      <point x="328" y="173"/>
      <point x="312" y="125"/>
    </contour>
  </outline>
</glyph>
<glyph name="on-georgian" format="2">
  <advance width="734"/>
  <unicode hex="10DD"/>
  <note>
uni10DD
</note>
  <anchor x="367" y="553" name="top"/>
  <outline>
    <contour>
      <point x="94" y="0" type="curve"/>
      <point x="248" y="0" type="line"/>
      <point x="218" y="81"/>
      <point x="202" y="173"/>
      <point x="202" y="276" type="curve" smooth="yes"/>
      <point x="202" y="384"/>
      <point x="212" y="428"/>
      <point x="248" y="428" type="curve" smooth="yes"/>
      <point x="279" y="428"/>
      <point x="288" y="398"/>
      <point x="288" y="310" type="curve" smooth="yes"/>
      <point x="288" y="162" type="line"/>
      <point x="446" y="162" type="line"/>
      <point x="446" y="310" type="line" smooth="yes"/>
      <point x="446" y="398"/>
      <point x="456" y="428"/>
      <point x="487" y="428" type="curve" smooth="yes"/>
      <point x="522" y="428"/>
      <point x="532" y="382"/>
      <point x="532" y="279" type="curve" smooth="yes"/>
      <point x="532" y="185"/>
      <point x="517" y="84"/>
      <point x="485" y="0" type="curve"/>
      <point x="640" y="0" type="line"/>
      <point x="683" y="104"/>
      <point x="696" y="183"/>
      <point x="696" y="284" type="curve" smooth="yes"/>
      <point x="696" y="458"/>
      <point x="628" y="563"/>
      <point x="513" y="563" type="curve" smooth="yes"/>
      <point x="442" y="563"/>
      <point x="390" y="526"/>
      <point x="369" y="453" type="curve"/>
      <point x="365" y="453" type="line"/>
      <point x="344" y="526"/>
      <point x="293" y="563"/>
      <point x="222" y="563" type="curve" smooth="yes"/>
      <point x="104" y="563"/>
      <point x="38" y="455"/>
      <point x="38" y="284" type="curve" smooth="yes"/>
      <point x="38" y="179"/>
      <point x="51" y="110"/>
    </contour>
  </outline>
</glyph>
<glyph name="par-georgian" format="2">
  <advance width="501"/>
  <unicode hex="10DE"/>
  <note>
uni10DE
</note>
  <outline>
    <contour>
      <point x="246" y="-10" type="curve" smooth="yes"/>
      <point x="385" y="-10"/>
      <point x="463" y="93"/>
      <point x="463" y="224" type="curve" smooth="yes"/>
      <point x="463" y="336"/>
      <point x="399" y="398"/>
      <point x="326" y="419" type="curve"/>
      <point x="326" y="422" type="line"/>
      <point x="399" y="440"/>
      <point x="441" y="486"/>
      <point x="441" y="554" type="curve" smooth="yes"/>
      <point x="441" y="610"/>
      <point x="407" y="647"/>
      <point x="374" y="678" type="curve" smooth="yes"/>
      <point x="343" y="707"/>
      <point x="320" y="730"/>
      <point x="320" y="760" type="curve"/>
      <point x="158" y="760" type="line"/>
      <point x="158" y="686"/>
      <point x="189" y="646"/>
      <point x="222" y="618" type="curve" smooth="yes"/>
      <point x="254" y="590"/>
      <point x="279" y="565"/>
      <point x="279" y="533" type="curve" smooth="yes"/>
      <point x="279" y="504"/>
      <point x="266" y="486"/>
      <point x="226" y="486" type="curve" smooth="yes"/>
      <point x="201" y="486" type="line"/>
      <point x="201" y="353" type="line"/>
      <point x="231" y="353" type="line" smooth="yes"/>
      <point x="277" y="353"/>
      <point x="299" y="311"/>
      <point x="299" y="236" type="curve" smooth="yes"/>
      <point x="299" y="160"/>
      <point x="283" y="125"/>
      <point x="244" y="125" type="curve" smooth="yes"/>
      <point x="208" y="125"/>
      <point x="191" y="160"/>
      <point x="191" y="210" type="curve" smooth="yes"/>
      <point x="191" y="243"/>
      <point x="195" y="268"/>
      <point x="200" y="293" type="curve"/>
      <point x="52" y="293" type="line"/>
      <point x="39" y="255"/>
      <point x="33" y="228"/>
      <point x="33" y="184" type="curve" smooth="yes"/>
      <point x="33" y="68"/>
      <point x="125" y="-10"/>
    </contour>
  </outline>
</glyph>
<glyph name="zhar-georgian" format="2">
  <advance width="566"/>
  <unicode hex="10DF"/>
  <note>
uni10DF
</note>
  <outline>
    <contour>
      <point x="295" y="-250" type="curve" smooth="yes"/>
      <point x="435" y="-250"/>
      <point x="511" y="-161"/>
      <point x="511" y="-2" type="curve"/>
      <point x="511" y="553" type="line"/>
      <point x="390" y="553" type="line"/>
      <point x="319" y="521"/>
      <point x="241" y="501"/>
      <point x="158" y="495" type="curve"/>
      <point x="158" y="388" type="line"/>
      <point x="190" y="380"/>
      <point x="194" y="351"/>
      <point x="194" y="328" type="curve" smooth="yes"/>
      <point x="194" y="298"/>
      <point x="183" y="279"/>
      <point x="164" y="279" type="curve" smooth="yes"/>
      <point x="144" y="279"/>
      <point x="134" y="295"/>
      <point x="134" y="321" type="curve" smooth="yes"/>
      <point x="134" y="327"/>
      <point x="135" y="334"/>
      <point x="136" y="342" type="curve"/>
      <point x="26" y="342" type="line"/>
      <point x="21" y="328"/>
      <point x="19" y="315"/>
      <point x="19" y="302" type="curve" smooth="yes"/>
      <point x="19" y="232"/>
      <point x="75" y="180"/>
      <point x="166" y="180" type="curve" smooth="yes"/>
      <point x="246" y="180"/>
      <point x="317" y="227"/>
      <point x="317" y="314" type="curve" smooth="yes"/>
      <point x="317" y="355"/>
      <point x="304" y="390"/>
      <point x="261" y="411" type="curve"/>
      <point x="261" y="415" type="line"/>
      <point x="290" y="417"/>
      <point x="320" y="424"/>
      <point x="349" y="438" type="curve"/>
      <point x="349" y="8" type="line" smooth="yes"/>
      <point x="349" y="-80"/>
      <point x="333" y="-115"/>
      <point x="293" y="-115" type="curve" smooth="yes"/>
      <point x="251" y="-115"/>
      <point x="236" y="-71"/>
      <point x="236" y="-19" type="curve" smooth="yes"/>
      <point x="236" y="15"/>
      <point x="240" y="39"/>
      <point x="246" y="66" type="curve"/>
      <point x="93" y="66" type="line"/>
      <point x="80" y="29"/>
      <point x="76" y="1"/>
      <point x="76" y="-34" type="curve" smooth="yes"/>
      <point x="76" y="-153"/>
      <point x="155" y="-250"/>
    </contour>
  </outline>
</glyph>
<glyph name="rae-georgian" format="2">
  <advance width="734"/>
  <unicode hex="10E0"/>
  <note>
uni10E0
</note>
  <outline>
    <contour>
      <point x="94" y="0" type="curve"/>
      <point x="248" y="0" type="line"/>
      <point x="218" y="81"/>
      <point x="202" y="163"/>
      <point x="202" y="266" type="curve" smooth="yes"/>
      <point x="202" y="364"/>
      <point x="212" y="408"/>
      <point x="248" y="408" type="curve" smooth="yes"/>
      <point x="279" y="408"/>
      <point x="288" y="378"/>
      <point x="288" y="300" type="curve" smooth="yes"/>
      <point x="288" y="172" type="line"/>
      <point x="446" y="172" type="line"/>
      <point x="446" y="300" type="line" smooth="yes"/>
      <point x="446" y="378"/>
      <point x="456" y="408"/>
      <point x="487" y="408" type="curve" smooth="yes"/>
      <point x="522" y="408"/>
      <point x="532" y="362"/>
      <point x="532" y="269" type="curve" smooth="yes"/>
      <point x="532" y="175"/>
      <point x="517" y="84"/>
      <point x="485" y="0" type="curve"/>
      <point x="640" y="0" type="line"/>
      <point x="683" y="104"/>
      <point x="696" y="173"/>
      <point x="696" y="274" type="curve" smooth="yes"/>
      <point x="696" y="438"/>
      <point x="628" y="543"/>
      <point x="513" y="543" type="curve" smooth="yes"/>
      <point x="442" y="543"/>
      <point x="390" y="506"/>
      <point x="369" y="433" type="curve"/>
      <point x="365" y="433" type="line"/>
      <point x="346" y="506"/>
      <point x="303" y="543"/>
      <point x="254" y="543" type="curve" smooth="yes"/>
      <point x="226" y="543"/>
      <point x="200" y="535"/>
      <point x="183" y="520" type="curve"/>
      <point x="179" y="520" type="line"/>
      <point x="195" y="556"/>
      <point x="231" y="576"/>
      <point x="286" y="594" type="curve" smooth="yes"/>
      <point x="320" y="605"/>
      <point x="447" y="624"/>
      <point x="517" y="631" type="curve"/>
      <point x="499" y="770" type="line"/>
      <point x="376" y="760"/>
      <point x="309" y="746"/>
      <point x="270" y="735" type="curve" smooth="yes"/>
      <point x="86" y="683"/>
      <point x="38" y="551"/>
      <point x="38" y="351" type="curve" smooth="yes"/>
      <point x="38" y="301" type="line" smooth="yes"/>
      <point x="38" y="196"/>
      <point x="51" y="110"/>
    </contour>
  </outline>
</glyph>
<glyph name="san-georgian" format="2">
  <advance width="530"/>
  <unicode hex="10E1"/>
  <note>
uni10E1
</note>
  <outline>
    <contour>
      <point x="266" y="-10" type="curve" smooth="yes"/>
      <point x="408" y="-10"/>
      <point x="492" y="92"/>
      <point x="492" y="244" type="curve" smooth="yes"/>
      <point x="492" y="314"/>
      <point x="483" y="359"/>
      <point x="467" y="406" type="curve" smooth="yes"/>
      <point x="449" y="460"/>
      <point x="438" y="510"/>
      <point x="438" y="553" type="curve"/>
      <point x="276" y="553" type="line"/>
      <point x="276" y="485"/>
      <point x="288" y="428"/>
      <point x="310" y="362" type="curve" smooth="yes"/>
      <point x="322" y="327"/>
      <point x="328" y="291"/>
      <point x="328" y="244" type="curve" smooth="yes"/>
      <point x="328" y="173"/>
      <point x="312" y="125"/>
      <point x="268" y="125" type="curve" smooth="yes"/>
      <point x="228" y="125"/>
      <point x="212" y="168"/>
      <point x="212" y="258" type="curve" smooth="yes"/>
      <point x="212" y="760" type="line"/>
      <point x="50" y="760" type="line"/>
      <point x="50" y="264" type="line" smooth="yes"/>
      <point x="50" y="89"/>
      <point x="126" y="-10"/>
    </contour>
  </outline>
</glyph>
<glyph name="tar-georgian" format="2">
  <advance width="674"/>
  <unicode hex="10E2"/>
  <note>
uni10E2
</note>
  <outline>
    <contour>
      <point x="338" y="-250" type="curve" smooth="yes"/>
      <point x="533" y="-250"/>
      <point x="636" y="-122"/>
      <point x="636" y="171" type="curve" smooth="yes"/>
      <point x="636" y="386"/>
      <point x="570" y="522"/>
      <point x="408" y="553" type="curve"/>
      <point x="413" y="583"/>
      <point x="415" y="601"/>
      <point x="415" y="635" type="curve"/>
      <point x="415" y="680" type="line"/>
      <point x="259" y="680" type="line"/>
      <point x="259" y="634" type="line"/>
      <point x="259" y="600"/>
      <point x="263" y="583"/>
      <point x="266" y="553" type="curve"/>
      <point x="107" y="521"/>
      <point x="38" y="384"/>
      <point x="38" y="172" type="curve" smooth="yes"/>
      <point x="38" y="-121"/>
      <point x="145" y="-250"/>
    </contour>
    <contour>
      <point x="338" y="-115" type="curve" smooth="yes"/>
      <point x="243" y="-115"/>
      <point x="202" y="-32"/>
      <point x="202" y="171" type="curve" smooth="yes"/>
      <point x="202" y="315"/>
      <point x="215" y="382"/>
      <point x="269" y="415" type="curve"/>
      <point x="262" y="383"/>
      <point x="259" y="341"/>
      <point x="259" y="309" type="curve"/>
      <point x="259" y="162" type="line"/>
      <point x="415" y="162" type="line"/>
      <point x="415" y="310" type="line"/>
      <point x="415" y="342"/>
      <point x="413" y="383"/>
      <point x="405" y="416" type="curve"/>
      <point x="459" y="382"/>
      <point x="472" y="316"/>
      <point x="472" y="171" type="curve" smooth="yes"/>
      <point x="472" y="-36"/>
      <point x="433" y="-115"/>
    </contour>
  </outline>
</glyph>
<glyph name="un-georgian" format="2">
  <advance width="545"/>
  <unicode hex="10E3"/>
  <note>
uni10E3
</note>
  <anchor x="257" y="553" name="top"/>
  <outline>
    <contour>
      <point x="269" y="-250" type="curve" smooth="yes"/>
      <point x="419" y="-250"/>
      <point x="495" y="-161"/>
      <point x="495" y="-17" type="curve" smooth="yes"/>
      <point x="495" y="372" type="line" smooth="yes"/>
      <point x="495" y="478"/>
      <point x="435" y="563"/>
      <point x="324" y="563" type="curve" smooth="yes"/>
      <point x="259" y="563"/>
      <point x="214" y="536"/>
      <point x="190" y="481" type="curve"/>
      <point x="187" y="481" type="line"/>
      <point x="167" y="536"/>
      <point x="126" y="558"/>
      <point x="79" y="558" type="curve"/>
      <point x="10" y="558" type="line"/>
      <point x="10" y="415" type="line"/>
      <point x="64" y="415" type="line"/>
      <point x="95" y="415"/>
      <point x="109" y="395"/>
      <point x="109" y="358" type="curve" smooth="yes"/>
      <point x="109" y="224" type="line"/>
      <point x="267" y="224" type="line"/>
      <point x="267" y="362" type="line" smooth="yes"/>
      <point x="267" y="397"/>
      <point x="278" y="419"/>
      <point x="300" y="419" type="curve" smooth="yes"/>
      <point x="323" y="419"/>
      <point x="333" y="397"/>
      <point x="333" y="362" type="curve" smooth="yes"/>
      <point x="333" y="-7" type="line" smooth="yes"/>
      <point x="333" y="-80"/>
      <point x="317" y="-115"/>
      <point x="267" y="-115" type="curve" smooth="yes"/>
      <point x="215" y="-115"/>
      <point x="200" y="-61"/>
      <point x="200" y="1" type="curve" smooth="yes"/>
      <point x="200" y="35"/>
      <point x="206" y="69"/>
      <point x="212" y="96" type="curve"/>
      <point x="59" y="96" type="line"/>
      <point x="46" y="59"/>
      <point x="40" y="21"/>
      <point x="40" y="-14" type="curve" smooth="yes"/>
      <point x="40" y="-143"/>
      <point x="119" y="-250"/>
    </contour>
  </outline>
</glyph>
<glyph name="phar-georgian" format="2">
  <advance width="737"/>
  <unicode hex="10E4"/>
  <note>
uni10E4
</note>
  <outline>
    <contour>
      <point x="429" y="-250" type="curve" smooth="yes"/>
      <point x="602" y="-250"/>
      <point x="684" y="-147"/>
      <point x="684" y="-32" type="curve" smooth="yes"/>
      <point x="684" y="45"/>
      <point x="653" y="106"/>
      <point x="580" y="131" type="curve"/>
      <point x="580" y="134" type="line"/>
      <point x="653" y="163"/>
      <point x="699" y="230"/>
      <point x="699" y="335" type="curve" smooth="yes"/>
      <point x="699" y="468"/>
      <point x="626" y="563"/>
      <point x="513" y="563" type="curve" smooth="yes"/>
      <point x="440" y="563"/>
      <point x="391" y="531"/>
      <point x="370" y="470" type="curve"/>
      <point x="367" y="470" type="line"/>
      <point x="345" y="531"/>
      <point x="292" y="563"/>
      <point x="235" y="563" type="curve" smooth="yes"/>
      <point x="94" y="563"/>
      <point x="38" y="437"/>
      <point x="38" y="302" type="curve" smooth="yes"/>
      <point x="38" y="172"/>
      <point x="97" y="40"/>
      <point x="243" y="40" type="curve" smooth="yes"/>
      <point x="402" y="40"/>
      <point x="449" y="186"/>
      <point x="449" y="296" type="curve" smooth="yes"/>
      <point x="449" y="324" type="line" smooth="yes"/>
      <point x="449" y="390"/>
      <point x="456" y="428"/>
      <point x="492" y="428" type="curve" smooth="yes"/>
      <point x="522" y="428"/>
      <point x="535" y="386"/>
      <point x="535" y="316" type="curve" smooth="yes"/>
      <point x="535" y="239"/>
      <point x="514" y="196"/>
      <point x="483" y="196" type="curve" smooth="yes"/>
      <point x="468" y="196" type="line"/>
      <point x="468" y="63" type="line"/>
      <point x="476" y="63" type="line" smooth="yes"/>
      <point x="508" y="63"/>
      <point x="520" y="21"/>
      <point x="520" y="-15" type="curve" smooth="yes"/>
      <point x="520" y="-70"/>
      <point x="494" y="-115"/>
      <point x="427" y="-115" type="curve" smooth="yes"/>
      <point x="373" y="-115"/>
      <point x="333" y="-89"/>
      <point x="333" y="-37" type="curve" smooth="yes"/>
      <point x="333" y="-33"/>
      <point x="333" y="-28"/>
      <point x="334" y="-24" type="curve"/>
      <point x="181" y="-24" type="line"/>
      <point x="178" y="-37"/>
      <point x="177" y="-50"/>
      <point x="177" y="-63" type="curve" smooth="yes"/>
      <point x="177" y="-166"/>
      <point x="266" y="-250"/>
    </contour>
    <contour>
      <point x="244" y="175" type="curve" smooth="yes"/>
      <point x="207" y="175"/>
      <point x="197" y="227"/>
      <point x="197" y="300" type="curve" smooth="yes"/>
      <point x="197" y="380"/>
      <point x="207" y="428"/>
      <point x="244" y="428" type="curve" smooth="yes"/>
      <point x="283" y="428"/>
      <point x="290" y="379"/>
      <point x="290" y="301" type="curve" smooth="yes"/>
      <point x="290" y="226"/>
      <point x="283" y="175"/>
    </contour>
  </outline>
</glyph>
<glyph name="khar-georgian" format="2">
  <advance width="508"/>
  <unicode hex="10E5"/>
  <note>
uni10E5
</note>
  <outline>
    <contour>
      <point x="247" y="-250" type="curve" smooth="yes"/>
      <point x="382" y="-250"/>
      <point x="458" y="-161"/>
      <point x="458" y="-2" type="curve" smooth="yes"/>
      <point x="458" y="760" type="line"/>
      <point x="296" y="760" type="line"/>
      <point x="296" y="588" type="line" smooth="yes"/>
      <point x="296" y="567"/>
      <point x="298" y="532"/>
      <point x="301" y="482" type="curve"/>
      <point x="296" y="482" type="line"/>
      <point x="272" y="539"/>
      <point x="231" y="563"/>
      <point x="186" y="563" type="curve" smooth="yes"/>
      <point x="118" y="563"/>
      <point x="47" y="502"/>
      <point x="47" y="369" type="curve" smooth="yes"/>
      <point x="47" y="325"/>
      <point x="53" y="298"/>
      <point x="66" y="260" type="curve"/>
      <point x="217" y="260" type="line"/>
      <point x="211" y="292"/>
      <point x="208" y="325"/>
      <point x="208" y="353" type="curve" smooth="yes"/>
      <point x="208" y="395"/>
      <point x="220" y="428"/>
      <point x="247" y="428" type="curve" smooth="yes"/>
      <point x="278" y="428"/>
      <point x="296" y="385"/>
      <point x="296" y="313" type="curve" smooth="yes"/>
      <point x="296" y="3" type="line" smooth="yes"/>
      <point x="296" y="-85"/>
      <point x="280" y="-115"/>
      <point x="245" y="-115" type="curve" smooth="yes"/>
      <point x="208" y="-115"/>
      <point x="193" y="-61"/>
      <point x="193" y="1" type="curve" smooth="yes"/>
      <point x="193" y="35"/>
      <point x="199" y="69"/>
      <point x="205" y="96" type="curve"/>
      <point x="52" y="96" type="line"/>
      <point x="39" y="59"/>
      <point x="33" y="21"/>
      <point x="33" y="-14" type="curve" smooth="yes"/>
      <point x="33" y="-143"/>
      <point x="112" y="-250"/>
    </contour>
  </outline>
</glyph>
<glyph name="ghan-georgian" format="2">
  <advance width="734"/>
  <unicode hex="10E6"/>
  <note>
uni10E6
</note>
  <outline>
    <contour>
      <point x="425" y="-250" type="curve"/>
      <point x="554" y="-198" type="line"/>
      <point x="523" y="-107"/>
      <point x="460" y="-57"/>
      <point x="377" y="-15" type="curve" smooth="yes"/>
      <point x="290" y="29"/>
      <point x="202" y="101"/>
      <point x="202" y="277" type="curve" smooth="yes"/>
      <point x="202" y="384"/>
      <point x="212" y="428"/>
      <point x="248" y="428" type="curve" smooth="yes"/>
      <point x="279" y="428"/>
      <point x="288" y="398"/>
      <point x="288" y="310" type="curve" smooth="yes"/>
      <point x="288" y="162" type="line"/>
      <point x="446" y="162" type="line"/>
      <point x="446" y="310" type="line" smooth="yes"/>
      <point x="446" y="398"/>
      <point x="456" y="428"/>
      <point x="487" y="428" type="curve" smooth="yes"/>
      <point x="522" y="428"/>
      <point x="532" y="382"/>
      <point x="532" y="279" type="curve" smooth="yes"/>
      <point x="532" y="203"/>
      <point x="524" y="141"/>
      <point x="497" y="74" type="curve"/>
      <point x="639" y="33" type="line"/>
      <point x="683" y="124"/>
      <point x="696" y="192"/>
      <point x="696" y="284" type="curve" smooth="yes"/>
      <point x="696" y="458"/>
      <point x="628" y="563"/>
      <point x="513" y="563" type="curve" smooth="yes"/>
      <point x="442" y="563"/>
      <point x="390" y="526"/>
      <point x="369" y="453" type="curve"/>
      <point x="365" y="453" type="line"/>
      <point x="344" y="526"/>
      <point x="293" y="563"/>
      <point x="222" y="563" type="curve" smooth="yes"/>
      <point x="104" y="563"/>
      <point x="38" y="455"/>
      <point x="38" y="288" type="curve" smooth="yes"/>
      <point x="38" y="143"/>
      <point x="96" y="18"/>
      <point x="211" y="-40" type="curve"/>
      <point x="211" y="-44" type="line"/>
      <point x="169" y="-48"/>
      <point x="138" y="-58"/>
      <point x="114" y="-70" type="curve"/>
      <point x="160" y="-176" type="line"/>
      <point x="194" y="-156"/>
      <point x="238" y="-145"/>
      <point x="277" y="-145" type="curve" smooth="yes"/>
      <point x="335" y="-145"/>
      <point x="392" y="-171"/>
    </contour>
  </outline>
</glyph>
<glyph name="qar-georgian" format="2">
  <advance width="527"/>
  <unicode hex="10E7"/>
  <note>
uni10E7
</note>
  <outline>
    <contour>
      <point x="261" y="-250" type="curve" smooth="yes"/>
      <point x="401" y="-250"/>
      <point x="477" y="-161"/>
      <point x="477" y="-2" type="curve" smooth="yes"/>
      <point x="477" y="553" type="line"/>
      <point x="315" y="553" type="line"/>
      <point x="315" y="417" type="line" smooth="yes"/>
      <point x="315" y="322"/>
      <point x="296" y="276"/>
      <point x="254" y="276" type="curve" smooth="yes"/>
      <point x="217" y="276"/>
      <point x="202" y="310"/>
      <point x="202" y="380" type="curve" smooth="yes"/>
      <point x="202" y="444"/>
      <point x="209" y="490"/>
      <point x="223" y="553" type="curve"/>
      <point x="68" y="553" type="line"/>
      <point x="50" y="500"/>
      <point x="38" y="441"/>
      <point x="38" y="363" type="curve" smooth="yes"/>
      <point x="38" y="222"/>
      <point x="101" y="140"/>
      <point x="197" y="140" type="curve" smooth="yes"/>
      <point x="251" y="140"/>
      <point x="290" y="169"/>
      <point x="316" y="217" type="curve"/>
      <point x="321" y="217" type="line"/>
      <point x="316" y="168"/>
      <point x="315" y="130"/>
      <point x="315" y="73" type="curve" smooth="yes"/>
      <point x="315" y="8" type="line" smooth="yes"/>
      <point x="315" y="-80"/>
      <point x="299" y="-115"/>
      <point x="259" y="-115" type="curve" smooth="yes"/>
      <point x="217" y="-115"/>
      <point x="202" y="-71"/>
      <point x="202" y="-19" type="curve" smooth="yes"/>
      <point x="202" y="15"/>
      <point x="206" y="39"/>
      <point x="212" y="66" type="curve"/>
      <point x="59" y="66" type="line"/>
      <point x="46" y="29"/>
      <point x="42" y="1"/>
      <point x="42" y="-34" type="curve" smooth="yes"/>
      <point x="42" y="-153"/>
      <point x="121" y="-250"/>
    </contour>
  </outline>
</glyph>
<glyph name="shin-georgian" format="2">
  <advance width="530"/>
  <unicode hex="10E8"/>
  <note>
uni10E8
</note>
  <outline>
    <contour>
      <point x="264" y="-10" type="curve" smooth="yes"/>
      <point x="404" y="-10"/>
      <point x="480" y="89"/>
      <point x="480" y="254" type="curve" smooth="yes"/>
      <point x="480" y="600" type="line" smooth="yes"/>
      <point x="480" y="705"/>
      <point x="409" y="770"/>
      <point x="326" y="770" type="curve" smooth="yes"/>
      <point x="262" y="770"/>
      <point x="226" y="746"/>
      <point x="203" y="705" type="curve"/>
      <point x="199" y="705" type="line"/>
      <point x="179" y="749"/>
      <point x="150" y="770"/>
      <point x="107" y="770" type="curve" smooth="yes"/>
      <point x="77" y="770"/>
      <point x="43" y="764"/>
      <point x="9" y="744" type="curve"/>
      <point x="41" y="625" type="line"/>
      <point x="59" y="632"/>
      <point x="71" y="635"/>
      <point x="85" y="635" type="curve" smooth="yes"/>
      <point x="109" y="635"/>
      <point x="119" y="618"/>
      <point x="119" y="593" type="curve" smooth="yes"/>
      <point x="119" y="559" type="line"/>
      <point x="269" y="559" type="line"/>
      <point x="269" y="610" type="line" smooth="yes"/>
      <point x="269" y="634"/>
      <point x="277" y="645"/>
      <point x="294" y="645" type="curve" smooth="yes"/>
      <point x="310" y="645"/>
      <point x="318" y="634"/>
      <point x="318" y="607" type="curve" smooth="yes"/>
      <point x="318" y="538" type="line" smooth="yes"/>
      <point x="318" y="517"/>
      <point x="319" y="488"/>
      <point x="323" y="442" type="curve"/>
      <point x="318" y="442" type="line"/>
      <point x="288" y="499"/>
      <point x="249" y="513"/>
      <point x="198" y="513" type="curve" smooth="yes"/>
      <point x="97" y="513"/>
      <point x="38" y="413"/>
      <point x="38" y="254" type="curve" smooth="yes"/>
      <point x="38" y="92"/>
      <point x="122" y="-10"/>
    </contour>
    <contour>
      <point x="262" y="125" type="curve" smooth="yes"/>
      <point x="218" y="125"/>
      <point x="202" y="173"/>
      <point x="202" y="254" type="curve" smooth="yes"/>
      <point x="202" y="331"/>
      <point x="218" y="384"/>
      <point x="257" y="384" type="curve" smooth="yes"/>
      <point x="300" y="384"/>
      <point x="318" y="345"/>
      <point x="318" y="277" type="curve" smooth="yes"/>
      <point x="318" y="248" type="line" smooth="yes"/>
      <point x="318" y="168"/>
      <point x="302" y="125"/>
    </contour>
  </outline>
</glyph>
<glyph name="chin-georgian" format="2">
  <advance width="525"/>
  <unicode hex="10E9"/>
  <note>
uni10E9
</note>
  <outline>
    <contour>
      <point x="50" y="0" type="line"/>
      <point x="212" y="0" type="line"/>
      <point x="212" y="274" type="line" smooth="yes"/>
      <point x="212" y="352"/>
      <point x="229" y="398"/>
      <point x="271" y="398" type="curve" smooth="yes"/>
      <point x="306" y="398"/>
      <point x="328" y="361"/>
      <point x="328" y="274" type="curve" smooth="yes"/>
      <point x="328" y="169"/>
      <point x="312" y="55"/>
      <point x="296" y="0" type="curve"/>
      <point x="457" y="0" type="line"/>
      <point x="475" y="63"/>
      <point x="492" y="172"/>
      <point x="492" y="288" type="curve" smooth="yes"/>
      <point x="492" y="399"/>
      <point x="466" y="472"/>
      <point x="405" y="503" type="curve"/>
      <point x="405" y="507" type="line"/>
      <point x="433" y="541"/>
      <point x="441" y="576"/>
      <point x="441" y="608" type="curve" smooth="yes"/>
      <point x="441" y="710"/>
      <point x="371" y="770"/>
      <point x="249" y="770" type="curve" smooth="yes"/>
      <point x="125" y="770"/>
      <point x="50" y="693"/>
      <point x="50" y="580" type="curve" smooth="yes"/>
    </contour>
    <contour>
      <point x="208" y="471" type="line"/>
      <point x="211" y="503"/>
      <point x="213" y="520"/>
      <point x="213" y="537" type="curve" smooth="yes"/>
      <point x="213" y="599" type="line" smooth="yes"/>
      <point x="213" y="624"/>
      <point x="228" y="644"/>
      <point x="251" y="644" type="curve" smooth="yes"/>
      <point x="273" y="644"/>
      <point x="286" y="626"/>
      <point x="286" y="599" type="curve" smooth="yes"/>
      <point x="286" y="568"/>
      <point x="270" y="535"/>
      <point x="244" y="509" type="curve" smooth="yes"/>
      <point x="233" y="498"/>
      <point x="223" y="486"/>
      <point x="213" y="471" type="curve"/>
    </contour>
  </outline>
</glyph>
<glyph name="can-georgian" format="2">
  <advance width="587"/>
  <unicode hex="10EA"/>
  <note>
uni10EA
</note>
  <outline>
    <contour>
      <point x="302" y="-250" type="curve" smooth="yes"/>
      <point x="458" y="-250"/>
      <point x="554" y="-162"/>
      <point x="554" y="6" type="curve" smooth="yes"/>
      <point x="554" y="129"/>
      <point x="502" y="190"/>
      <point x="434" y="211" type="curve"/>
      <point x="434" y="214" type="line"/>
      <point x="502" y="232"/>
      <point x="542" y="279"/>
      <point x="542" y="347" type="curve" smooth="yes"/>
      <point x="542" y="398"/>
      <point x="529" y="432"/>
      <point x="510" y="461" type="curve" smooth="yes"/>
      <point x="490" y="492"/>
      <point x="476" y="518"/>
      <point x="474" y="553" type="curve"/>
      <point x="312" y="553" type="line"/>
      <point x="312" y="485"/>
      <point x="327" y="448"/>
      <point x="345" y="420" type="curve" smooth="yes"/>
      <point x="364" y="390"/>
      <point x="379" y="360"/>
      <point x="379" y="330" type="curve" smooth="yes"/>
      <point x="379" y="297"/>
      <point x="357" y="279"/>
      <point x="323" y="279" type="curve" smooth="yes"/>
      <point x="292" y="279" type="line"/>
      <point x="292" y="139" type="line"/>
      <point x="315" y="139" type="line" smooth="yes"/>
      <point x="361" y="139"/>
      <point x="390" y="97"/>
      <point x="390" y="20" type="curve" smooth="yes"/>
      <point x="390" y="-77"/>
      <point x="362" y="-114"/>
      <point x="305" y="-114" type="curve" smooth="yes"/>
      <point x="242" y="-114"/>
      <point x="202" y="-43"/>
      <point x="202" y="164" type="curve" smooth="yes"/>
      <point x="202" y="310"/>
      <point x="212" y="408"/>
      <point x="262" y="553" type="curve"/>
      <point x="108" y="553" type="line"/>
      <point x="54" y="423"/>
      <point x="38" y="320"/>
      <point x="38" y="164" type="curve" smooth="yes"/>
      <point x="38" y="-143"/>
      <point x="156" y="-250"/>
    </contour>
  </outline>
</glyph>
<glyph name="jil-georgian" format="2">
  <advance width="530"/>
  <unicode hex="10EB"/>
  <note>
uni10EB
</note>
  <outline>
    <contour>
      <point x="264" y="-10" type="curve" smooth="yes"/>
      <point x="404" y="-10"/>
      <point x="480" y="89"/>
      <point x="480" y="274" type="curve" smooth="yes"/>
      <point x="480" y="760" type="line"/>
      <point x="318" y="760" type="line"/>
      <point x="318" y="588" type="line" smooth="yes"/>
      <point x="318" y="567"/>
      <point x="320" y="532"/>
      <point x="323" y="482" type="curve"/>
      <point x="318" y="482" type="line"/>
      <point x="288" y="539"/>
      <point x="249" y="563"/>
      <point x="198" y="563" type="curve" smooth="yes"/>
      <point x="97" y="563"/>
      <point x="38" y="453"/>
      <point x="38" y="274" type="curve" smooth="yes"/>
      <point x="38" y="92"/>
      <point x="122" y="-10"/>
    </contour>
    <contour>
      <point x="262" y="125" type="curve" smooth="yes"/>
      <point x="218" y="125"/>
      <point x="202" y="173"/>
      <point x="202" y="274" type="curve" smooth="yes"/>
      <point x="202" y="371"/>
      <point x="218" y="424"/>
      <point x="257" y="424" type="curve" smooth="yes"/>
      <point x="300" y="424"/>
      <point x="318" y="385"/>
      <point x="318" y="297" type="curve" smooth="yes"/>
      <point x="318" y="268" type="line" smooth="yes"/>
      <point x="318" y="168"/>
      <point x="302" y="125"/>
    </contour>
  </outline>
</glyph>
<glyph name="cil-georgian" format="2">
  <advance width="530"/>
  <unicode hex="10EC"/>
  <note>
uni10EC
</note>
  <outline>
    <contour>
      <point x="266" y="-10" type="curve" smooth="yes"/>
      <point x="408" y="-10"/>
      <point x="492" y="92"/>
      <point x="492" y="254" type="curve" smooth="yes"/>
      <point x="492" y="413"/>
      <point x="433" y="513"/>
      <point x="332" y="513" type="curve" smooth="yes"/>
      <point x="281" y="513"/>
      <point x="242" y="499"/>
      <point x="212" y="442" type="curve"/>
      <point x="207" y="442" type="line"/>
      <point x="211" y="488"/>
      <point x="212" y="517"/>
      <point x="212" y="538" type="curve" smooth="yes"/>
      <point x="212" y="607" type="line" smooth="yes"/>
      <point x="212" y="634"/>
      <point x="220" y="645"/>
      <point x="236" y="645" type="curve" smooth="yes"/>
      <point x="253" y="645"/>
      <point x="261" y="634"/>
      <point x="261" y="610" type="curve" smooth="yes"/>
      <point x="261" y="559" type="line"/>
      <point x="411" y="559" type="line"/>
      <point x="411" y="593" type="line" smooth="yes"/>
      <point x="411" y="618"/>
      <point x="421" y="635"/>
      <point x="445" y="635" type="curve" smooth="yes"/>
      <point x="459" y="635"/>
      <point x="471" y="632"/>
      <point x="489" y="625" type="curve"/>
      <point x="521" y="744" type="line"/>
      <point x="487" y="764"/>
      <point x="453" y="770"/>
      <point x="423" y="770" type="curve" smooth="yes"/>
      <point x="380" y="770"/>
      <point x="351" y="749"/>
      <point x="331" y="705" type="curve"/>
      <point x="327" y="705" type="line"/>
      <point x="304" y="746"/>
      <point x="268" y="770"/>
      <point x="204" y="770" type="curve" smooth="yes"/>
      <point x="121" y="770"/>
      <point x="50" y="705"/>
      <point x="50" y="600" type="curve" smooth="yes"/>
      <point x="50" y="254" type="line" smooth="yes"/>
      <point x="50" y="89"/>
      <point x="126" y="-10"/>
    </contour>
    <contour>
      <point x="268" y="125" type="curve" smooth="yes"/>
      <point x="228" y="125"/>
      <point x="212" y="168"/>
      <point x="212" y="248" type="curve" smooth="yes"/>
      <point x="212" y="277" type="line" smooth="yes"/>
      <point x="212" y="345"/>
      <point x="230" y="384"/>
      <point x="273" y="384" type="curve" smooth="yes"/>
      <point x="312" y="384"/>
      <point x="328" y="331"/>
      <point x="328" y="254" type="curve" smooth="yes"/>
      <point x="328" y="173"/>
      <point x="312" y="125"/>
    </contour>
  </outline>
</glyph>
<glyph name="char-georgian" format="2">
  <advance width="537"/>
  <unicode hex="10ED"/>
  <note>
uni10ED
</note>
  <outline>
    <contour>
      <point x="279" y="-250" type="curve" smooth="yes"/>
      <point x="419" y="-250"/>
      <point x="499" y="-161"/>
      <point x="499" y="-5" type="curve" smooth="yes"/>
      <point x="499" y="78"/>
      <point x="480" y="132"/>
      <point x="458" y="187" type="curve" smooth="yes"/>
      <point x="435" y="245"/>
      <point x="416" y="303"/>
      <point x="416" y="394" type="curve" smooth="yes"/>
      <point x="416" y="418" type="line"/>
      <point x="499" y="418" type="line"/>
      <point x="499" y="553" type="line"/>
      <point x="416" y="553" type="line"/>
      <point x="416" y="760" type="line"/>
      <point x="252" y="760" type="line"/>
      <point x="252" y="553" type="line"/>
      <point x="213" y="553" type="line" smooth="yes"/>
      <point x="97" y="553"/>
      <point x="33" y="481"/>
      <point x="33" y="378" type="curve" smooth="yes"/>
      <point x="33" y="274"/>
      <point x="99" y="208"/>
      <point x="178" y="208" type="curve" smooth="yes"/>
      <point x="213" y="208"/>
      <point x="254" y="216"/>
      <point x="278" y="246" type="curve"/>
      <point x="282" y="246" type="line"/>
      <point x="288" y="199"/>
      <point x="298" y="170"/>
      <point x="312" y="131" type="curve" smooth="yes"/>
      <point x="327" y="89"/>
      <point x="335" y="46"/>
      <point x="335" y="-6" type="curve" smooth="yes"/>
      <point x="335" y="-77"/>
      <point x="318" y="-115"/>
      <point x="279" y="-115" type="curve" smooth="yes"/>
      <point x="236" y="-115"/>
      <point x="221" y="-61"/>
      <point x="221" y="1" type="curve" smooth="yes"/>
      <point x="221" y="35"/>
      <point x="227" y="69"/>
      <point x="233" y="96" type="curve"/>
      <point x="80" y="96" type="line"/>
      <point x="67" y="59"/>
      <point x="61" y="21"/>
      <point x="61" y="-14" type="curve" smooth="yes"/>
      <point x="61" y="-143"/>
      <point x="139" y="-250"/>
    </contour>
    <contour>
      <point x="226" y="334" type="curve" smooth="yes"/>
      <point x="200" y="334"/>
      <point x="185" y="351"/>
      <point x="185" y="380" type="curve" smooth="yes"/>
      <point x="185" y="407"/>
      <point x="201" y="422"/>
      <point x="232" y="422" type="curve" smooth="yes"/>
      <point x="267" y="422" type="line"/>
      <point x="267" y="384" type="line" smooth="yes"/>
      <point x="267" y="348"/>
      <point x="252" y="334"/>
    </contour>
  </outline>
</glyph>
<glyph name="xan-georgian" format="2">
  <advance width="530"/>
  <unicode hex="10EE"/>
  <note>
uni10EE
</note>
  <outline>
    <contour>
      <point x="266" y="-10" type="curve" smooth="yes"/>
      <point x="408" y="-10"/>
      <point x="492" y="92"/>
      <point x="492" y="274" type="curve" smooth="yes"/>
      <point x="492" y="453"/>
      <point x="433" y="563"/>
      <point x="332" y="563" type="curve" smooth="yes"/>
      <point x="281" y="563"/>
      <point x="242" y="539"/>
      <point x="212" y="482" type="curve"/>
      <point x="207" y="482" type="line"/>
      <point x="210" y="532"/>
      <point x="212" y="567"/>
      <point x="212" y="588" type="curve" smooth="yes"/>
      <point x="212" y="760" type="line"/>
      <point x="50" y="760" type="line"/>
      <point x="50" y="274" type="line" smooth="yes"/>
      <point x="50" y="89"/>
      <point x="126" y="-10"/>
    </contour>
    <contour>
      <point x="268" y="125" type="curve" smooth="yes"/>
      <point x="228" y="125"/>
      <point x="212" y="168"/>
      <point x="212" y="268" type="curve" smooth="yes"/>
      <point x="212" y="297" type="line" smooth="yes"/>
      <point x="212" y="385"/>
      <point x="230" y="424"/>
      <point x="273" y="424" type="curve" smooth="yes"/>
      <point x="312" y="424"/>
      <point x="328" y="371"/>
      <point x="328" y="274" type="curve" smooth="yes"/>
      <point x="328" y="173"/>
      <point x="312" y="125"/>
    </contour>
  </outline>
</glyph>
<glyph name="jhan-georgian" format="2">
  <advance width="501"/>
  <unicode hex="10EF"/>
  <note>
uni10EF
</note>
  <outline>
    <contour>
      <point x="332" y="308" type="curve" smooth="yes"/>
      <point x="332" y="317" type="line"/>
      <point x="458" y="290" type="line"/>
      <point x="458" y="413" type="line"/>
      <point x="332" y="440" type="line"/>
      <point x="332" y="563" type="line"/>
      <point x="168" y="563" type="line"/>
      <point x="168" y="474" type="line"/>
      <point x="43" y="501" type="line"/>
      <point x="43" y="378" type="line"/>
      <point x="168" y="351" type="line"/>
      <point x="168" y="304" type="line" smooth="yes"/>
      <point x="168" y="214"/>
      <point x="207" y="151"/>
      <point x="247" y="99" type="curve" smooth="yes"/>
      <point x="280" y="56"/>
      <point x="304" y="17"/>
      <point x="304" y="-28" type="curve" smooth="yes"/>
      <point x="304" y="-82"/>
      <point x="290" y="-115"/>
      <point x="250" y="-115" type="curve" smooth="yes"/>
      <point x="208" y="-115"/>
      <point x="193" y="-71"/>
      <point x="193" y="-19" type="curve" smooth="yes"/>
      <point x="193" y="15"/>
      <point x="197" y="39"/>
      <point x="203" y="66" type="curve"/>
      <point x="50" y="66" type="line"/>
      <point x="37" y="29"/>
      <point x="33" y="1"/>
      <point x="33" y="-34" type="curve" smooth="yes"/>
      <point x="33" y="-153"/>
      <point x="112" y="-250"/>
      <point x="252" y="-250" type="curve" smooth="yes"/>
      <point x="392" y="-250"/>
      <point x="468" y="-161"/>
      <point x="468" y="-38" type="curve" smooth="yes"/>
      <point x="468" y="49"/>
      <point x="437" y="98"/>
      <point x="400" y="146" type="curve" smooth="yes"/>
      <point x="363" y="194"/>
      <point x="332" y="240"/>
    </contour>
  </outline>
</glyph>
<glyph name="hae-georgian" format="2">
  <advance width="490"/>
  <unicode hex="10F0"/>
  <note>
uni10F0
</note>
  <outline>
    <contour>
      <point x="238" y="-10" type="curve" smooth="yes"/>
      <point x="370" y="-10"/>
      <point x="452" y="68"/>
      <point x="452" y="166" type="curve" smooth="yes"/>
      <point x="452" y="247"/>
      <point x="390" y="287"/>
      <point x="335" y="299" type="curve"/>
      <point x="335" y="302" type="line"/>
      <point x="390" y="309"/>
      <point x="442" y="330"/>
      <point x="442" y="403" type="curve" smooth="yes"/>
      <point x="442" y="464"/>
      <point x="390" y="499"/>
      <point x="335" y="503" type="curve"/>
      <point x="335" y="506" type="line"/>
      <point x="390" y="517"/>
      <point x="430" y="543"/>
      <point x="430" y="601" type="curve" smooth="yes"/>
      <point x="430" y="653"/>
      <point x="400" y="681"/>
      <point x="369" y="699" type="curve" smooth="yes"/>
      <point x="337" y="718"/>
      <point x="312" y="733"/>
      <point x="312" y="760" type="curve"/>
      <point x="150" y="760" type="line"/>
      <point x="150" y="685"/>
      <point x="189" y="661"/>
      <point x="223" y="643" type="curve" smooth="yes"/>
      <point x="249" y="629"/>
      <point x="272" y="616"/>
      <point x="272" y="590" type="curve" smooth="yes"/>
      <point x="272" y="571"/>
      <point x="255" y="563"/>
      <point x="235" y="563" type="curve" smooth="yes"/>
      <point x="210" y="563" type="line"/>
      <point x="210" y="436" type="line"/>
      <point x="236" y="436" type="line" smooth="yes"/>
      <point x="268" y="436"/>
      <point x="284" y="425"/>
      <point x="284" y="403" type="curve" smooth="yes"/>
      <point x="284" y="381"/>
      <point x="268" y="370"/>
      <point x="236" y="370" type="curve" smooth="yes"/>
      <point x="210" y="370" type="line"/>
      <point x="210" y="243" type="line"/>
      <point x="230" y="243" type="line" smooth="yes"/>
      <point x="276" y="243"/>
      <point x="288" y="215"/>
      <point x="288" y="182" type="curve" smooth="yes"/>
      <point x="288" y="147"/>
      <point x="270" y="125"/>
      <point x="236" y="125" type="curve" smooth="yes"/>
      <point x="197" y="125"/>
      <point x="186" y="157"/>
      <point x="186" y="185" type="curve" smooth="yes"/>
      <point x="186" y="194"/>
      <point x="187" y="202"/>
      <point x="189" y="209" type="curve"/>
      <point x="41" y="209" type="line"/>
      <point x="35" y="193"/>
      <point x="31" y="175"/>
      <point x="31" y="158" type="curve" smooth="yes"/>
      <point x="31" y="78"/>
      <point x="97" y="-10"/>
    </contour>
  </outline>
</glyph>
<glyph name="he-georgian" format="2">
  <advance width="592"/>
  <unicode hex="10F1"/>
  <note>
uni10F1
</note>
  <outline>
    <contour>
      <point x="312" y="-10" type="curve" smooth="yes"/>
      <point x="458" y="-10"/>
      <point x="554" y="68"/>
      <point x="554" y="166" type="curve" smooth="yes"/>
      <point x="554" y="247"/>
      <point x="492" y="287"/>
      <point x="437" y="299" type="curve"/>
      <point x="437" y="302" type="line"/>
      <point x="492" y="309"/>
      <point x="544" y="330"/>
      <point x="544" y="403" type="curve" smooth="yes"/>
      <point x="544" y="464"/>
      <point x="492" y="499"/>
      <point x="437" y="503" type="curve"/>
      <point x="437" y="506" type="line"/>
      <point x="492" y="517"/>
      <point x="532" y="543"/>
      <point x="532" y="601" type="curve" smooth="yes"/>
      <point x="532" y="643"/>
      <point x="516" y="670"/>
      <point x="498" y="692" type="curve" smooth="yes"/>
      <point x="480" y="714"/>
      <point x="468" y="733"/>
      <point x="468" y="760" type="curve"/>
      <point x="306" y="760" type="line"/>
      <point x="306" y="703"/>
      <point x="325" y="677"/>
      <point x="346" y="654" type="curve" smooth="yes"/>
      <point x="361" y="638"/>
      <point x="374" y="621"/>
      <point x="374" y="595" type="curve" smooth="yes"/>
      <point x="374" y="571"/>
      <point x="357" y="563"/>
      <point x="337" y="563" type="curve" smooth="yes"/>
      <point x="312" y="563" type="line"/>
      <point x="312" y="436" type="line"/>
      <point x="338" y="436" type="line" smooth="yes"/>
      <point x="370" y="436"/>
      <point x="386" y="425"/>
      <point x="386" y="403" type="curve" smooth="yes"/>
      <point x="386" y="381"/>
      <point x="370" y="370"/>
      <point x="338" y="370" type="curve" smooth="yes"/>
      <point x="312" y="370" type="line"/>
      <point x="312" y="243" type="line"/>
      <point x="329" y="243" type="line" smooth="yes"/>
      <point x="372" y="243"/>
      <point x="390" y="215"/>
      <point x="390" y="187" type="curve" smooth="yes"/>
      <point x="390" y="148"/>
      <point x="362" y="125"/>
      <point x="316" y="125" type="curve" smooth="yes"/>
      <point x="242" y="125"/>
      <point x="202" y="194"/>
      <point x="202" y="381" type="curve" smooth="yes"/>
      <point x="202" y="531"/>
      <point x="212" y="629"/>
      <point x="252" y="760" type="curve"/>
      <point x="100" y="760" type="line"/>
      <point x="56" y="644"/>
      <point x="38" y="541"/>
      <point x="38" y="381" type="curve" smooth="yes"/>
      <point x="38" y="94"/>
      <point x="156" y="-10"/>
    </contour>
  </outline>
</glyph>
<glyph name="hie-georgian" format="2">
  <advance width="530"/>
  <unicode hex="10F2"/>
  <note>
uni10F2
</note>
  <outline>
    <contour>
      <point x="48" y="0" type="line"/>
      <point x="129" y="0"/>
      <point x="202" y="25"/>
      <point x="265" y="61" type="curve"/>
      <point x="328" y="25"/>
      <point x="401" y="0"/>
      <point x="482" y="0" type="curve"/>
      <point x="482" y="135" type="line"/>
      <point x="457" y="135"/>
      <point x="412" y="137"/>
      <point x="374" y="150" type="curve"/>
      <point x="374" y="154" type="line"/>
      <point x="451" y="201"/>
      <point x="492" y="271"/>
      <point x="492" y="348" type="curve" smooth="yes"/>
      <point x="492" y="466"/>
      <point x="410" y="563"/>
      <point x="265" y="563" type="curve" smooth="yes"/>
      <point x="120" y="563"/>
      <point x="38" y="466"/>
      <point x="38" y="348" type="curve" smooth="yes"/>
      <point x="38" y="270"/>
      <point x="78" y="201"/>
      <point x="156" y="154" type="curve"/>
      <point x="156" y="150" type="line"/>
      <point x="113" y="137"/>
      <point x="73" y="135"/>
      <point x="48" y="135" type="curve"/>
    </contour>
    <contour>
      <point x="265" y="196" type="curve"/>
      <point x="226" y="229"/>
      <point x="202" y="277"/>
      <point x="202" y="343" type="curve" smooth="yes"/>
      <point x="202" y="384"/>
      <point x="220" y="428"/>
      <point x="265" y="428" type="curve" smooth="yes"/>
      <point x="310" y="428"/>
      <point x="328" y="384"/>
      <point x="328" y="343" type="curve" smooth="yes"/>
      <point x="328" y="277"/>
      <point x="304" y="229"/>
    </contour>
  </outline>
</glyph>
<glyph name="we-georgian" format="2">
  <advance width="506"/>
  <unicode hex="10F3"/>
  <note>
uni10F3
</note>
  <outline>
    <contour>
      <point x="255" y="-250" type="curve" smooth="yes"/>
      <point x="395" y="-250"/>
      <point x="473" y="-147"/>
      <point x="473" y="-6" type="curve" smooth="yes"/>
      <point x="473" y="153"/>
      <point x="409" y="211"/>
      <point x="325" y="237" type="curve"/>
      <point x="450" y="446" type="line"/>
      <point x="450" y="553" type="line"/>
      <point x="71" y="553" type="line"/>
      <point x="71" y="418" type="line"/>
      <point x="269" y="418" type="line"/>
      <point x="165" y="243" type="line"/>
      <point x="165" y="128" type="line"/>
      <point x="213" y="128" type="line" smooth="yes"/>
      <point x="279" y="128"/>
      <point x="309" y="100"/>
      <point x="309" y="-4" type="curve" smooth="yes"/>
      <point x="309" y="-80"/>
      <point x="293" y="-115"/>
      <point x="253" y="-115" type="curve" smooth="yes"/>
      <point x="212" y="-115"/>
      <point x="195" y="-64"/>
      <point x="195" y="-20" type="curve" smooth="yes"/>
      <point x="195" y="16"/>
      <point x="199" y="43"/>
      <point x="204" y="56" type="curve"/>
      <point x="52" y="56" type="line"/>
      <point x="40" y="28"/>
      <point x="33" y="5"/>
      <point x="33" y="-35" type="curve" smooth="yes"/>
      <point x="33" y="-157"/>
      <point x="123" y="-250"/>
    </contour>
  </outline>
</glyph>
<glyph name="har-georgian" format="2">
  <advance width="496"/>
  <unicode hex="10F4"/>
  <note>
uni10F4
</note>
  <outline>
    <contour>
      <point x="246" y="-250" type="curve" smooth="yes"/>
      <point x="385" y="-250"/>
      <point x="463" y="-147"/>
      <point x="463" y="-16" type="curve" smooth="yes"/>
      <point x="463" y="96"/>
      <point x="399" y="158"/>
      <point x="326" y="179" type="curve"/>
      <point x="326" y="182" type="line"/>
      <point x="399" y="200"/>
      <point x="441" y="246"/>
      <point x="441" y="324" type="curve" smooth="yes"/>
      <point x="441" y="412"/>
      <point x="375" y="463"/>
      <point x="315" y="504" type="curve" smooth="yes"/>
      <point x="255" y="545"/>
      <point x="224" y="566"/>
      <point x="224" y="600" type="curve" smooth="yes"/>
      <point x="224" y="624"/>
      <point x="245" y="636"/>
      <point x="271" y="636" type="curve" smooth="yes"/>
      <point x="303" y="636"/>
      <point x="331" y="629"/>
      <point x="371" y="612" type="curve"/>
      <point x="421" y="729" type="line"/>
      <point x="373" y="759"/>
      <point x="318" y="770"/>
      <point x="259" y="770" type="curve" smooth="yes"/>
      <point x="139" y="770"/>
      <point x="60" y="703"/>
      <point x="60" y="606" type="curve" smooth="yes"/>
      <point x="60" y="506"/>
      <point x="122" y="457"/>
      <point x="180" y="416" type="curve" smooth="yes"/>
      <point x="231" y="380"/>
      <point x="279" y="345"/>
      <point x="279" y="298" type="curve" smooth="yes"/>
      <point x="279" y="264"/>
      <point x="264" y="246"/>
      <point x="226" y="246" type="curve" smooth="yes"/>
      <point x="201" y="246" type="line"/>
      <point x="201" y="113" type="line"/>
      <point x="231" y="113" type="line" smooth="yes"/>
      <point x="277" y="113"/>
      <point x="299" y="71"/>
      <point x="299" y="-4" type="curve" smooth="yes"/>
      <point x="299" y="-80"/>
      <point x="283" y="-115"/>
      <point x="244" y="-115" type="curve" smooth="yes"/>
      <point x="208" y="-115"/>
      <point x="191" y="-80"/>
      <point x="191" y="-30" type="curve" smooth="yes"/>
      <point x="191" y="3"/>
      <point x="195" y="28"/>
      <point x="200" y="53" type="curve"/>
      <point x="52" y="53" type="line"/>
      <point x="39" y="15"/>
      <point x="33" y="-12"/>
      <point x="33" y="-56" type="curve" smooth="yes"/>
      <point x="33" y="-172"/>
      <point x="125" y="-250"/>
    </contour>
  </outline>
</glyph>
<glyph name="hoe-georgian" format="2">
  <advance width="520"/>
  <unicode hex="10F5"/>
  <note>
uni10F5
</note>
  <outline>
    <contour>
      <point x="243" y="-10" type="curve" smooth="yes"/>
      <point x="361" y="-10"/>
      <point x="441" y="48"/>
      <point x="441" y="173" type="curve" smooth="yes"/>
      <point x="441" y="214" type="line"/>
      <point x="511" y="214" type="line"/>
      <point x="511" y="343" type="line"/>
      <point x="441" y="343" type="line"/>
      <point x="441" y="421" type="line"/>
      <point x="511" y="421" type="line"/>
      <point x="511" y="550" type="line"/>
      <point x="441" y="550" type="line"/>
      <point x="441" y="594" type="line" smooth="yes"/>
      <point x="441" y="707"/>
      <point x="351" y="770"/>
      <point x="239" y="770" type="curve" smooth="yes"/>
      <point x="117" y="770"/>
      <point x="38" y="710"/>
      <point x="38" y="593" type="curve" smooth="yes"/>
      <point x="38" y="478"/>
      <point x="113" y="421"/>
      <point x="237" y="421" type="curve" smooth="yes"/>
      <point x="281" y="421" type="line"/>
      <point x="281" y="343" type="line"/>
      <point x="237" y="343" type="line" smooth="yes"/>
      <point x="113" y="343"/>
      <point x="40" y="279"/>
      <point x="40" y="164" type="curve" smooth="yes"/>
      <point x="40" y="51"/>
      <point x="117" y="-10"/>
    </contour>
    <contour>
      <point x="241" y="119" type="curve" smooth="yes"/>
      <point x="220" y="119"/>
      <point x="202" y="132"/>
      <point x="202" y="164" type="curve" smooth="yes"/>
      <point x="202" y="200"/>
      <point x="220" y="214"/>
      <point x="253" y="214" type="curve" smooth="yes"/>
      <point x="281" y="214" type="line"/>
      <point x="281" y="173" type="line" smooth="yes"/>
      <point x="281" y="135"/>
      <point x="262" y="119"/>
    </contour>
    <contour>
      <point x="248" y="550" type="line" smooth="yes"/>
      <point x="224" y="550"/>
      <point x="200" y="561"/>
      <point x="200" y="595" type="curve" smooth="yes"/>
      <point x="200" y="623"/>
      <point x="213" y="641"/>
      <point x="239" y="641" type="curve" smooth="yes"/>
      <point x="265" y="641"/>
      <point x="281" y="622"/>
      <point x="281" y="589" type="curve" smooth="yes"/>
      <point x="281" y="550" type="line"/>
    </contour>
  </outline>
</glyph>
<glyph name="fi-georgian" format="2">
  <advance width="778"/>
  <unicode hex="10F6"/>
  <note>
uni10F6
</note>
  <outline>
    <contour>
      <point x="318" y="-250" type="curve" smooth="yes"/>
      <point x="419" y="-250"/>
      <point x="470" y="-201"/>
      <point x="470" y="-77" type="curve" smooth="yes"/>
      <point x="470" y="-38" type="line" smooth="yes"/>
      <point x="470" y="-6"/>
      <point x="468" y="24"/>
      <point x="464" y="65" type="curve"/>
      <point x="469" y="65" type="line"/>
      <point x="490" y="14"/>
      <point x="529" y="-10"/>
      <point x="580" y="-10" type="curve" smooth="yes"/>
      <point x="679" y="-10"/>
      <point x="740" y="98"/>
      <point x="740" y="275" type="curve" smooth="yes"/>
      <point x="740" y="452"/>
      <point x="680" y="563"/>
      <point x="575" y="563" type="curve" smooth="yes"/>
      <point x="522" y="563"/>
      <point x="492" y="545"/>
      <point x="467" y="499" type="curve"/>
      <point x="461" y="499" type="line"/>
      <point x="467" y="517"/>
      <point x="470" y="535"/>
      <point x="470" y="566" type="curve" smooth="yes"/>
      <point x="470" y="586" type="line" smooth="yes"/>
      <point x="470" y="612"/>
      <point x="484" y="630"/>
      <point x="514" y="630" type="curve" smooth="yes"/>
      <point x="528" y="630"/>
      <point x="543" y="627"/>
      <point x="559" y="621" type="curve"/>
      <point x="559" y="758" type="line"/>
      <point x="541" y="764"/>
      <point x="499" y="770"/>
      <point x="475" y="770" type="curve" smooth="yes"/>
      <point x="368" y="770"/>
      <point x="308" y="696"/>
      <point x="308" y="588" type="curve" smooth="yes"/>
      <point x="308" y="566" type="line" smooth="yes"/>
      <point x="308" y="537"/>
      <point x="312" y="517"/>
      <point x="317" y="499" type="curve"/>
      <point x="311" y="499" type="line"/>
      <point x="286" y="545"/>
      <point x="256" y="563"/>
      <point x="203" y="563" type="curve" smooth="yes"/>
      <point x="98" y="563"/>
      <point x="38" y="452"/>
      <point x="38" y="275" type="curve" smooth="yes"/>
      <point x="38" y="98"/>
      <point x="99" y="-10"/>
      <point x="198" y="-10" type="curve" smooth="yes"/>
      <point x="249" y="-10"/>
      <point x="288" y="14"/>
      <point x="309" y="65" type="curve"/>
      <point x="314" y="65" type="line"/>
      <point x="311" y="33"/>
      <point x="308" y="2"/>
      <point x="308" y="-31" type="curve" smooth="yes"/>
      <point x="308" y="-64" type="line" smooth="yes"/>
      <point x="308" y="-96"/>
      <point x="295" y="-110"/>
      <point x="270" y="-110" type="curve" smooth="yes"/>
      <point x="246" y="-110"/>
      <point x="228" y="-103"/>
      <point x="203" y="-89" type="curve"/>
      <point x="203" y="-219" type="line"/>
      <point x="235" y="-240"/>
      <point x="274" y="-250"/>
    </contour>
    <contour>
      <point x="257" y="129" type="curve" smooth="yes"/>
      <point x="221" y="129"/>
      <point x="202" y="177"/>
      <point x="202" y="273" type="curve" smooth="yes"/>
      <point x="202" y="378"/>
      <point x="222" y="428"/>
      <point x="256" y="428" type="curve" smooth="yes"/>
      <point x="290" y="428"/>
      <point x="308" y="387"/>
      <point x="308" y="288" type="curve" smooth="yes"/>
      <point x="308" y="256" type="line" smooth="yes"/>
      <point x="308" y="168"/>
      <point x="290" y="129"/>
    </contour>
    <contour>
      <point x="521" y="129" type="curve" smooth="yes"/>
      <point x="488" y="129"/>
      <point x="470" y="168"/>
      <point x="470" y="256" type="curve" smooth="yes"/>
      <point x="470" y="288" type="line" smooth="yes"/>
      <point x="470" y="387"/>
      <point x="488" y="428"/>
      <point x="522" y="428" type="curve" smooth="yes"/>
      <point x="556" y="428"/>
      <point x="576" y="378"/>
      <point x="576" y="273" type="curve" smooth="yes"/>
      <point x="576" y="177"/>
      <point x="557" y="129"/>
    </contour>
  </outline>
</glyph>
<glyph name="yn-georgian" format="2">
  <advance width="504"/>
  <unicode hex="10F7"/>
  <note>
uni10F7
</note>
  <anchor x="252" y="553" name="top"/>
  <outline>
    <contour>
      <point x="258" y="-250" type="curve" smooth="yes"/>
      <point x="391" y="-250"/>
      <point x="471" y="-174"/>
      <point x="471" y="-44" type="curve" smooth="yes"/>
      <point x="471" y="-19"/>
      <point x="468" y="5"/>
      <point x="461" y="29" type="curve"/>
      <point x="298" y="29" type="line"/>
      <point x="306" y="7"/>
      <point x="308" y="-12"/>
      <point x="308" y="-36" type="curve" smooth="yes"/>
      <point x="308" y="-91"/>
      <point x="283" y="-116"/>
      <point x="253" y="-116" type="curve" smooth="yes"/>
      <point x="222" y="-116"/>
      <point x="200" y="-91"/>
      <point x="200" y="-38" type="curve" smooth="yes"/>
      <point x="200" y="31"/>
      <point x="249" y="70"/>
      <point x="326" y="129" type="curve" smooth="yes"/>
      <point x="428" y="208"/>
      <point x="470" y="269"/>
      <point x="470" y="372" type="curve" smooth="yes"/>
      <point x="470" y="479"/>
      <point x="396" y="558"/>
      <point x="267" y="558" type="curve" smooth="yes"/>
      <point x="130" y="558"/>
      <point x="55" y="477"/>
      <point x="55" y="382" type="curve" smooth="yes"/>
      <point x="55" y="357"/>
      <point x="57" y="342"/>
      <point x="62" y="326" type="curve"/>
      <point x="225" y="326" type="line"/>
      <point x="221" y="340"/>
      <point x="219" y="354"/>
      <point x="219" y="366" type="curve" smooth="yes"/>
      <point x="219" y="400"/>
      <point x="235" y="426"/>
      <point x="265" y="426" type="curve" smooth="yes"/>
      <point x="291" y="426"/>
      <point x="309" y="405"/>
      <point x="309" y="366" type="curve" smooth="yes"/>
      <point x="309" y="320"/>
      <point x="281" y="299"/>
      <point x="206" y="243" type="curve" smooth="yes"/>
      <point x="119" y="178"/>
      <point x="33" y="102"/>
      <point x="33" y="-32" type="curve" smooth="yes"/>
      <point x="33" y="-172"/>
      <point x="121" y="-250"/>
    </contour>
  </outline>
</glyph>
<glyph name="elifi-georgian" format="2">
  <advance width="527"/>
  <unicode hex="10F8"/>
  <note>
uni10F8
</note>
  <outline>
    <contour>
      <point x="266" y="-250" type="curve" smooth="yes"/>
      <point x="406" y="-250"/>
      <point x="485" y="-153"/>
      <point x="485" y="-34" type="curve" smooth="yes"/>
      <point x="485" y="1"/>
      <point x="481" y="29"/>
      <point x="468" y="66" type="curve"/>
      <point x="315" y="66" type="line"/>
      <point x="321" y="39"/>
      <point x="325" y="15"/>
      <point x="325" y="-19" type="curve" smooth="yes"/>
      <point x="325" y="-71"/>
      <point x="310" y="-115"/>
      <point x="268" y="-115" type="curve" smooth="yes"/>
      <point x="228" y="-115"/>
      <point x="212" y="-80"/>
      <point x="212" y="8" type="curve" smooth="yes"/>
      <point x="212" y="73" type="line" smooth="yes"/>
      <point x="212" y="130"/>
      <point x="211" y="168"/>
      <point x="206" y="217" type="curve"/>
      <point x="211" y="217" type="line"/>
      <point x="237" y="169"/>
      <point x="276" y="140"/>
      <point x="330" y="140" type="curve" smooth="yes"/>
      <point x="426" y="140"/>
      <point x="489" y="222"/>
      <point x="489" y="363" type="curve" smooth="yes"/>
      <point x="489" y="441"/>
      <point x="477" y="500"/>
      <point x="459" y="553" type="curve"/>
      <point x="304" y="553" type="line"/>
      <point x="318" y="490"/>
      <point x="325" y="444"/>
      <point x="325" y="380" type="curve" smooth="yes"/>
      <point x="325" y="310"/>
      <point x="310" y="276"/>
      <point x="273" y="276" type="curve" smooth="yes"/>
      <point x="231" y="276"/>
      <point x="212" y="322"/>
      <point x="212" y="417" type="curve" smooth="yes"/>
      <point x="212" y="553" type="line"/>
      <point x="50" y="553" type="line"/>
      <point x="50" y="-2" type="line" smooth="yes"/>
      <point x="50" y="-161"/>
      <point x="126" y="-250"/>
    </contour>
  </outline>
</glyph>
<glyph name="turnedgan-georgian" format="2">
  <advance width="527"/>
  <unicode hex="10F9"/>
  <note>
uni10F9
</note>
  <outline>
    <contour>
      <point x="264" y="563" type="curve" smooth="yes"/>
      <point x="94" y="563"/>
      <point x="38" y="417"/>
      <point x="38" y="285" type="curve" smooth="yes"/>
      <point x="38" y="144"/>
      <point x="89" y="71"/>
      <point x="153" y="45" type="curve"/>
      <point x="153" y="41" type="line"/>
      <point x="89" y="13"/>
      <point x="73" y="-41"/>
      <point x="73" y="-86" type="curve" smooth="yes"/>
      <point x="73" y="-176"/>
      <point x="131" y="-250"/>
      <point x="263" y="-250" type="curve" smooth="yes"/>
      <point x="381" y="-250"/>
      <point x="451" y="-181"/>
      <point x="451" y="-93" type="curve" smooth="yes"/>
      <point x="451" y="-76"/>
      <point x="448" y="-58"/>
      <point x="444" y="-40" type="curve"/>
      <point x="297" y="-40" type="line"/>
      <point x="300" y="-52"/>
      <point x="301" y="-65"/>
      <point x="301" y="-76" type="curve" smooth="yes"/>
      <point x="301" y="-104"/>
      <point x="288" y="-124"/>
      <point x="264" y="-124" type="curve" smooth="yes"/>
      <point x="240" y="-124"/>
      <point x="227" y="-104"/>
      <point x="227" y="-75" type="curve" smooth="yes"/>
      <point x="227" y="-18"/>
      <point x="246" y="1"/>
      <point x="309" y="18" type="curve" smooth="yes"/>
      <point x="423" y="49"/>
      <point x="489" y="146"/>
      <point x="489" y="285" type="curve" smooth="yes"/>
      <point x="489" y="421"/>
      <point x="421" y="563"/>
    </contour>
    <contour>
      <point x="263" y="428" type="curve" smooth="yes"/>
      <point x="306" y="428"/>
      <point x="325" y="376"/>
      <point x="325" y="287" type="curve" smooth="yes"/>
      <point x="325" y="193"/>
      <point x="306" y="145"/>
      <point x="263" y="145" type="curve" smooth="yes"/>
      <point x="218" y="145"/>
      <point x="202" y="194"/>
      <point x="202" y="285" type="curve" smooth="yes"/>
      <point x="202" y="377"/>
      <point x="218" y="428"/>
    </contour>
  </outline>
</glyph>
<glyph name="ain-georgian" format="2">
  <advance width="425"/>
  <unicode hex="10FA"/>
  <note>
uni10FA
</note>
  <outline>
    <contour>
      <point x="84" y="-115" type="line"/>
      <point x="402" y="29" type="line"/>
      <point x="402" y="177" type="line"/>
      <point x="362" y="145"/>
      <point x="320" y="128"/>
      <point x="278" y="128" type="curve" smooth="yes"/>
      <point x="228" y="128"/>
      <point x="202" y="177"/>
      <point x="202" y="274" type="curve" smooth="yes"/>
      <point x="202" y="371"/>
      <point x="230" y="425"/>
      <point x="282" y="425" type="curve" smooth="yes"/>
      <point x="308" y="425"/>
      <point x="340" y="414"/>
      <point x="373" y="392" type="curve"/>
      <point x="416" y="521" type="line"/>
      <point x="372" y="549"/>
      <point x="324" y="563"/>
      <point x="263" y="563" type="curve" smooth="yes"/>
      <point x="105" y="563"/>
      <point x="38" y="435"/>
      <point x="38" y="274" type="curve" smooth="yes"/>
      <point x="38" y="164"/>
      <point x="78" y="81"/>
      <point x="138" y="50" type="curve"/>
      <point x="138" y="46" type="line"/>
      <point x="84" y="20" type="line"/>
    </contour>
  </outline>
</glyph>
<glyph name="paragraph-georgian" format="2">
  <advance width="500"/>
  <unicode hex="10FB"/>
  <note>
uni10FB
</note>
  <outline>
    <contour>
      <point x="362" y="181" type="curve" smooth="yes"/>
      <point x="418" y="181"/>
      <point x="451" y="215"/>
      <point x="451" y="274" type="curve" smooth="yes"/>
      <point x="451" y="334"/>
      <point x="420" y="368"/>
      <point x="362" y="368" type="curve" smooth="yes"/>
      <point x="301" y="368"/>
      <point x="269" y="334"/>
      <point x="269" y="274" type="curve" smooth="yes"/>
      <point x="269" y="215"/>
      <point x="304" y="181"/>
    </contour>
    <contour>
      <point x="142" y="-12" type="curve" smooth="yes"/>
      <point x="198" y="-12"/>
      <point x="231" y="22"/>
      <point x="231" y="81" type="curve" smooth="yes"/>
      <point x="231" y="141"/>
      <point x="200" y="175"/>
      <point x="142" y="175" type="curve" smooth="yes"/>
      <point x="81" y="175"/>
      <point x="49" y="141"/>
      <point x="49" y="81" type="curve" smooth="yes"/>
      <point x="49" y="22"/>
      <point x="84" y="-12"/>
    </contour>
    <contour>
      <point x="142" y="374" type="curve" smooth="yes"/>
      <point x="198" y="374"/>
      <point x="231" y="408"/>
      <point x="231" y="467" type="curve" smooth="yes"/>
      <point x="231" y="527"/>
      <point x="200" y="561"/>
      <point x="142" y="561" type="curve" smooth="yes"/>
      <point x="81" y="561"/>
      <point x="49" y="527"/>
      <point x="49" y="467" type="curve" smooth="yes"/>
      <point x="49" y="408"/>
      <point x="84" y="374"/>
    </contour>
  </outline>
</glyph>
<glyph name="narMod-georgian" format="2">
  <advance width="329"/>
  <unicode hex="10FC"/>
  <note>
uni10FC
</note>
  <outline>
    <contour>
      <point x="169" y="406" type="curve" smooth="yes"/>
      <point x="260" y="406"/>
      <point x="309" y="471"/>
      <point x="309" y="561" type="curve" smooth="yes"/>
      <point x="309" y="650"/>
      <point x="266" y="707"/>
      <point x="204" y="707" type="curve" smooth="yes"/>
      <point x="175" y="707"/>
      <point x="153" y="693"/>
      <point x="136" y="666" type="curve"/>
      <point x="133" y="666" type="line"/>
      <point x="136" y="692"/>
      <point x="136" y="703"/>
      <point x="136" y="715" type="curve" smooth="yes"/>
      <point x="136" y="728" type="line" smooth="yes"/>
      <point x="136" y="747"/>
      <point x="149" y="755"/>
      <point x="170" y="755" type="curve" smooth="yes"/>
      <point x="279" y="755" type="line"/>
      <point x="279" y="844" type="line"/>
      <point x="147" y="844" type="line" smooth="yes"/>
      <point x="83" y="844"/>
      <point x="30" y="812"/>
      <point x="30" y="742" type="curve" smooth="yes"/>
      <point x="30" y="568" type="line" smooth="yes"/>
      <point x="30" y="469"/>
      <point x="78" y="406"/>
    </contour>
    <contour>
      <point x="169" y="490" type="curve" smooth="yes"/>
      <point x="154" y="490"/>
      <point x="146" y="508"/>
      <point x="146" y="552" type="curve" smooth="yes"/>
      <point x="146" y="574" type="line" smooth="yes"/>
      <point x="146" y="605"/>
      <point x="155" y="625"/>
      <point x="170" y="625" type="curve" smooth="yes"/>
      <point x="186" y="625"/>
      <point x="193" y="605"/>
      <point x="193" y="561" type="curve" smooth="yes"/>
      <point x="193" y="507"/>
      <point x="186" y="490"/>
    </contour>
  </outline>
</glyph>
<glyph name="aen-georgian" format="2">
  <advance width="504"/>
  <unicode hex="10FD"/>
  <outline>
    <contour>
      <point x="246" y="-10" type="curve" smooth="yes"/>
      <point x="383" y="-10"/>
      <point x="471" y="68"/>
      <point x="471" y="208" type="curve" smooth="yes"/>
      <point x="471" y="332"/>
      <point x="386" y="399"/>
      <point x="298" y="463" type="curve" smooth="yes"/>
      <point x="223" y="518"/>
      <point x="195" y="538"/>
      <point x="195" y="583" type="curve" smooth="yes"/>
      <point x="195" y="617"/>
      <point x="213" y="638"/>
      <point x="239" y="638" type="curve" smooth="yes"/>
      <point x="269" y="638"/>
      <point x="285" y="612"/>
      <point x="285" y="578" type="curve" smooth="yes"/>
      <point x="285" y="566"/>
      <point x="283" y="552"/>
      <point x="279" y="538" type="curve"/>
      <point x="442" y="538" type="line"/>
      <point x="447" y="554"/>
      <point x="449" y="569"/>
      <point x="449" y="594" type="curve" smooth="yes"/>
      <point x="449" y="689"/>
      <point x="374" y="770"/>
      <point x="237" y="770" type="curve" smooth="yes"/>
      <point x="108" y="770"/>
      <point x="34" y="691"/>
      <point x="34" y="584" type="curve" smooth="yes"/>
      <point x="34" y="481"/>
      <point x="76" y="427"/>
      <point x="178" y="349" type="curve" smooth="yes"/>
      <point x="255" y="290"/>
      <point x="304" y="256"/>
      <point x="304" y="198" type="curve" smooth="yes"/>
      <point x="304" y="149"/>
      <point x="282" y="124"/>
      <point x="251" y="124" type="curve" smooth="yes"/>
      <point x="221" y="124"/>
      <point x="196" y="149"/>
      <point x="196" y="204" type="curve" smooth="yes"/>
      <point x="196" y="228"/>
      <point x="198" y="247"/>
      <point x="206" y="269" type="curve"/>
      <point x="43" y="269" type="line"/>
      <point x="36" y="245"/>
      <point x="33" y="221"/>
      <point x="33" y="196" type="curve" smooth="yes"/>
      <point x="33" y="66"/>
      <point x="113" y="-10"/>
    </contour>
  </outline>
</glyph>
<glyph name="hardsign-georgian" format="2">
  <advance width="530"/>
  <unicode hex="10FE"/>
  <outline>
    <contour>
      <point x="48" y="553" type="curve"/>
      <point x="48" y="418" type="line"/>
      <point x="73" y="418"/>
      <point x="113" y="416"/>
      <point x="156" y="403" type="curve"/>
      <point x="156" y="399" type="line"/>
      <point x="78" y="352"/>
      <point x="38" y="283"/>
      <point x="38" y="205" type="curve" smooth="yes"/>
      <point x="38" y="87"/>
      <point x="120" y="-10"/>
      <point x="265" y="-10" type="curve" smooth="yes"/>
      <point x="410" y="-10"/>
      <point x="492" y="87"/>
      <point x="492" y="205" type="curve" smooth="yes"/>
      <point x="492" y="282"/>
      <point x="451" y="352"/>
      <point x="374" y="399" type="curve"/>
      <point x="374" y="403" type="line"/>
      <point x="412" y="416"/>
      <point x="457" y="418"/>
      <point x="482" y="418" type="curve"/>
      <point x="482" y="553" type="line"/>
      <point x="401" y="553"/>
      <point x="328" y="528"/>
      <point x="265" y="492" type="curve"/>
      <point x="202" y="528"/>
      <point x="129" y="553"/>
    </contour>
    <contour>
      <point x="265" y="357" type="curve"/>
      <point x="304" y="324"/>
      <point x="328" y="276"/>
      <point x="328" y="210" type="curve" smooth="yes"/>
      <point x="328" y="169"/>
      <point x="310" y="125"/>
      <point x="265" y="125" type="curve" smooth="yes"/>
      <point x="220" y="125"/>
      <point x="202" y="169"/>
      <point x="202" y="210" type="curve" smooth="yes"/>
      <point x="202" y="276"/>
      <point x="226" y="324"/>
    </contour>
  </outline>
</glyph>
<glyph name="labial-georgian" format="2">
  <advance width="527"/>
  <unicode hex="10FF"/>
  <outline>
    <contour>
      <point x="489" y="278" type="curve" smooth="yes"/>
      <point x="489" y="460"/>
      <point x="399" y="563"/>
      <point x="265" y="563" type="curve" smooth="yes"/>
      <point x="103" y="563"/>
      <point x="38" y="437"/>
      <point x="38" y="278" type="curve" smooth="yes"/>
      <point x="38" y="132"/>
      <point x="106" y="-10"/>
      <point x="263" y="-10" type="curve" smooth="yes"/>
      <point x="433" y="-10"/>
      <point x="489" y="136"/>
    </contour>
    <contour>
      <point x="202" y="276" type="curve" smooth="yes"/>
      <point x="202" y="380"/>
      <point x="221" y="428"/>
      <point x="264" y="428" type="curve" smooth="yes"/>
      <point x="309" y="428"/>
      <point x="325" y="379"/>
      <point x="325" y="278" type="curve" smooth="yes"/>
      <point x="325" y="176"/>
      <point x="309" y="125"/>
      <point x="264" y="125" type="curve" smooth="yes"/>
      <point x="221" y="125"/>
      <point x="202" y="177"/>
    </contour>
  </outline>
</glyph>
<glyph name="An-georgian" format="2">
  <advance width="544"/>
  <unicode hex="1C90"/>
  <anchor x="269" y="714" name="top"/>
  <outline>
    <contour>
      <point x="269" y="-10" type="curve" smooth="yes"/>
      <point x="414" y="-10"/>
      <point x="502" y="82"/>
      <point x="502" y="239" type="curve" smooth="yes"/>
      <point x="502" y="347"/>
      <point x="463" y="429"/>
      <point x="423" y="501" type="curve" smooth="yes"/>
      <point x="381" y="577"/>
      <point x="344" y="642"/>
      <point x="355" y="714" type="curve"/>
      <point x="178" y="714" type="line"/>
      <point x="160" y="602"/>
      <point x="212" y="520"/>
      <point x="259" y="441" type="curve" smooth="yes"/>
      <point x="297" y="377"/>
      <point x="325" y="317"/>
      <point x="325" y="246" type="curve" smooth="yes"/>
      <point x="325" y="173"/>
      <point x="311" y="137"/>
      <point x="269" y="137" type="curve" smooth="yes"/>
      <point x="226" y="137"/>
      <point x="210" y="175"/>
      <point x="210" y="249" type="curve" smooth="yes"/>
      <point x="210" y="292"/>
      <point x="217" y="344"/>
      <point x="240" y="419" type="curve"/>
      <point x="298" y="352" type="line"/>
      <point x="-24" y="352" type="line"/>
      <point x="69" y="410" type="line"/>
      <point x="46" y="338"/>
      <point x="36" y="293"/>
      <point x="36" y="232" type="curve" smooth="yes"/>
      <point x="36" y="86"/>
      <point x="120" y="-10"/>
    </contour>
  </outline>
</glyph>
<glyph name="Ban-georgian" format="2">
  <advance width="569"/>
  <unicode hex="1C91"/>
  <outline>
    <contour>
      <point x="285" y="-10" type="curve" smooth="yes"/>
      <point x="462" y="-10"/>
      <point x="527" y="137"/>
      <point x="527" y="263" type="curve" smooth="yes"/>
      <point x="527" y="433"/>
      <point x="426" y="533"/>
      <point x="287" y="533" type="curve" smooth="yes"/>
      <point x="118" y="533"/>
      <point x="42" y="408"/>
      <point x="42" y="263" type="curve" smooth="yes"/>
      <point x="42" y="132"/>
      <point x="121" y="-10"/>
    </contour>
    <contour>
      <point x="286" y="137" type="curve" smooth="yes"/>
      <point x="242" y="137"/>
      <point x="217" y="183"/>
      <point x="217" y="261" type="curve" smooth="yes"/>
      <point x="217" y="345"/>
      <point x="242" y="386"/>
      <point x="286" y="386" type="curve" smooth="yes"/>
      <point x="331" y="386"/>
      <point x="352" y="344"/>
      <point x="352" y="263" type="curve" smooth="yes"/>
      <point x="352" y="182"/>
      <point x="331" y="137"/>
    </contour>
    <contour>
      <point x="364" y="497" type="line"/>
      <point x="381" y="522"/>
      <point x="391" y="542"/>
      <point x="391" y="573" type="curve" smooth="yes"/>
      <point x="391" y="618"/>
      <point x="367" y="642"/>
      <point x="347" y="660" type="curve" smooth="yes"/>
      <point x="331" y="675"/>
      <point x="318" y="689"/>
      <point x="319" y="714" type="curve"/>
      <point x="147" y="714" type="line"/>
      <point x="135" y="648"/>
      <point x="164" y="620"/>
      <point x="188" y="596" type="curve" smooth="yes"/>
      <point x="203" y="581"/>
      <point x="216" y="568"/>
      <point x="216" y="545" type="curve" smooth="yes"/>
      <point x="216" y="531"/>
      <point x="207" y="509"/>
      <point x="202" y="502" type="curve"/>
    </contour>
  </outline>
</glyph>
<glyph name="Gan-georgian" format="2">
  <advance width="557"/>
  <unicode hex="1C92"/>
  <outline>
    <contour>
      <point x="279" y="-10" type="curve" smooth="yes"/>
      <point x="456" y="-10"/>
      <point x="521" y="132"/>
      <point x="521" y="253" type="curve" smooth="yes"/>
      <point x="521" y="361"/>
      <point x="482" y="421"/>
      <point x="413" y="460" type="curve"/>
      <point x="413" y="464" type="line"/>
      <point x="456" y="489"/>
      <point x="473" y="537"/>
      <point x="473" y="574" type="curve" smooth="yes"/>
      <point x="473" y="654"/>
      <point x="409" y="724"/>
      <point x="272" y="724" type="curve" smooth="yes"/>
      <point x="147" y="724"/>
      <point x="72" y="657"/>
      <point x="72" y="578" type="curve" smooth="yes"/>
      <point x="72" y="566"/>
      <point x="74" y="552"/>
      <point x="77" y="540" type="curve"/>
      <point x="231" y="540" type="line"/>
      <point x="230" y="545"/>
      <point x="229" y="552"/>
      <point x="229" y="558" type="curve" smooth="yes"/>
      <point x="229" y="578"/>
      <point x="244" y="594"/>
      <point x="271" y="594" type="curve" smooth="yes"/>
      <point x="298" y="594"/>
      <point x="312" y="579"/>
      <point x="312" y="558" type="curve" smooth="yes"/>
      <point x="312" y="535"/>
      <point x="305" y="514"/>
      <point x="252" y="507" type="curve" smooth="yes"/>
      <point x="103" y="488"/>
      <point x="36" y="379"/>
      <point x="36" y="253" type="curve" smooth="yes"/>
      <point x="36" y="127"/>
      <point x="115" y="-10"/>
    </contour>
    <contour>
      <point x="280" y="137" type="curve" smooth="yes"/>
      <point x="236" y="137"/>
      <point x="211" y="178"/>
      <point x="211" y="251" type="curve" smooth="yes"/>
      <point x="211" y="324"/>
      <point x="236" y="361"/>
      <point x="280" y="361" type="curve" smooth="yes"/>
      <point x="325" y="361"/>
      <point x="346" y="323"/>
      <point x="346" y="253" type="curve" smooth="yes"/>
      <point x="346" y="177"/>
      <point x="325" y="137"/>
    </contour>
  </outline>
</glyph>
<glyph name="Don-georgian" format="2">
  <advance width="817"/>
  <unicode hex="1C93"/>
  <outline>
    <contour>
      <point x="471" y="0" type="curve"/>
      <point x="641" y="0" type="line"/>
      <point x="634" y="127"/>
      <point x="528" y="179"/>
      <point x="431" y="207" type="curve" smooth="yes"/>
      <point x="322" y="238"/>
      <point x="215" y="307"/>
      <point x="215" y="464" type="curve" smooth="yes"/>
      <point x="215" y="539"/>
      <point x="232" y="577"/>
      <point x="270" y="577" type="curve" smooth="yes"/>
      <point x="309" y="577"/>
      <point x="314" y="536"/>
      <point x="314" y="486" type="curve" smooth="yes"/>
      <point x="314" y="468" type="line" smooth="yes"/>
      <point x="314" y="383"/>
      <point x="371" y="247"/>
      <point x="544" y="247" type="curve" smooth="yes"/>
      <point x="711" y="247"/>
      <point x="775" y="383"/>
      <point x="775" y="487" type="curve" smooth="yes"/>
      <point x="775" y="604"/>
      <point x="708" y="724"/>
      <point x="552" y="724" type="curve" smooth="yes"/>
      <point x="490" y="724"/>
      <point x="424" y="696"/>
      <point x="401" y="644" type="curve"/>
      <point x="397" y="644" type="line"/>
      <point x="375" y="696"/>
      <point x="322" y="724"/>
      <point x="252" y="724" type="curve" smooth="yes"/>
      <point x="122" y="724"/>
      <point x="42" y="622"/>
      <point x="42" y="467" type="curve" smooth="yes"/>
      <point x="42" y="352"/>
      <point x="101" y="237"/>
      <point x="217" y="184" type="curve"/>
      <point x="217" y="180" type="line"/>
      <point x="182" y="173"/>
      <point x="150" y="160"/>
      <point x="124" y="146" type="curve"/>
      <point x="175" y="37" type="line"/>
      <point x="211" y="57"/>
      <point x="269" y="76"/>
      <point x="326" y="76" type="curve" smooth="yes"/>
      <point x="390" y="76"/>
      <point x="457" y="58"/>
    </contour>
    <contour>
      <point x="543" y="394" type="curve" smooth="yes"/>
      <point x="499" y="394"/>
      <point x="486" y="437"/>
      <point x="486" y="486" type="curve" smooth="yes"/>
      <point x="486" y="538"/>
      <point x="500" y="577"/>
      <point x="543" y="577" type="curve" smooth="yes"/>
      <point x="586" y="577"/>
      <point x="602" y="539"/>
      <point x="602" y="485" type="curve" smooth="yes"/>
      <point x="602" y="437"/>
      <point x="586" y="394"/>
    </contour>
  </outline>
</glyph>
<glyph name="Vin-georgian" format="2">
  <advance width="543"/>
  <unicode hex="1C95"/>
  <outline>
    <contour>
      <point x="272" y="-10" type="curve" smooth="yes"/>
      <point x="423" y="-10"/>
      <point x="507" y="89"/>
      <point x="507" y="201" type="curve" smooth="yes"/>
      <point x="507" y="298"/>
      <point x="460" y="364"/>
      <point x="390" y="385" type="curve"/>
      <point x="390" y="387" type="line"/>
      <point x="460" y="404"/>
      <point x="494" y="467"/>
      <point x="494" y="541" type="curve" smooth="yes"/>
      <point x="494" y="653"/>
      <point x="401" y="724"/>
      <point x="274" y="724" type="curve" smooth="yes"/>
      <point x="152" y="724"/>
      <point x="51" y="662"/>
      <point x="51" y="545" type="curve" smooth="yes"/>
      <point x="51" y="515"/>
      <point x="55" y="500"/>
      <point x="58" y="480" type="curve"/>
      <point x="229" y="480" type="line"/>
      <point x="226" y="494"/>
      <point x="223" y="508"/>
      <point x="223" y="522" type="curve" smooth="yes"/>
      <point x="223" y="555"/>
      <point x="237" y="582"/>
      <point x="271" y="582" type="curve" smooth="yes"/>
      <point x="304" y="582"/>
      <point x="319" y="561"/>
      <point x="319" y="520" type="curve" smooth="yes"/>
      <point x="319" y="479"/>
      <point x="307" y="444"/>
      <point x="263" y="444" type="curve" smooth="yes"/>
      <point x="236" y="444" type="line"/>
      <point x="236" y="307" type="line"/>
      <point x="258" y="307" type="line" smooth="yes"/>
      <point x="309" y="307"/>
      <point x="331" y="271"/>
      <point x="331" y="216" type="curve" smooth="yes"/>
      <point x="331" y="157"/>
      <point x="312" y="131"/>
      <point x="271" y="131" type="curve" smooth="yes"/>
      <point x="229" y="131"/>
      <point x="211" y="167"/>
      <point x="211" y="219" type="curve" smooth="yes"/>
      <point x="211" y="237"/>
      <point x="213" y="256"/>
      <point x="217" y="277" type="curve"/>
      <point x="48" y="277" type="line"/>
      <point x="40" y="249"/>
      <point x="36" y="224"/>
      <point x="36" y="201" type="curve" smooth="yes"/>
      <point x="36" y="68"/>
      <point x="131" y="-10"/>
    </contour>
  </outline>
</glyph>
<glyph name="Zen-georgian" format="2">
  <advance width="588"/>
  <unicode hex="1C96"/>
  <outline>
    <contour>
      <point x="307" y="-10" type="curve" smooth="yes"/>
      <point x="488" y="-10"/>
      <point x="546" y="125"/>
      <point x="546" y="249" type="curve" smooth="yes"/>
      <point x="546" y="350"/>
      <point x="496" y="429"/>
      <point x="409" y="465" type="curve" smooth="yes"/>
      <point x="399" y="469"/>
      <point x="397" y="470"/>
      <point x="390" y="472" type="curve"/>
      <point x="390" y="474" type="line"/>
      <point x="407" y="493"/>
      <point x="420" y="523"/>
      <point x="420" y="562" type="curve" smooth="yes"/>
      <point x="420" y="648"/>
      <point x="345" y="724"/>
      <point x="217" y="724" type="curve" smooth="yes"/>
      <point x="68" y="724"/>
      <point x="11" y="635"/>
      <point x="11" y="540" type="curve" smooth="yes"/>
      <point x="11" y="473"/>
      <point x="54" y="412"/>
      <point x="121" y="390" type="curve"/>
      <point x="121" y="386" type="line"/>
      <point x="83" y="342"/>
      <point x="71" y="291"/>
      <point x="71" y="225" type="curve" smooth="yes"/>
      <point x="71" y="114"/>
      <point x="140" y="-10"/>
    </contour>
    <contour>
      <point x="309" y="135" type="curve" smooth="yes"/>
      <point x="266" y="135"/>
      <point x="245" y="180"/>
      <point x="245" y="247" type="curve" smooth="yes"/>
      <point x="245" y="316"/>
      <point x="262" y="360"/>
      <point x="308" y="360" type="curve" smooth="yes"/>
      <point x="358" y="360"/>
      <point x="372" y="317"/>
      <point x="372" y="249" type="curve" smooth="yes"/>
      <point x="372" y="180"/>
      <point x="358" y="135"/>
    </contour>
    <contour>
      <point x="215" y="485" type="curve" smooth="yes"/>
      <point x="184" y="485"/>
      <point x="170" y="510"/>
      <point x="170" y="541" type="curve" smooth="yes"/>
      <point x="170" y="573"/>
      <point x="184" y="597"/>
      <point x="215" y="597" type="curve" smooth="yes"/>
      <point x="247" y="597"/>
      <point x="260" y="571"/>
      <point x="260" y="541" type="curve" smooth="yes"/>
      <point x="260" y="514"/>
      <point x="248" y="485"/>
    </contour>
  </outline>
</glyph>
<glyph name="Tan-georgian" format="2">
  <advance width="861"/>
  <unicode hex="1C97"/>
  <outline>
    <contour>
      <point x="587" y="724" type="curve" smooth="yes"/>
      <point x="531" y="724"/>
      <point x="469" y="700"/>
      <point x="445" y="647" type="curve"/>
      <point x="442" y="647" type="line"/>
      <point x="416" y="700"/>
      <point x="356" y="724"/>
      <point x="291" y="724" type="curve" smooth="yes"/>
      <point x="123" y="724"/>
      <point x="46" y="604"/>
      <point x="46" y="357" type="curve" smooth="yes"/>
      <point x="46" y="114"/>
      <point x="121" y="-10"/>
      <point x="291" y="-10" type="curve" smooth="yes"/>
      <point x="459" y="-10"/>
      <point x="536" y="109"/>
      <point x="536" y="357" type="curve" smooth="yes"/>
      <point x="536" y="401"/>
      <point x="530" y="438"/>
      <point x="530" y="477" type="curve" smooth="yes"/>
      <point x="530" y="553"/>
      <point x="548" y="577"/>
      <point x="579" y="577" type="curve" smooth="yes"/>
      <point x="612" y="577"/>
      <point x="637" y="537"/>
      <point x="637" y="392" type="curve" smooth="yes"/>
      <point x="637" y="209"/>
      <point x="599" y="86"/>
      <point x="573" y="0" type="curve"/>
      <point x="749" y="0" type="line"/>
      <point x="786" y="114"/>
      <point x="815" y="204"/>
      <point x="815" y="394" type="curve" smooth="yes"/>
      <point x="815" y="599"/>
      <point x="735" y="724"/>
    </contour>
    <contour>
      <point x="291" y="137" type="curve" smooth="yes"/>
      <point x="241" y="137"/>
      <point x="223" y="198"/>
      <point x="223" y="357" type="curve" smooth="yes"/>
      <point x="223" y="513"/>
      <point x="239" y="577"/>
      <point x="291" y="577" type="curve" smooth="yes"/>
      <point x="341" y="577"/>
      <point x="359" y="517"/>
      <point x="359" y="357" type="curve" smooth="yes"/>
      <point x="359" y="201"/>
      <point x="343" y="137"/>
    </contour>
  </outline>
</glyph>
<glyph name="In-georgian" format="2">
  <advance width="582"/>
  <unicode hex="1C98"/>
  <anchor x="291" y="714" name="top"/>
  <outline>
    <contour>
      <point x="96" y="0" type="curve"/>
      <point x="267" y="0" type="line"/>
      <point x="244" y="86"/>
      <point x="223" y="193"/>
      <point x="223" y="372" type="curve" smooth="yes"/>
      <point x="223" y="536"/>
      <point x="249" y="577"/>
      <point x="291" y="577" type="curve" smooth="yes"/>
      <point x="333" y="577"/>
      <point x="359" y="536"/>
      <point x="359" y="372" type="curve" smooth="yes"/>
      <point x="359" y="193"/>
      <point x="338" y="86"/>
      <point x="315" y="0" type="curve"/>
      <point x="486" y="0" type="line"/>
      <point x="521" y="114"/>
      <point x="536" y="199"/>
      <point x="536" y="374" type="curve" smooth="yes"/>
      <point x="536" y="599"/>
      <point x="458" y="724"/>
      <point x="291" y="724" type="curve" smooth="yes"/>
      <point x="124" y="724"/>
      <point x="46" y="599"/>
      <point x="46" y="374" type="curve" smooth="yes"/>
      <point x="46" y="199"/>
      <point x="61" y="114"/>
    </contour>
  </outline>
</glyph>
<glyph name="Kan-georgian" format="2">
  <advance width="530"/>
  <unicode hex="1C99"/>
  <outline>
    <contour>
      <point x="260" y="-10" type="curve" smooth="yes"/>
      <point x="407" y="-10"/>
      <point x="494" y="89"/>
      <point x="494" y="212" type="curve" smooth="yes"/>
      <point x="494" y="315"/>
      <point x="442" y="381"/>
      <point x="384" y="399" type="curve"/>
      <point x="384" y="401" type="line"/>
      <point x="443" y="418"/>
      <point x="478" y="476"/>
      <point x="478" y="547" type="curve" smooth="yes"/>
      <point x="478" y="661"/>
      <point x="393" y="724"/>
      <point x="260" y="724" type="curve"/>
      <point x="260" y="580" type="line"/>
      <point x="295" y="575"/>
      <point x="307" y="548"/>
      <point x="307" y="518" type="curve" smooth="yes"/>
      <point x="307" y="482"/>
      <point x="286" y="462"/>
      <point x="241" y="462" type="curve" smooth="yes"/>
      <point x="220" y="462" type="line"/>
      <point x="220" y="322" type="line"/>
      <point x="242" y="322" type="line" smooth="yes"/>
      <point x="293" y="322"/>
      <point x="318" y="287"/>
      <point x="318" y="227" type="curve" smooth="yes"/>
      <point x="318" y="157"/>
      <point x="299" y="131"/>
      <point x="260" y="131" type="curve" smooth="yes"/>
      <point x="224" y="131"/>
      <point x="206" y="167"/>
      <point x="206" y="219" type="curve" smooth="yes"/>
      <point x="206" y="237"/>
      <point x="208" y="256"/>
      <point x="212" y="277" type="curve"/>
      <point x="43" y="277" type="line"/>
      <point x="35" y="249"/>
      <point x="31" y="224"/>
      <point x="31" y="201" type="curve" smooth="yes"/>
      <point x="31" y="68"/>
      <point x="126" y="-10"/>
    </contour>
  </outline>
</glyph>
<glyph name="Las-georgian" format="2">
  <advance width="1031"/>
  <unicode hex="1C9A"/>
  <outline>
    <contour>
      <point x="585" y="0" type="curve"/>
      <point x="748" y="0" type="line"/>
      <point x="726" y="177"/>
      <point x="562" y="225"/>
      <point x="456" y="240" type="curve" smooth="yes"/>
      <point x="302" y="262"/>
      <point x="215" y="313"/>
      <point x="215" y="467" type="curve" smooth="yes"/>
      <point x="215" y="542"/>
      <point x="229" y="577"/>
      <point x="263" y="577" type="curve" smooth="yes"/>
      <point x="292" y="577"/>
      <point x="303" y="548"/>
      <point x="303" y="508" type="curve" smooth="yes"/>
      <point x="303" y="353" type="line"/>
      <point x="471" y="353" type="line"/>
      <point x="471" y="508" type="line" smooth="yes"/>
      <point x="471" y="546"/>
      <point x="483" y="577"/>
      <point x="516" y="577" type="curve" smooth="yes"/>
      <point x="549" y="577"/>
      <point x="560" y="544"/>
      <point x="560" y="508" type="curve" smooth="yes"/>
      <point x="560" y="353" type="line"/>
      <point x="728" y="353" type="line"/>
      <point x="728" y="508" type="line" smooth="yes"/>
      <point x="728" y="548"/>
      <point x="739" y="577"/>
      <point x="769" y="577" type="curve" smooth="yes"/>
      <point x="802" y="577"/>
      <point x="816" y="543"/>
      <point x="816" y="470" type="curve" smooth="yes"/>
      <point x="816" y="396"/>
      <point x="808" y="341"/>
      <point x="778" y="281" type="curve"/>
      <point x="933" y="238" type="line"/>
      <point x="975" y="316"/>
      <point x="989" y="377"/>
      <point x="989" y="470" type="curve" smooth="yes"/>
      <point x="989" y="624"/>
      <point x="918" y="724"/>
      <point x="798" y="724" type="curve" smooth="yes"/>
      <point x="724" y="724"/>
      <point x="671" y="690"/>
      <point x="651" y="630" type="curve"/>
      <point x="647" y="630" type="line"/>
      <point x="629" y="688"/>
      <point x="586" y="724"/>
      <point x="516" y="724" type="curve" smooth="yes"/>
      <point x="447" y="724"/>
      <point x="403" y="690"/>
      <point x="385" y="630" type="curve"/>
      <point x="380" y="630" type="line"/>
      <point x="361" y="690"/>
      <point x="308" y="724"/>
      <point x="233" y="724" type="curve" smooth="yes"/>
      <point x="113" y="724"/>
      <point x="42" y="624"/>
      <point x="42" y="481" type="curve" smooth="yes"/>
      <point x="42" y="310"/>
      <point x="138" y="223"/>
      <point x="246" y="193" type="curve"/>
      <point x="246" y="189" type="line"/>
      <point x="221" y="184"/>
      <point x="188" y="170"/>
      <point x="161" y="155" type="curve"/>
      <point x="219" y="50" type="line"/>
      <point x="257" y="71"/>
      <point x="318" y="94"/>
      <point x="387" y="94" type="curve" smooth="yes"/>
      <point x="460" y="94"/>
      <point x="563" y="77"/>
    </contour>
  </outline>
</glyph>
<glyph name="Man-georgian" format="2">
  <advance width="568"/>
  <unicode hex="1C9B"/>
  <outline>
    <contour>
      <point x="285" y="-10" type="curve" smooth="yes"/>
      <point x="432" y="-10"/>
      <point x="513" y="85"/>
      <point x="513" y="248" type="curve" smooth="yes"/>
      <point x="513" y="530" type="line" smooth="yes"/>
      <point x="513" y="650"/>
      <point x="431" y="724"/>
      <point x="293" y="724" type="curve" smooth="yes"/>
      <point x="172" y="724"/>
      <point x="74" y="665"/>
      <point x="74" y="569" type="curve" smooth="yes"/>
      <point x="74" y="560"/>
      <point x="75" y="551"/>
      <point x="78" y="535" type="curve"/>
      <point x="247" y="535" type="line"/>
      <point x="246" y="541"/>
      <point x="246" y="543"/>
      <point x="246" y="546" type="curve" smooth="yes"/>
      <point x="246" y="570"/>
      <point x="263" y="588"/>
      <point x="294" y="588" type="curve" smooth="yes"/>
      <point x="326" y="588"/>
      <point x="343" y="570"/>
      <point x="343" y="546" type="curve" smooth="yes"/>
      <point x="343" y="519" type="line" smooth="yes"/>
      <point x="343" y="502"/>
      <point x="344" y="475"/>
      <point x="349" y="434" type="curve"/>
      <point x="343" y="434" type="line"/>
      <point x="311" y="479"/>
      <point x="270" y="494"/>
      <point x="216" y="494" type="curve" smooth="yes"/>
      <point x="108" y="494"/>
      <point x="42" y="404"/>
      <point x="42" y="247" type="curve" smooth="yes"/>
      <point x="42" y="84"/>
      <point x="134" y="-10"/>
    </contour>
    <contour>
      <point x="283" y="135" type="curve" smooth="yes"/>
      <point x="234" y="135"/>
      <point x="216" y="176"/>
      <point x="216" y="248" type="curve" smooth="yes"/>
      <point x="216" y="314"/>
      <point x="234" y="360"/>
      <point x="277" y="360" type="curve" smooth="yes"/>
      <point x="327" y="360"/>
      <point x="343" y="319"/>
      <point x="343" y="270" type="curve" smooth="yes"/>
      <point x="343" y="242" type="line" smooth="yes"/>
      <point x="343" y="187"/>
      <point x="332" y="135"/>
    </contour>
  </outline>
</glyph>
<glyph name="On-georgian" format="2">
  <advance width="825"/>
  <unicode hex="1C9D"/>
  <anchor x="412" y="714" name="top"/>
  <outline>
    <contour>
      <point x="110" y="0" type="curve"/>
      <point x="286" y="0" type="line"/>
      <point x="261" y="86"/>
      <point x="223" y="208"/>
      <point x="223" y="392" type="curve" smooth="yes"/>
      <point x="223" y="534"/>
      <point x="244" y="577"/>
      <point x="278" y="577" type="curve" smooth="yes"/>
      <point x="315" y="577"/>
      <point x="325" y="539"/>
      <point x="325" y="472" type="curve" smooth="yes"/>
      <point x="325" y="210" type="line"/>
      <point x="501" y="210" type="line"/>
      <point x="501" y="472" type="line" smooth="yes"/>
      <point x="501" y="536"/>
      <point x="509" y="577"/>
      <point x="548" y="577" type="curve" smooth="yes"/>
      <point x="580" y="577"/>
      <point x="602" y="537"/>
      <point x="602" y="392" type="curve" smooth="yes"/>
      <point x="602" y="209"/>
      <point x="564" y="86"/>
      <point x="538" y="0" type="curve"/>
      <point x="713" y="0" type="line"/>
      <point x="750" y="114"/>
      <point x="779" y="204"/>
      <point x="779" y="394" type="curve" smooth="yes"/>
      <point x="779" y="599"/>
      <point x="700" y="724"/>
      <point x="558" y="724" type="curve" smooth="yes"/>
      <point x="497" y="724"/>
      <point x="438" y="699"/>
      <point x="414" y="647" type="curve"/>
      <point x="411" y="647" type="line"/>
      <point x="385" y="702"/>
      <point x="327" y="724"/>
      <point x="268" y="724" type="curve" smooth="yes"/>
      <point x="125" y="724"/>
      <point x="46" y="598"/>
      <point x="46" y="394" type="curve" smooth="yes"/>
      <point x="46" y="201"/>
      <point x="75" y="114"/>
    </contour>
  </outline>
</glyph>
<glyph name="Par-georgian" format="2">
  <advance width="541"/>
  <unicode hex="1C9E"/>
  <outline>
    <contour>
      <point x="264" y="-10" type="curve" smooth="yes"/>
      <point x="412" y="-10"/>
      <point x="499" y="94"/>
      <point x="499" y="211" type="curve" smooth="yes"/>
      <point x="499" y="314"/>
      <point x="438" y="374"/>
      <point x="388" y="393" type="curve"/>
      <point x="388" y="396" type="line"/>
      <point x="438" y="408"/>
      <point x="477" y="453"/>
      <point x="477" y="503" type="curve" smooth="yes"/>
      <point x="477" y="566"/>
      <point x="447" y="607"/>
      <point x="405" y="641" type="curve" smooth="yes"/>
      <point x="371" y="668"/>
      <point x="346" y="688"/>
      <point x="346" y="714" type="curve"/>
      <point x="171" y="714" type="line"/>
      <point x="165" y="644"/>
      <point x="201" y="600"/>
      <point x="240" y="572" type="curve" smooth="yes"/>
      <point x="278" y="545"/>
      <point x="301" y="527"/>
      <point x="301" y="500" type="curve" smooth="yes"/>
      <point x="301" y="474"/>
      <point x="282" y="463"/>
      <point x="242" y="463" type="curve" smooth="yes"/>
      <point x="215" y="463" type="line"/>
      <point x="215" y="325" type="line"/>
      <point x="247" y="325" type="line" smooth="yes"/>
      <point x="298" y="325"/>
      <point x="323" y="287"/>
      <point x="323" y="225" type="curve" smooth="yes"/>
      <point x="323" y="162"/>
      <point x="306" y="131"/>
      <point x="263" y="131" type="curve" smooth="yes"/>
      <point x="229" y="131"/>
      <point x="211" y="167"/>
      <point x="211" y="219" type="curve" smooth="yes"/>
      <point x="211" y="237"/>
      <point x="213" y="256"/>
      <point x="217" y="277" type="curve"/>
      <point x="48" y="277" type="line"/>
      <point x="40" y="249"/>
      <point x="36" y="224"/>
      <point x="36" y="201" type="curve" smooth="yes"/>
      <point x="36" y="68"/>
      <point x="131" y="-10"/>
    </contour>
  </outline>
</glyph>
<glyph name="Zhar-georgian" format="2">
  <advance width="608"/>
  <unicode hex="1C9F"/>
  <outline>
    <contour>
      <point x="316" y="-10" type="curve" smooth="yes"/>
      <point x="465" y="-10"/>
      <point x="547" y="73"/>
      <point x="547" y="222" type="curve" smooth="yes"/>
      <point x="547" y="714" type="line"/>
      <point x="410" y="714" type="line"/>
      <point x="334" y="686"/>
      <point x="257" y="669"/>
      <point x="170" y="663" type="curve"/>
      <point x="170" y="532" type="line"/>
      <point x="204" y="530"/>
      <point x="205" y="505"/>
      <point x="205" y="492" type="curve" smooth="yes"/>
      <point x="205" y="473"/>
      <point x="193" y="460"/>
      <point x="177" y="460" type="curve" smooth="yes"/>
      <point x="160" y="460"/>
      <point x="148" y="472"/>
      <point x="148" y="491" type="curve" smooth="yes"/>
      <point x="148" y="495"/>
      <point x="148" y="498"/>
      <point x="149" y="504" type="curve"/>
      <point x="26" y="504" type="line"/>
      <point x="22" y="491"/>
      <point x="21" y="479"/>
      <point x="21" y="469" type="curve" smooth="yes"/>
      <point x="21" y="405"/>
      <point x="80" y="347"/>
      <point x="177" y="347" type="curve" smooth="yes"/>
      <point x="262" y="347"/>
      <point x="340" y="394"/>
      <point x="340" y="476" type="curve" smooth="yes"/>
      <point x="340" y="506"/>
      <point x="332" y="542"/>
      <point x="296" y="561" type="curve"/>
      <point x="296" y="563" type="line"/>
      <point x="323" y="567"/>
      <point x="347" y="573"/>
      <point x="376" y="583" type="curve"/>
      <point x="376" y="233" type="line" smooth="yes"/>
      <point x="376" y="164"/>
      <point x="363" y="131"/>
      <point x="314" y="131" type="curve" smooth="yes"/>
      <point x="275" y="131"/>
      <point x="257" y="167"/>
      <point x="257" y="219" type="curve" smooth="yes"/>
      <point x="257" y="237"/>
      <point x="259" y="256"/>
      <point x="263" y="277" type="curve"/>
      <point x="94" y="277" type="line"/>
      <point x="86" y="249"/>
      <point x="82" y="224"/>
      <point x="82" y="201" type="curve" smooth="yes"/>
      <point x="82" y="68"/>
      <point x="177" y="-10"/>
    </contour>
  </outline>
</glyph>
<glyph name="Rae-georgian" format="2">
  <advance width="795"/>
  <unicode hex="1CA0"/>
  <outline>
    <contour>
      <point x="92" y="0" type="curve"/>
      <point x="262" y="0" type="line"/>
      <point x="234" y="75"/>
      <point x="217" y="150"/>
      <point x="217" y="248" type="curve" smooth="yes"/>
      <point x="217" y="331"/>
      <point x="228" y="369"/>
      <point x="268" y="369" type="curve" smooth="yes"/>
      <point x="304" y="369"/>
      <point x="312" y="338"/>
      <point x="312" y="277" type="curve" smooth="yes"/>
      <point x="312" y="150" type="line"/>
      <point x="482" y="150" type="line"/>
      <point x="482" y="277" type="line" smooth="yes"/>
      <point x="482" y="335"/>
      <point x="489" y="369"/>
      <point x="527" y="369" type="curve" smooth="yes"/>
      <point x="565" y="369"/>
      <point x="577" y="330"/>
      <point x="577" y="251" type="curve" smooth="yes"/>
      <point x="577" y="168"/>
      <point x="562" y="81"/>
      <point x="531" y="0" type="curve"/>
      <point x="702" y="0" type="line"/>
      <point x="739" y="101"/>
      <point x="753" y="163"/>
      <point x="753" y="257" type="curve" smooth="yes"/>
      <point x="753" y="408"/>
      <point x="677" y="509"/>
      <point x="554" y="509" type="curve" smooth="yes"/>
      <point x="479" y="509"/>
      <point x="424" y="474"/>
      <point x="402" y="402" type="curve"/>
      <point x="398" y="402" type="line"/>
      <point x="381" y="474"/>
      <point x="328" y="509"/>
      <point x="267" y="509" type="curve" smooth="yes"/>
      <point x="238" y="509"/>
      <point x="214" y="502"/>
      <point x="195" y="491" type="curve"/>
      <point x="193" y="493" type="line"/>
      <point x="210" y="514"/>
      <point x="255" y="530"/>
      <point x="308" y="543" type="curve" smooth="yes"/>
      <point x="346" y="552"/>
      <point x="487" y="573"/>
      <point x="559" y="578" type="curve"/>
      <point x="540" y="724" type="line"/>
      <point x="410" y="715"/>
      <point x="330" y="701"/>
      <point x="292" y="692" type="curve" smooth="yes"/>
      <point x="79" y="642"/>
      <point x="42" y="475"/>
      <point x="42" y="312" type="curve" smooth="yes"/>
      <point x="42" y="189"/>
      <point x="52" y="114"/>
    </contour>
  </outline>
</glyph>
<glyph name="San-georgian" format="2">
  <advance width="572"/>
  <unicode hex="1CA1"/>
  <outline>
    <contour>
      <point x="288" y="-10" type="curve" smooth="yes"/>
      <point x="440" y="-10"/>
      <point x="530" y="86"/>
      <point x="530" y="235" type="curve" smooth="yes"/>
      <point x="530" y="306"/>
      <point x="520" y="345"/>
      <point x="502" y="392" type="curve" smooth="yes"/>
      <point x="485" y="436"/>
      <point x="470" y="489"/>
      <point x="472" y="525" type="curve"/>
      <point x="299" y="525" type="line"/>
      <point x="294" y="459"/>
      <point x="309" y="409"/>
      <point x="334" y="342" type="curve" smooth="yes"/>
      <point x="347" y="307"/>
      <point x="354" y="275"/>
      <point x="354" y="235" type="curve" smooth="yes"/>
      <point x="354" y="179"/>
      <point x="339" y="137"/>
      <point x="291" y="137" type="curve" smooth="yes"/>
      <point x="245" y="137"/>
      <point x="228" y="175"/>
      <point x="228" y="246" type="curve" smooth="yes"/>
      <point x="228" y="714" type="line"/>
      <point x="55" y="714" type="line"/>
      <point x="55" y="254" type="line" smooth="yes"/>
      <point x="55" y="89"/>
      <point x="138" y="-10"/>
    </contour>
  </outline>
</glyph>
<glyph name="Tar-georgian" format="2">
  <advance width="731"/>
  <unicode hex="1CA2"/>
  <outline>
    <contour>
      <point x="366" y="-10" type="curve" smooth="yes"/>
      <point x="575" y="-10"/>
      <point x="689" y="114"/>
      <point x="689" y="351" type="curve" smooth="yes"/>
      <point x="689" y="552"/>
      <point x="617" y="671"/>
      <point x="447" y="702" type="curve"/>
      <point x="451" y="718"/>
      <point x="450" y="736"/>
      <point x="450" y="747" type="curve"/>
      <point x="450" y="760" type="line"/>
      <point x="281" y="760" type="line"/>
      <point x="281" y="746" type="line"/>
      <point x="281" y="732"/>
      <point x="282" y="718"/>
      <point x="285" y="702" type="curve"/>
      <point x="120" y="670"/>
      <point x="42" y="548"/>
      <point x="42" y="352" type="curve" smooth="yes"/>
      <point x="42" y="114"/>
      <point x="160" y="-10"/>
    </contour>
    <contour>
      <point x="366" y="137" type="curve" smooth="yes"/>
      <point x="264" y="137"/>
      <point x="219" y="213"/>
      <point x="219" y="345" type="curve" smooth="yes"/>
      <point x="219" y="475"/>
      <point x="237" y="537"/>
      <point x="292" y="558" type="curve"/>
      <point x="285" y="532"/>
      <point x="283" y="489"/>
      <point x="283" y="458" type="curve"/>
      <point x="283" y="337" type="line"/>
      <point x="448" y="337" type="line"/>
      <point x="448" y="459" type="line"/>
      <point x="448" y="490"/>
      <point x="447" y="531"/>
      <point x="439" y="559" type="curve"/>
      <point x="492" y="537"/>
      <point x="512" y="480"/>
      <point x="512" y="345" type="curve" smooth="yes"/>
      <point x="512" y="211"/>
      <point x="469" y="137"/>
    </contour>
  </outline>
</glyph>
<glyph name="Un-georgian" format="2">
  <advance width="564"/>
  <unicode hex="1CA3"/>
  <anchor x="266" y="714" name="top"/>
  <outline>
    <contour>
      <point x="283" y="-10" type="curve" smooth="yes"/>
      <point x="428" y="-10"/>
      <point x="509" y="72"/>
      <point x="509" y="219" type="curve" smooth="yes"/>
      <point x="509" y="547" type="line" smooth="yes"/>
      <point x="509" y="643"/>
      <point x="449" y="724"/>
      <point x="331" y="724" type="curve" smooth="yes"/>
      <point x="261" y="724"/>
      <point x="208" y="702"/>
      <point x="183" y="652" type="curve"/>
      <point x="180" y="652" type="line"/>
      <point x="158" y="703"/>
      <point x="114" y="720"/>
      <point x="63" y="720" type="curve" smooth="yes"/>
      <point x="11" y="720" type="line"/>
      <point x="11" y="567" type="line"/>
      <point x="57" y="567" type="line" smooth="yes"/>
      <point x="85" y="567"/>
      <point x="98" y="550"/>
      <point x="98" y="522" type="curve" smooth="yes"/>
      <point x="98" y="413" type="line"/>
      <point x="264" y="413" type="line"/>
      <point x="264" y="532" type="line" smooth="yes"/>
      <point x="264" y="557"/>
      <point x="277" y="574"/>
      <point x="302" y="574" type="curve" smooth="yes"/>
      <point x="327" y="574"/>
      <point x="339" y="557"/>
      <point x="339" y="532" type="curve" smooth="yes"/>
      <point x="339" y="226" type="line" smooth="yes"/>
      <point x="339" y="163"/>
      <point x="325" y="137"/>
      <point x="283" y="137" type="curve" smooth="yes"/>
      <point x="240" y="137"/>
      <point x="224" y="175"/>
      <point x="224" y="229" type="curve" smooth="yes"/>
      <point x="224" y="248"/>
      <point x="228" y="280"/>
      <point x="233" y="307" type="curve"/>
      <point x="66" y="307" type="line"/>
      <point x="56" y="274"/>
      <point x="50" y="240"/>
      <point x="50" y="212" type="curve" smooth="yes"/>
      <point x="50" y="86"/>
      <point x="134" y="-10"/>
    </contour>
  </outline>
</glyph>
<glyph name="Phar-georgian" format="2">
  <advance width="809"/>
  <unicode hex="1CA4"/>
  <outline>
    <contour>
      <point x="475" y="-9" type="curve" smooth="yes"/>
      <point x="659" y="-9"/>
      <point x="751" y="90"/>
      <point x="751" y="189" type="curve" smooth="yes"/>
      <point x="751" y="254"/>
      <point x="727" y="311"/>
      <point x="649" y="335" type="curve"/>
      <point x="649" y="337" type="line"/>
      <point x="730" y="364"/>
      <point x="767" y="421"/>
      <point x="767" y="518" type="curve" smooth="yes"/>
      <point x="767" y="642"/>
      <point x="689" y="724"/>
      <point x="568" y="724" type="curve" smooth="yes"/>
      <point x="495" y="724"/>
      <point x="442" y="696"/>
      <point x="420" y="644" type="curve"/>
      <point x="416" y="644" type="line"/>
      <point x="393" y="696"/>
      <point x="327" y="724"/>
      <point x="265" y="724" type="curve" smooth="yes"/>
      <point x="109" y="724"/>
      <point x="42" y="604"/>
      <point x="42" y="487" type="curve" smooth="yes"/>
      <point x="42" y="383"/>
      <point x="106" y="247"/>
      <point x="273" y="247" type="curve" smooth="yes"/>
      <point x="446" y="247"/>
      <point x="503" y="383"/>
      <point x="503" y="468" type="curve" smooth="yes"/>
      <point x="503" y="486" type="line" smooth="yes"/>
      <point x="503" y="536"/>
      <point x="508" y="577"/>
      <point x="547" y="577" type="curve" smooth="yes"/>
      <point x="579" y="577"/>
      <point x="594" y="555"/>
      <point x="594" y="496" type="curve" smooth="yes"/>
      <point x="594" y="434"/>
      <point x="572" y="403"/>
      <point x="536" y="403" type="curve" smooth="yes"/>
      <point x="524" y="403" type="line"/>
      <point x="524" y="263" type="line"/>
      <point x="529" y="263" type="line" smooth="yes"/>
      <point x="562" y="263"/>
      <point x="578" y="233"/>
      <point x="578" y="203" type="curve" smooth="yes"/>
      <point x="578" y="168"/>
      <point x="549" y="131"/>
      <point x="476" y="131" type="curve" smooth="yes"/>
      <point x="417" y="131"/>
      <point x="374" y="151"/>
      <point x="374" y="193" type="curve" smooth="yes"/>
      <point x="374" y="195"/>
      <point x="374" y="198"/>
      <point x="374" y="200" type="curve"/>
      <point x="213" y="200" type="line"/>
      <point x="210" y="188"/>
      <point x="209" y="174"/>
      <point x="209" y="164" type="curve" smooth="yes"/>
      <point x="209" y="70"/>
      <point x="301" y="-9"/>
    </contour>
    <contour>
      <point x="274" y="394" type="curve" smooth="yes"/>
      <point x="231" y="394"/>
      <point x="215" y="437"/>
      <point x="215" y="485" type="curve" smooth="yes"/>
      <point x="215" y="539"/>
      <point x="231" y="577"/>
      <point x="274" y="577" type="curve" smooth="yes"/>
      <point x="317" y="577"/>
      <point x="331" y="538"/>
      <point x="331" y="486" type="curve" smooth="yes"/>
      <point x="331" y="437"/>
      <point x="318" y="394"/>
    </contour>
  </outline>
</glyph>
<glyph name="Khar-georgian" format="2">
  <advance width="546"/>
  <unicode hex="1CA5"/>
  <outline>
    <contour>
      <point x="264" y="-10" type="curve" smooth="yes"/>
      <point x="408" y="-10"/>
      <point x="491" y="74"/>
      <point x="491" y="228" type="curve" smooth="yes"/>
      <point x="491" y="714" type="line"/>
      <point x="320" y="714" type="line"/>
      <point x="320" y="640" type="line" smooth="yes"/>
      <point x="320" y="622"/>
      <point x="322" y="581"/>
      <point x="325" y="543" type="curve"/>
      <point x="320" y="543" type="line"/>
      <point x="294" y="598"/>
      <point x="249" y="617"/>
      <point x="201" y="617" type="curve" smooth="yes"/>
      <point x="128" y="617"/>
      <point x="51" y="559"/>
      <point x="51" y="430" type="curve" smooth="yes"/>
      <point x="51" y="411"/>
      <point x="52" y="396"/>
      <point x="55" y="382" type="curve"/>
      <point x="222" y="382" type="line"/>
      <point x="221" y="393"/>
      <point x="221" y="404"/>
      <point x="221" y="413" type="curve" smooth="yes"/>
      <point x="221" y="447"/>
      <point x="237" y="476"/>
      <point x="269" y="476" type="curve" smooth="yes"/>
      <point x="302" y="476"/>
      <point x="320" y="448"/>
      <point x="320" y="391" type="curve" smooth="yes"/>
      <point x="320" y="234" type="line" smooth="yes"/>
      <point x="320" y="162"/>
      <point x="307" y="131"/>
      <point x="263" y="131" type="curve" smooth="yes"/>
      <point x="229" y="131"/>
      <point x="211" y="167"/>
      <point x="211" y="219" type="curve" smooth="yes"/>
      <point x="211" y="237"/>
      <point x="213" y="256"/>
      <point x="217" y="277" type="curve"/>
      <point x="48" y="277" type="line"/>
      <point x="40" y="249"/>
      <point x="36" y="224"/>
      <point x="36" y="201" type="curve" smooth="yes"/>
      <point x="36" y="68"/>
      <point x="131" y="-10"/>
    </contour>
  </outline>
</glyph>
<glyph name="Ghan-georgian" format="2">
  <advance width="788"/>
  <unicode hex="1CA6"/>
  <outline>
    <contour>
      <point x="440" y="0" type="curve"/>
      <point x="610" y="0" type="line"/>
      <point x="603" y="127"/>
      <point x="518" y="175"/>
      <point x="421" y="212" type="curve" smooth="yes"/>
      <point x="313" y="253"/>
      <point x="215" y="307"/>
      <point x="215" y="464" type="curve" smooth="yes"/>
      <point x="215" y="542"/>
      <point x="226" y="577"/>
      <point x="266" y="577" type="curve" smooth="yes"/>
      <point x="303" y="577"/>
      <point x="311" y="548"/>
      <point x="311" y="480" type="curve" smooth="yes"/>
      <point x="311" y="352" type="line"/>
      <point x="477" y="352" type="line"/>
      <point x="477" y="480" type="line" smooth="yes"/>
      <point x="477" y="547"/>
      <point x="485" y="577"/>
      <point x="523" y="577" type="curve" smooth="yes"/>
      <point x="561" y="577"/>
      <point x="573" y="541"/>
      <point x="573" y="463" type="curve" smooth="yes"/>
      <point x="573" y="395"/>
      <point x="565" y="340"/>
      <point x="535" y="279" type="curve"/>
      <point x="685" y="237" type="line"/>
      <point x="732" y="323"/>
      <point x="746" y="384"/>
      <point x="746" y="469" type="curve" smooth="yes"/>
      <point x="746" y="625"/>
      <point x="671" y="724"/>
      <point x="549" y="724" type="curve" smooth="yes"/>
      <point x="475" y="724"/>
      <point x="417" y="693"/>
      <point x="395" y="623" type="curve"/>
      <point x="391" y="623" type="line"/>
      <point x="369" y="693"/>
      <point x="314" y="724"/>
      <point x="240" y="724" type="curve" smooth="yes"/>
      <point x="115" y="724"/>
      <point x="42" y="624"/>
      <point x="42" y="469" type="curve" smooth="yes"/>
      <point x="42" y="354"/>
      <point x="98" y="247"/>
      <point x="214" y="194" type="curve"/>
      <point x="214" y="190" type="line"/>
      <point x="179" y="187"/>
      <point x="147" y="174"/>
      <point x="121" y="160" type="curve"/>
      <point x="172" y="51" type="line"/>
      <point x="208" y="71"/>
      <point x="246" y="86"/>
      <point x="306" y="86" type="curve" smooth="yes"/>
      <point x="367" y="86"/>
      <point x="428" y="58"/>
    </contour>
  </outline>
</glyph>
<glyph name="Qar-georgian" format="2">
  <advance width="562"/>
  <unicode hex="1CA7"/>
  <outline>
    <contour>
      <point x="277" y="-10" type="curve" smooth="yes"/>
      <point x="425" y="-10"/>
      <point x="507" y="78"/>
      <point x="507" y="228" type="curve" smooth="yes"/>
      <point x="507" y="714" type="line"/>
      <point x="337" y="714" type="line"/>
      <point x="337" y="593" type="line" smooth="yes"/>
      <point x="337" y="523"/>
      <point x="315" y="483"/>
      <point x="275" y="483" type="curve" smooth="yes"/>
      <point x="237" y="483"/>
      <point x="221" y="505"/>
      <point x="221" y="561" type="curve" smooth="yes"/>
      <point x="221" y="619"/>
      <point x="229" y="659"/>
      <point x="244" y="714" type="curve"/>
      <point x="76" y="714" type="line"/>
      <point x="57" y="668"/>
      <point x="44" y="614"/>
      <point x="44" y="542" type="curve" smooth="yes"/>
      <point x="44" y="414"/>
      <point x="114" y="341"/>
      <point x="217" y="341" type="curve" smooth="yes"/>
      <point x="272" y="341"/>
      <point x="311" y="369"/>
      <point x="338" y="406" type="curve"/>
      <point x="343" y="406" type="line"/>
      <point x="337" y="357"/>
      <point x="337" y="321"/>
      <point x="337" y="276" type="curve" smooth="yes"/>
      <point x="337" y="234" type="line" smooth="yes"/>
      <point x="337" y="162"/>
      <point x="324" y="131"/>
      <point x="276" y="131" type="curve" smooth="yes"/>
      <point x="235" y="131"/>
      <point x="217" y="167"/>
      <point x="217" y="219" type="curve" smooth="yes"/>
      <point x="217" y="237"/>
      <point x="219" y="256"/>
      <point x="223" y="277" type="curve"/>
      <point x="54" y="277" type="line"/>
      <point x="46" y="249"/>
      <point x="42" y="224"/>
      <point x="42" y="201" type="curve" smooth="yes"/>
      <point x="42" y="68"/>
      <point x="137" y="-10"/>
    </contour>
  </outline>
</glyph>
